<?xml version="1.0" encoding="UTF-8" standalone="no"?><!DOCTYPE svg PUBLIC "-//W3C//DTD SVG 1.1//EN" "http://www.w3.org/Graphics/SVG/1.1/DTD/svg11.dtd"><svg width="100%" height="100%" viewBox="0 0 2501 760" version="1.1" xmlns="http://www.w3.org/2000/svg" xmlns:xlink="http://www.w3.org/1999/xlink" xml:space="preserve" xmlns:serif="http://www.serif.com/" style="fill-rule:evenodd;clip-rule:evenodd;stroke-linejoin:round;stroke-miterlimit:2;"><rect id="Artboard1" x="-0" y="0" width="2500.12" height="759.154" style="fill:none;"/><g id="diverlingua_completo"><g id="diverlingua_1_2_"><g id="Nuevo_símbolo_2_"><g id="diverlingua_2_"><g><path d="M764.573,298.753l0,-103.75c0,-11.25 9.167,-20.417 20.417,-20.417c11.666,0 20.833,9.167 20.833,20.417l0,187.087c0,57.517 -47.087,104.592 -104.592,104.592c-57.92,-0 -104.591,-47.075 -104.591,-104.592c-0,-57.912 46.671,-104.583 104.591,-104.583c23.759,-0.004 45.842,7.912 63.342,21.246Zm0,83.333l0,-0.417c0,-34.583 -28.333,-62.916 -63.337,-62.916c-35.005,-0 -63.338,28.333 -63.338,63.329c0,34.587 28.338,63.337 63.338,63.337c35,0 63.337,-28.32 63.337,-63.333Z" style="fill:#09c;fill-rule:nonzero;"/><path d="M837.898,231.253c-3.75,-3.75 -6.25,-9.171 -6.25,-14.584c0,-5.42 2.5,-10.837 6.25,-14.587c3.75,-3.746 9.167,-6.25 14.583,-6.25c5.417,-0 10.834,2.504 14.584,6.25c3.75,3.75 5.833,9.167 5.833,14.587c0,5.413 -2.083,10.834 -5.833,14.584c-3.75,3.75 -9.167,5.833 -14.584,5.833c-5.416,0 -10.833,-2.083 -14.583,-5.833Zm-6.25,235.846l0,-167.93c0,-11.25 9.167,-20.416 20.833,-20.416c11.25,-0 20.417,9.166 20.417,20.416l0,167.93c0,11.67 -9.167,20.833 -20.417,20.833c-11.666,-0 -20.833,-9.163 -20.833,-20.833Z" style="fill:#09c;fill-rule:nonzero;"/><path d="M1064.57,307.086l-62.504,166.679c-3.334,8.334 -11.25,13.754 -19.584,13.754l-0.416,0c-8.75,0 -16.667,-5.833 -19.584,-13.754l-62.504,-166.679c-4.166,-10.833 1.25,-22.917 12.084,-26.662c10.833,-4.167 22.5,1.25 26.666,12.083l43.75,116.246l43.334,-116.246c4.166,-10.838 15.833,-16.25 26.666,-12.083c10.842,3.745 16.259,15.829 12.092,26.662Z" style="fill:#09c;fill-rule:nonzero;"/><path d="M1286.23,382.924c0,11.245 -9.166,20.416 -20.833,20.416l-143.758,0c8.75,25 32.083,42.925 60.004,42.925c9.583,0 26.667,-0.841 46.671,-13.758c9.583,-6.25 22.5,-0.413 27.5,9.592c5,10.416 -0.417,21.25 -10,27.5c-27.504,18.333 -48.754,17.92 -64.171,17.92c-57.921,0 -104.592,-47.087 -104.592,-104.595c0,-57.917 46.671,-104.588 104.592,-104.588c50.417,0 104.587,36.667 104.587,104.588Zm-164.591,-20.834l120.425,0c-8.75,-29.166 -35.417,-42.504 -60.421,-42.504c-27.921,0 -51.254,17.921 -60.004,42.504Z" style="fill:#09c;fill-rule:nonzero;"/><path d="M1436.64,299.169c-0,11.25 -9.167,20.834 -20.834,20.834c-35,-0 -63.337,28.333 -63.337,63.333l-0,83.763c-0,11.241 -9.167,20.833 -20.417,20.833c-11.667,-0 -20.833,-9.592 -20.833,-20.833l-0,-83.763c-0,-57.917 47.087,-104.587 104.591,-104.587c11.659,0.004 20.83,9.17 20.83,20.42Z" style="fill:#09c;fill-rule:nonzero;"/><path d="M1461.62,467.099l-0,-271.267c-0,-11.25 9.166,-20.417 20.833,-20.417c11.25,0 20.417,9.167 20.417,20.417l-0,271.267c-0,11.67 -9.167,20.833 -20.417,20.833c-11.667,-0 -20.833,-9.163 -20.833,-20.833Z" style="fill:#09c;fill-rule:nonzero;"/><path d="M1534.94,231.253c-3.746,-3.75 -6.25,-9.171 -6.25,-14.584c-0,-5.42 2.504,-10.837 6.25,-14.587c3.75,-3.746 9.171,-6.25 14.587,-6.25c5.417,-0 10.838,2.504 14.584,6.25c3.75,3.75 5.833,9.167 5.833,14.587c0,5.413 -2.083,10.834 -5.833,14.584c-3.746,3.75 -9.167,5.833 -14.584,5.833c-5.416,0 -10.837,-2.083 -14.587,-5.833Zm-6.25,235.846l-0,-167.93c-0,-11.25 9.171,-20.416 20.837,-20.416c11.25,-0 20.417,9.166 20.417,20.416l0,167.93c0,11.67 -9.167,20.833 -20.417,20.833c-11.666,-0 -20.837,-9.163 -20.837,-20.833Z" style="fill:#09c;fill-rule:nonzero;"/><path d="M1807.04,382.924l-0,83.762c-0,11.658 -9.163,20.833 -20.834,20.833c-11.245,0 -20.416,-9.175 -20.416,-20.833l-0,-83.762c-0,-35 -28.338,-63.338 -63.338,-63.338c-35,0 -63.333,28.338 -63.333,63.338l-0,83.762c-0,11.658 -9.167,20.833 -20.838,20.833c-11.245,0 -20.416,-9.175 -20.416,-20.833l-0,-83.762c-0,-57.917 47.087,-104.588 104.591,-104.588c57.505,0 104.584,46.671 104.584,104.588Z" style="fill:#09c;fill-rule:nonzero;"/><path d="M2040.78,487.519c0,57.505 -47.087,104.588 -104.591,104.588c-40.421,-0 -76.255,-22.496 -94.175,-58.754c-4.996,-10.417 -0.83,-22.5 9.587,-27.5c10,-5.004 22.5,-0.838 27.5,9.162c10.833,22.088 32.504,35.842 57.088,35.842c34.587,-0 62.5,-27.921 63.337,-62.096l0,-22.917c-17.921,13.342 -39.583,21.675 -63.337,21.675c-57.917,0 -104.592,-47.087 -104.592,-104.595c-0,-57.917 46.671,-104.588 104.592,-104.588c57.504,0 104.591,46.667 104.591,104.588l0,104.595Zm-41.25,-104.595c0,-35 -28.75,-63.338 -63.337,-63.338c-35,0 -63.338,28.338 -63.338,63.338c0,34.591 28.338,63.341 63.338,63.341c34.583,0 63.337,-28.75 63.337,-63.341Z" style="fill:#09c;fill-rule:nonzero;"/><path d="M2237.44,299.169l-0,105.005c-0.417,46.262 -37.917,83.762 -84.588,83.762c-46.25,0 -83.758,-37.5 -84.171,-83.762l0,-105.005c0,-11.25 9.171,-20.416 20.417,-20.416c11.671,-0 20.833,9.166 20.833,20.416l0,104.171c0,23.746 19.167,43.338 42.921,43.338c24.171,-0 43.333,-19.592 43.333,-43.338l0,-104.171c0,-11.25 9.171,-20.416 20.834,-20.416c11.254,-0 20.421,9.166 20.421,20.416Z" style="fill:#09c;fill-rule:nonzero;"/><path d="M2470.77,384.59l-0,81.679c-0,12.071 -8.75,20.834 -20.833,20.834c-8.334,-0 -20.005,-8.763 -20.005,-20.834c-17.912,15 -37.916,20.834 -61.67,20.834c-58.75,-0 -105.421,-43.763 -105.421,-102.513c-0,-58.758 46.671,-105.425 105.421,-105.425c58.758,0.004 102.508,46.671 102.508,105.425Zm-40.838,0c0,-35 -26.666,-64.587 -61.67,-64.587c-35.005,-0 -64.584,29.587 -64.584,64.587c0,35.004 29.584,61.675 64.584,61.675c35,0 61.67,-26.666 61.67,-61.675Z" style="fill:#09c;fill-rule:nonzero;"/></g><g><path d="M324.637,307.138c-0,22.583 -15.504,41.496 -36.458,46.75c-6.75,-1.042 -13.709,-1.542 -20.75,-1.542c-2.459,0 -4.875,0.042 -7.292,0.167l-0.083,0c-55.334,2.792 -102.338,36.958 -123.584,85.083c-2.833,6.375 -5.208,13 -7.125,19.875c0.042,0.046 0,0.046 -0.041,0.088c-8.5,13.454 -23.542,22.417 -40.713,22.417c-26.625,-0 -48.167,-21.542 -48.167,-48.167c0,-0.958 0.042,-1.921 0.084,-2.875c2.504,-8.625 5.462,-17 8.875,-25.167c35.671,-85.125 119.671,-144.666 218.041,-144.666c1.667,-0 3.338,-0 5,0.041l0.042,0c4.292,0.084 8.546,0.292 12.754,0.625c22.417,4.121 39.417,23.746 39.417,47.371Z" style="fill:#09c;fill-rule:nonzero;"/><path d="M503.762,76.805l-0,229.166c-4.917,21 -23.579,36.625 -45.954,36.625c-26.088,0 -47.254,-21.333 -47.254,-47.625l-0,-218.166c-0,-25.417 20.712,-46.125 46.125,-46.125c26.375,-0 47.083,20.708 47.083,46.125Z" style="fill:#939;fill-rule:nonzero;"/><path d="M457.804,372.18c-26.088,-0 -47.255,21.333 -47.255,47.625l0,79.837c0,79.121 -64.037,143.163 -143.125,143.163c-58.245,-0 -108.287,-35.25 -130.708,-84.959l0,-0.045c-3.621,-8.125 -6.537,-16.621 -8.621,-25.455l0,-0.041c-8.708,-12.459 -23.171,-20.584 -39.5,-20.584c-26.625,0 -48.166,21.584 -48.166,48.209c-0,2.625 0.208,5.162 0.583,7.666c0.042,0.042 0.042,0.084 0.042,0.084c1.5,5 3.125,9.916 4.958,14.791c-0,0.046 0.042,0.088 0.042,0.125c33.587,89.375 119.833,153.417 221.375,153.417c129.916,0 236.333,-106.417 236.333,-236.371l-0,-90.837c-4.917,-21 -23.583,-36.625 -45.958,-36.625Z" style="fill:#09c;fill-rule:nonzero;"/></g></g></g></g></g></svg>