<?xml version="1.0" encoding="utf-8"?>
<!-- Generator: Adobe Illustrator 15.0.0, SVG Export Plug-In . SVG Version: 6.00 Build 0)  -->
<!DOCTYPE svg PUBLIC "-//W3C//DTD SVG 1.1//EN" "http://www.w3.org/Graphics/SVG/1.1/DTD/svg11.dtd">
<svg version="1.1" id="Capa_1" xmlns="http://www.w3.org/2000/svg" xmlns:xlink="http://www.w3.org/1999/xlink" x="0px" y="0px"
	 width="442px" height="310px" viewBox="0 0 442 310" enable-background="new 0 0 442 310" xml:space="preserve">
<path fill="#FFFFFF" d="M156.675,295.188c0,0-149.033-77.684-66.567-133.174c76.972-51.788,22.298-23.188,36.588-84.453
	c9.313-39.912,111.265-108.742,200.021-19.956c42.25,42.262-22.521,37.446,44.556,135.909
	c64.203,94.246-102.16,100.691-102.16,100.691L156.675,295.188z"/>
<path fill="#83E8F2" d="M43.091,282.087c0,11.056,79.708,20.016,178.03,20.016c98.321,0,178.028-8.96,178.028-20.016
	c0-11.054-79.707-20.014-178.028-20.014C122.798,262.073,43.091,271.033,43.091,282.087"/>
<path fill="#83E8F2" d="M242.904,248.165c4.217-2.42,9.183-2.733,13.862-1.874c2.518,0.462,5.135,1.301,6.847,3.398
	c1.715,2.103,2.037,5.8,0.071,7.604c-1.169,1.073-2.8,1.234-4.314,1.216c-3.664-0.046-7.731-0.765-10.659,1.688
	c-1.669,1.398-2.781,3.724-4.778,4.412c-1.956,0.674-4.159-0.608-5.196-2.569c-1.032-1.961-1.066-4.411-0.586-6.621
	C238.147,255.42,238.656,250.602,242.904,248.165"/>
<path fill="#83E8F2" d="M233.243,227.428c2.576,4.096,7.588,2.738,9.909,0.238c2.325-2.498,3.308-6.121,4.2-9.576
	c2.042-7.893,4.104-16.174,2.584-24.21c-0.455-2.405-1.263-4.802-2.782-6.583c-1.518-1.783-3.854-2.844-5.987-2.217
	c-2.524,0.742-4.1,3.494-5.232,6.111c-3.335,7.692-5.103,16.227-5.127,24.769C230.796,219.949,231.219,224.134,233.243,227.428"/>
<path fill="#83E8F2" d="M226.162,233.303c2.799-3.693,3.331-9.082,2.086-13.712c-1.246-4.628-4.063-8.567-7.306-11.778
	c-3.804-3.771-8.271-6.703-13.075-8.584c-1.896-0.736-3.888-1.319-5.886-1.107c-1.994,0.212-4.003,1.347-4.935,3.318
	c-1.376,2.92-0.06,6.459,1.37,9.352c2.514,5.088,5.389,9.957,8.59,14.546c2.575,3.688,5.522,7.331,9.449,8.999
	c3.923,1.669,8,1.473,10.08-1.555"/>
<path fill="#75C6BC" d="M233.068,289.2c0.051,0.002,0.126-0.661,0.234-1.86c0.117-1.354,0.266-3.056,0.443-5.078
	c0.212-2.137,0.49-4.682,1.024-7.449c0.531-2.762,1.365-5.756,2.438-8.789c1.104-3.021,2.457-5.765,4.037-7.957
	c1.564-2.2,3.39-3.797,5.104-4.719c1.708-0.938,3.239-1.315,4.298-1.488c1.068-0.118,1.666-0.215,1.666-0.269
	c0-0.052-0.598-0.061-1.692-0.028c-1.09,0.082-2.687,0.39-4.482,1.297c-1.806,0.893-3.74,2.513-5.384,4.763
	c-1.657,2.237-3.061,5.042-4.188,8.11c-1.087,3.093-1.908,6.115-2.417,8.938c-0.506,2.819-0.736,5.392-0.892,7.544
	c-0.146,2.155-0.199,3.901-0.228,5.108C233.009,288.527,233.021,289.195,233.068,289.2"/>
<path fill="#75C6BC" d="M233.384,285.292c0.021-0.001,0.038-0.299,0.045-0.862c-0.002-0.65-0.004-1.466-0.007-2.47
	c-0.005-2.144-0.003-5.244,0.1-9.073c0.17-7.658,0.766-15.898,1.907-27.52c1.085-10.926,2.54-23.641,4.078-31.909
	c0.331-1.879,0.662-3.571,0.974-5.054c0.297-1.485,0.555-2.766,0.797-3.801c0.212-0.978,0.386-1.771,0.521-2.399
	c0.108-0.552,0.161-0.845,0.136-0.853c-0.021-0.01-0.114,0.271-0.269,0.813c-0.169,0.619-0.386,1.402-0.646,2.363
	c-0.286,1.022-0.578,2.299-0.913,3.777c-0.349,1.475-0.715,3.161-1.076,5.041c-1.52,7.489-3.129,17.959-4.282,29.605
	c-1.147,11.645-1.666,22.248-1.71,29.925c-0.04,3.836,0.029,6.942,0.118,9.088c0.057,1.003,0.103,1.818,0.138,2.47
	C233.328,284.999,233.359,285.295,233.384,285.292"/>
<path fill="#75C6BC" d="M233.43,264.846c0.048-0.003,0.04-0.921-0.018-2.58c-0.084-1.658-0.29-4.055-0.709-6.988
	c-0.445-2.93-1.068-6.402-2.044-10.182c-0.426-1.727-1.417-5.863-3.828-12.047c-3.179-8.378-7.49-15.225-11.242-19.467
	c-0.881-1.127-1.861-1.939-2.646-2.734c-0.402-0.383-0.764-0.761-1.13-1.063c-0.367-0.279-0.71-0.543-1.023-0.787
	c-1.236-0.938-1.931-1.436-1.952-1.391c-0.112,0.168,2.766,2.053,6.396,6.352c3.62,4.289,7.814,11.092,10.964,19.396
	c1.76,4.504,2.982,8.522,3.853,11.938c1.004,3.74,1.671,7.182,2.174,10.08c0.479,2.902,0.757,5.273,0.924,6.918
	C233.281,263.936,233.381,264.848,233.43,264.846"/>
<g opacity="0.1">
	<g>
		<g>
			<g>
				<g>
					<defs>
						<rect id="SVGID_1_" x="107.883" y="272.266" width="226.478" height="19.646"/>
					</defs>
					<clipPath id="SVGID_2_">
						<use xlink:href="#SVGID_1_"  overflow="visible"/>
					</clipPath>
					<path clip-path="url(#SVGID_2_)" fill="#001627" d="M334.36,282.088c0,5.424-50.696,9.821-113.236,9.821
						c-62.539,0-113.238-4.397-113.238-9.821c0-5.425,50.7-9.822,113.238-9.822C283.662,272.266,334.36,276.663,334.36,282.088"/>
				</g>
			</g>
		</g>
	</g>
</g>
<linearGradient id="SVGID_3_" gradientUnits="userSpaceOnUse" x1="-74.8274" y1="-206.0884" x2="-54.8733" y2="-206.0884" gradientTransform="matrix(1 0 0 -1 237.2095 79.1113)">
	<stop  offset="0" style="stop-color:#FFA1A1"/>
	<stop  offset="0.0051" style="stop-color:#FFA1A1"/>
	<stop  offset="1" style="stop-color:#FFD9D9"/>
</linearGradient>
<path fill="url(#SVGID_3_)" d="M182.322,294.572c0.02,0.324,0.02,0.65,0,0.977c-0.008,0.122-0.008,0.245-0.021,0.366
	c0,0.041,0,0.081-0.008,0.132c-0.007,0.13-0.024,0.268-0.049,0.398v0.041c-0.604-0.021-1.229-0.133-1.885-0.398
	c-2.134-0.872-5.842-3.079-9.065-4.593c-0.019,0-0.024-0.009-0.04-0.017c-0.368-0.203-0.734-0.387-1.108-0.563
	c-0.479-0.229-0.97-0.435-1.458-0.649c-0.432-0.188-0.854-0.385-1.263-0.597c-0.204-0.099-0.408-0.205-0.604-0.315
	c-0.202-0.114-0.404-0.233-0.608-0.367c-1.906-1.254-3.244-2.459-3.829-4.217c0.228-1.49,0.701-2.914,1.824-4.179
	c0.392-0.424,0.791-0.806,1.182-1.188c0.139-0.131,0.261-0.252,0.391-0.383c0.114-0.112,0.229-0.229,0.345-0.352
	c0.383-0.406,0.74-0.854,1.051-1.384c0.604-1.06,1.043-2.207,1.426-3.371l7.088,2.874c-0.83,2.133-1.425,4.413-1.091,6.473v0.01
	c0.057,0.373,0.146,0.732,0.277,1.092c0.008,0.01,0.008,0.016,0.017,0.022c0.024,0.097,0.065,0.204,0.114,0.302
	c0.032,0.105,0.082,0.203,0.13,0.301c0.961,1.986,2.876,3.503,4.384,5.063c0.897,0.937,1.817,1.906,2.469,3.039
	c0.1,0.171,0.188,0.365,0.276,0.577C182.281,293.973,182.306,294.271,182.322,294.572"/>
<path fill="#2E353A" d="M182.322,294.572c0.02,0.324,0.02,0.65,0,0.977c-0.008,0.122-0.008,0.245-0.021,0.366
	c0,0.041,0,0.081-0.008,0.132c-0.007,0.13-0.024,0.268-0.049,0.398v0.041c-0.604-0.021-1.229-0.133-1.885-0.398
	c-2.134-0.872-5.842-3.079-9.065-4.593c-0.019,0-0.024-0.009-0.04-0.017c-0.368-0.203-0.734-0.387-1.108-0.563
	c-0.479-0.229-0.97-0.435-1.458-0.649c-0.432-0.188-0.854-0.385-1.263-0.597c-0.204-0.099-0.408-0.205-0.604-0.315
	c-0.202-0.114-0.404-0.233-0.608-0.367c-1.906-1.254-3.244-2.459-3.829-4.217c0.228-1.49,0.701-2.914,1.824-4.179
	c0.392-0.424,0.791-0.806,1.182-1.188c0.13-0.12,0.261-0.252,0.391-0.383c0.114-0.112,0.229-0.229,0.345-0.352
	c0.098,0.007,0.193,0.007,0.293,0.023c1.891,0.334,1.686,2.117,2.843,3.168c1.476,1.353,3.537,0.969,5.337,1.397h0.008
	c0.065,0.386,0.155,0.759,0.285,1.124c0.033,0.104,0.065,0.204,0.114,0.305c0.032,0.104,0.082,0.199,0.13,0.301
	c0.961,1.986,2.876,3.5,4.384,5.063c0.897,0.938,1.817,1.906,2.469,3.039c0.1,0.171,0.188,0.365,0.276,0.577
	C182.281,293.973,182.306,294.271,182.322,294.572"/>
<path fill="#2E353A" d="M186.364,294.963c-0.698,0.619-2.224,1.596-4.124,1.523c-0.602-0.021-1.229-0.133-1.882-0.398
	c-2.134-0.872-5.842-3.079-9.065-4.593c-0.019,0-0.024-0.009-0.04-0.017c-0.932-0.439-1.813-0.822-2.607-1.092l0.041-0.121
	l1.688-4.666l4.22-2.328c-0.041,0.041-0.188,0.26,0.277,1.092c0.008,0.008,0.008,0.015,0.017,0.023
	c0.317,0.563,0.92,1.397,2.004,2.637C179.845,290.387,187.284,294.148,186.364,294.963"/>
<path fill="#B57C7C" d="M178.791,95.107c0.021-0.178,1.561-0.023,2.857-0.924c1.306-0.897,1.396-2.175,1.611-2.164
	c0.1-0.006,0.239,0.313,0.148,0.846c-0.087,0.524-0.464,1.264-1.261,1.814c-0.797,0.55-1.742,0.725-2.383,0.7
	C179.12,95.359,178.767,95.188,178.791,95.107"/>
<linearGradient id="SVGID_4_" gradientUnits="userSpaceOnUse" x1="-15.9368" y1="20.9619" x2="-3.5422" y2="20.9619" gradientTransform="matrix(1 0 0 -1 237.2095 79.1113)">
	<stop  offset="0" style="stop-color:#FFA1A1"/>
	<stop  offset="0.0051" style="stop-color:#FFA1A1"/>
	<stop  offset="1" style="stop-color:#FFD9D9"/>
</linearGradient>
<polyline fill="url(#SVGID_4_)" points="233.667,52.421 226.618,67.473 221.273,63.956 231.244,48.825 "/>
<path fill="#6E74CD" d="M206.242,223.302c-3.382,7.341-25.381,55.378-25.381,55.378s-12.628,2.035-17.925-6.922
	c3.666-2.85,9.777-49.667,29.332-56.588C211.825,208.249,206.242,223.302,206.242,223.302"/>
<path fill="#676FBA" d="M193.409,215.057c-3.154,4.416-5.536,9.575-8.021,14.389c-2.571,4.994-4.973,10.07-7.306,15.182
	c-2.232,4.896-4.405,9.816-6.505,14.771c-2.002,4.726-4.163,9.656-5.153,14.713c-0.132,0.677,0.824,0.949,1.038,0.287
	c1.686-5.246,3.383-10.387,5.538-15.472c2.054-4.848,4.121-9.692,6.271-14.497c2.19-4.892,4.528-9.715,6.94-14.496
	c2.463-4.889,5.438-9.609,7.648-14.605C194.002,215.014,193.609,214.775,193.409,215.057"/>
<linearGradient id="SVGID_5_" gradientUnits="userSpaceOnUse" x1="-100.8889" y1="26.0381" x2="-96.218" y2="26.0381" gradientTransform="matrix(1 0 0 -1 237.2095 79.1113)">
	<stop  offset="0" style="stop-color:#FFA1A1"/>
	<stop  offset="0.0051" style="stop-color:#FFA1A1"/>
	<stop  offset="1" style="stop-color:#FFD9D9"/>
</linearGradient>
<path fill="url(#SVGID_5_)" d="M136.42,55.594c0.229-1.571,0.957-2.911,0.886-4.244c0.183-1.228,0.384-2.467,0.911-3.586
	c0.551-1.174,1.52-2.218,2.774-2.545c-2.179,4.388,0.229,10.071-2.104,14.381l-1.769,1.328
	C136.49,59.255,136.135,57.545,136.42,55.594"/>
<linearGradient id="SVGID_6_" gradientUnits="userSpaceOnUse" x1="-115.1741" y1="25.5996" x2="-98.2483" y2="25.5996" gradientTransform="matrix(1 0 0 -1 237.2095 79.1113)">
	<stop  offset="0" style="stop-color:#FFA1A1"/>
	<stop  offset="0.0051" style="stop-color:#FFA1A1"/>
	<stop  offset="1" style="stop-color:#FFD9D9"/>
</linearGradient>
<path fill="url(#SVGID_6_)" d="M137.449,52.664c0,0-9.53-9.279-10.68-8.134c-0.143,0.115,1.007,1.367,1.111,1.5
	c1.634,2.063,5.417,5.643,4.899,6.196c-0.518,0.555-8.775-6.949-9.603-6.255c-0.153,0.35,0.114,0.73,0.364,1.018
	c2.167,2.506,6.812,7.199,6.501,7.515c-0.311,0.317-7.318-5.23-8.008-4.175c0.014,0.209,0.173,0.374,0.324,0.518
	c1.962,1.869,6.031,5.317,5.887,5.607c-0.146,0.29-4.06-1.756-4.396-1.327c-0.337,0.43,7.771,6.264,11.07,7.433
	c1.082,0.384,4.184-2.852,4.036-4.124C138.814,57.163,137.449,52.664,137.449,52.664"/>
<linearGradient id="SVGID_7_" gradientUnits="userSpaceOnUse" x1="-101.7922" y1="12.2739" x2="-90.1516" y2="12.2739" gradientTransform="matrix(1 0 0 -1 237.2095 79.1113)">
	<stop  offset="0" style="stop-color:#FFA1A1"/>
	<stop  offset="0.0051" style="stop-color:#FFA1A1"/>
	<stop  offset="1" style="stop-color:#FFD9D9"/>
</linearGradient>
<polyline fill="url(#SVGID_7_)" points="135.417,60.823 141.502,76.289 147.058,73.116 138.064,57.386 "/>
<linearGradient id="SVGID_8_" gradientUnits="userSpaceOnUse" x1="-8.1194" y1="34.6528" x2="-4.1819" y2="34.6528" gradientTransform="matrix(1 0 0 -1 237.2095 79.1113)">
	<stop  offset="0" style="stop-color:#FFA1A1"/>
	<stop  offset="0.0051" style="stop-color:#FFA1A1"/>
	<stop  offset="1" style="stop-color:#FFD9D9"/>
</linearGradient>
<path fill="url(#SVGID_8_)" d="M232.996,47.14c-0.13-1.583-0.771-2.965-0.615-4.292c-0.104-1.236-0.229-2.485-0.687-3.636
	c-0.476-1.206-1.376-2.311-2.604-2.715c1.896,4.518-0.865,10.036,1.188,14.484l1.685,1.439
	C232.695,50.789,233.156,49.106,232.996,47.14"/>
<linearGradient id="SVGID_9_" gradientUnits="userSpaceOnUse" x1="-6.9446" y1="33.7158" x2="10.4714" y2="33.7158" gradientTransform="matrix(1 0 0 -1 237.2095 79.1113)">
	<stop  offset="0" style="stop-color:#FFA1A1"/>
	<stop  offset="0.0051" style="stop-color:#FFA1A1"/>
	<stop  offset="1" style="stop-color:#FFD9D9"/>
</linearGradient>
<path fill="url(#SVGID_9_)" d="M232.154,44.15c0,0,10.1-8.66,11.169-7.445c0.139,0.125-1.091,1.302-1.202,1.427
	c-1.764,1.959-5.765,5.29-5.282,5.875c0.479,0.585,9.198-6.382,9.979-5.638c0.128,0.359-0.161,0.723-0.429,0.994
	c-2.321,2.363-7.253,6.754-6.964,7.089c0.288,0.336,7.634-4.759,8.257-3.661c-0.028,0.205-0.2,0.36-0.358,0.494
	c-2.073,1.742-6.354,4.927-6.228,5.225c0.126,0.299,4.161-1.497,4.469-1.047c0.313,0.45-8.147,5.761-11.518,6.72
	c-1.104,0.314-3.995-3.109-3.769-4.369C230.507,48.555,232.154,44.15,232.154,44.15"/>
<linearGradient id="SVGID_10_" gradientUnits="userSpaceOnUse" x1="-96.0471" y1="-95.3369" x2="-70.1653" y2="-95.3369" gradientTransform="matrix(1 0 0 -1 237.2095 79.1113)">
	<stop  offset="0" style="stop-color:#FFA1A1"/>
	<stop  offset="0.0051" style="stop-color:#FFA1A1"/>
	<stop  offset="1" style="stop-color:#FFD9D9"/>
</linearGradient>
<path fill="url(#SVGID_10_)" d="M165.902,176.287c-0.304-1.547,0.05-2.891,0.067-4.438c0.024-1.688-0.547-3.072-1.356-4.352
	c-1.597-0.939-3.396-0.975-5.655-0.673c-1.45,0.192-2.832,0.717-4.24,1.112c-4.229,1.191-8.671,1.244-13.066,1.235
	c-0.246,0.269-0.401,0.542-0.488,0.817c0.322,1.191,1.104,2.253,1.965,3.164c0.206,0.22,0.422,0.429,0.64,0.639
	c0.205,0.104,0.404,0.193,0.59,0.26c1.232,0.428,2.565,0.559,3.854,0.672c2.161,0.194,4.604,0.09,6.63,0.955
	c2.516,1.073,3.958,3.775,4.963,6.561l7.24-2.473C166.565,178.643,166.138,177.484,165.902,176.287"/>
<path fill="#2E353A" d="M156.371,176.646c1.642-0.858,2.947-2.502,4.954-2.449c1.562,0.039,2.575,1.521,4.227,0.529
	c0.085-0.053,0.157-0.112,0.236-0.17c0.031-0.891,0.17-1.763,0.183-2.707c0.023-1.688-0.549-3.072-1.356-4.352
	c-1.597-0.938-3.396-0.975-5.657-0.673c-1.448,0.19-2.83,0.717-4.239,1.112c-4.229,1.189-8.67,1.244-13.066,1.235
	c-0.246,0.269-0.4,0.542-0.487,0.817c0.321,1.191,1.104,2.253,1.964,3.164c0.206,0.22,0.422,0.43,0.64,0.639
	c0.204,0.104,0.404,0.193,0.59,0.26c1.232,0.428,2.564,0.559,3.854,0.672c2.161,0.194,4.604,0.09,6.63,0.955
	C155.404,175.926,155.907,176.26,156.371,176.646"/>
<path fill="#6E74CD" d="M212.686,171.273c-0.022,0.9-0.082,1.8-0.139,2.692c-0.741,11.063-2.093,22.073-3.455,33.073
	c-0.473,3.835-0.945,7.67-1.418,11.505c-0.195,1.612-0.505,3.419-1.841,4.351c-0.638,0.445-1.417,0.615-2.175,0.779
	c-2.665,0.568-5.867,0.979-7.719-1.01c-0.889-0.962-1.247-2.288-1.563-3.561c-4.205-17.008-6.563-34.48-7.008-51.996l2.681-4.504
	l0.83-1.392c0.863-0.7,1.793-1.319,2.771-1.856c2.331-1.275,4.933-2.074,7.586-2.303c1.893-0.162,3.854-0.023,5.572,0.766
	c1.337,0.609,2.438,1.578,3.316,2.742c0.953,1.267,1.629,2.771,2.021,4.311C212.686,166.958,212.758,169.116,212.686,171.273"/>
<path fill="#676FBA" d="M193.508,222.643c-6.841,2.545-15.053,0.937-20.422-4.011c-1.754-1.614-3.203-3.532-4.567-5.487
	c-4.876-6.99-8.801-14.608-12.064-22.479c-1.012-2.43-1.997-4.949-3.803-6.861c5.854-2.91,11.793-5.645,17.813-8.197
	c1.854-0.787,3.837-1.571,5.834-1.282"/>
<path fill="#6E74CD" d="M195.803,218.807c-0.415,1.688-1,3.484-2.427,4.471c-1.523,1.061-3.617,0.89-5.32,0.164
	c-1.931-0.82-3.569-2.306-4.628-4.111c-0.97-1.661-1.451-3.559-1.988-5.396c-2.347-8.078-5.979-15.707-9.019-23.539
	c-2.937-7.559-5.37-15.473-5.46-23.558c-0.008-0.302-0.008-0.604-0.008-0.903c0.022-2.522,0.282-5.05,0.921-7.49
	c0.22-0.832,0.479-1.65,0.79-2.459c0.603-1.604,1.377-3.145,2.298-4.583l15.619,5.956c0.375,0.354,0.739,0.729,1.092,1.111
	c3.145,3.383,5.369,7.541,6.857,11.945c0.387,1.091,0.712,2.207,0.995,3.322c1.559,6.104,1.907,12.455,2.11,18.748
	C197.931,201.311,197.922,210.241,195.803,218.807"/>
<path fill="#676FBA" d="M194.531,170.41c-3.158-0.887-6.437-1.407-9.72-1.549c-3.565-0.146-7.161,0.156-10.723-0.162
	c-2.452-0.219-4.945-0.764-7.129-1.862c-0.008-0.302-0.008-0.603-0.008-0.905c0.022-2.521,0.282-5.049,0.921-7.49
	c0.22-0.832,0.479-1.65,0.79-2.459c1.255-0.029,2.51,0.019,3.757,0.093c5.146,0.313,10.258,1.114,15.251,2.394
	C190.817,161.846,193.042,166.005,194.531,170.41"/>
<path fill="#676FBA" d="M212.686,171.273c-4.164,0.603-8.65-0.742-12.866,0.063c-0.534,0.1-1.104,0.264-1.458,0.686
	c-0.334,0.405-0.391,0.971-0.431,1.498c-1.108,14.068-1.735,28.172-1.883,42.28c0.188-17.567-1.205-35.155-4.155-52.483
	l-1.841-0.707l-18.488-7.084c4.563-0.568,9.084,0.945,13.542,2.096c2.813,0.727,5.671,1.311,8.546,1.74
	c4.346,0.678,8.729,1.011,13.118,1.011c1.117,0,2.268-0.017,3.356,0.194c0.953,1.266,1.629,2.77,2.021,4.31
	C212.686,166.958,212.758,169.116,212.686,171.273"/>
<path fill="#25CCF7" d="M185.951,80.526c2.777-6.108,0.77-14.017-4.591-18.061c-1.313-0.989-2.882-1.782-4.521-1.703
	c-1.162,0.054-2.278,0.542-3.44,0.527c-1.808-0.021-3.351-1.216-4.928-2.1c-2.372-1.327-5.17-2.021-7.847-1.542
	c-2.681,0.48-5.183,2.249-6.181,4.776c1.678-0.646,3.45-1.147,5.24-1.026c1.791,0.123,3.607,0.958,4.545,2.487
	c0.938,1.527,0.742,3.771-0.685,4.859c-1.199,0.914-2.847,0.844-4.355,0.835c-2.241-0.012-4.484,0.205-6.687,0.646
	c-1.796,0.359-3.61,0.893-5.054,2.017c-1.446,1.124-2.46,2.946-2.189,4.755c0.369,2.472,2.911,4.197,3.254,6.672
	c0.268,1.912-0.893,3.775-2.388,4.995c-1.497,1.219-3.316,1.956-5.007,2.887c-3.149,1.73-5.9,4.177-7.989,7.1
	c-1.477,2.065-2.655,4.659-1.925,7.09c0.313,1.043,0.955,1.956,1.635,2.808c1.967,2.453,4.366,4.56,7.052,6.194
	c-1.858-1.541-1.691-4.891,0.313-6.239c0.396,2.771,3.224,4.407,5.714,5.688c2.489,1.281,5.27,3.087,5.429,5.882
	c0.114,1.999-1.219,3.88-1.063,5.877c0.174,2.249,2.165,3.918,4.176,4.944c5.25,2.679,11.762,2.736,17.057,0.144
	c0.36-0.175,0.761-0.434,0.775-0.833c0.008-0.248-0.143-0.469-0.271-0.678c-2.289-3.67-0.538-8.581,2.167-11.956
	s6.316-6.056,8.396-9.848c1.928-3.516,2.338-7.83,1.104-11.646"/>
<path fill="#0099CC" d="M194.724,120.792c5.842-5.133,9.512-12.256,12.669-19.36s5.992-14.46,10.638-20.695
	c1.479-1.986,3.137-3.841,4.53-5.884c1.245-1.821,2.278-3.776,3.311-5.727c1.479-2.804,2.96-5.61,4.438-8.415
	c0.165-0.309,0.329-0.693,0.146-0.991c-0.109-0.183-0.319-0.276-0.519-0.358c-1.144-0.483-2.288-0.965-3.431-1.447
	c-0.489-0.207-1.026-0.416-1.538-0.274c-0.411,0.114-0.726,0.435-1.021,0.743c-5.019,5.246-10.032,10.492-15.051,15.74
	c-1.508,1.577-3.022,3.166-4.218,4.992c-3.049,4.666-3.8,10.595-7.111,15.079c-2.461,3.332-6.297,5.524-10.378,6.245
	c-1.563,0.277-13.175,0.751-13.379,0.82c-0.204,0.067-6.313,14.927-6.313,14.927l8.215,7.191l18.875-2.307"/>
<path fill="#F4E88E" d="M213.533,169.328c-5.096-3.208-11.732-2.852-17.868-2.842c-9.32,0.022-18.645-1.043-27.688-3.166
	c-0.644-0.156-1.311-0.326-1.792-0.76c-0.847-0.765-0.782-2.035-0.627-3.135c0.407-2.857,1.002-5.716,1.613-8.567
	c1.695-7.905,3.528-15.803,1.809-23.596c-0.007-0.024-0.007-0.041-0.016-0.064c-0.807-3.64-2.379-7.116-3.047-10.78
	c-0.677-3.655-0.313-7.76,2.305-10.561l6.339-2.394c4.783,1.131,10.046,0.358,14.229-2.093c0.757-0.447,1.727-0.952,2.477-0.505
	c0.317,0.188,0.513,0.513,0.701,0.814c3.202,5.317,7.626,9.982,12.882,13.598c1.442,0.993,3.022,1.987,3.731,3.533
	c0.017,0.024,0.022,0.057,0.029,0.082c1.157,2.662-0.758,5.651-2.891,7.743c-0.628,0.619-1.304,1.246-1.614,2.052
	c-0.016,0.032-0.029,0.057-0.041,0.089c-0.285,0.822-0.146,1.718,0.025,2.573c1.751,8.818,6.298,16.977,8.114,25.789
	C213.036,161.152,213.289,165.249,213.533,169.328"/>
<path fill="#D8CB80" d="M205.72,126.638c-0.628,0.619-1.304,1.246-1.614,2.052c-0.285,0.041-0.562,0.081-0.847,0.113
	c-4.001,0.537-8.01,1.067-12.021,1.604c-1.563,0.212-3.159,0.424-4.586,1.116c-1.427,0.684-2.673,1.93-2.939,3.484
	c-0.293,1.693,0.579,3.338,1.426,4.828c0.791,1.385,1.573,2.769,2.355,4.153c0.869,1.523,1.76,3.143,1.76,4.902
	c-1.751,0.448-3.512,0.903-5.271,1.351c-1.915,0.489-3.878,1.002-5.466,2.191c-0.546,0.407-1.067,0.944-1.166,1.621
	c-0.172,1.099,0.839,2.063,1.898,2.409c1.059,0.351,2.208,0.31,3.272,0.611c1.189,0.342,2.208,1.091,3.316,1.645
	c1.105,0.554,2.436,0.911,3.566,0.415c-3.232,1.521-6.989,1.881-10.452,1.001c-0.692-0.178-1.396-0.407-2.104-0.366
	c-0.717,0.041-1.475,0.424-1.695,1.106c-0.282,0.864,0.271,2.069-0.485,2.582c-0.229,0.155-0.521,0.179-0.798,0.194
	c-0.864,0.064-1.723,0.123-2.575,0.188c-0.449,0.025-0.913,0.059-1.329-0.113c-0.769-0.31-1.124-1.229-1.075-2.06
	c0.041-0.824,0.407-1.597,0.701-2.371c0.57-1.497,0.912-3.094,1.01-4.698c0.025-0.374,0.032-0.772-0.139-1.115
	c-0.188-0.375-0.545-0.619-0.891-0.847c-0.813-0.555-1.638-1.14-2.401-1.775c1.692-7.905,3.525-15.803,1.81-23.596l2.724-3.598
	c3.373,3.501,9.084,4.495,13.44,2.336c1.777-0.879,3.333-2.215,5.227-2.801c3.129-0.969,6.542,0.285,9.768-0.261
	c2.119-0.35,4.025-1.457,5.883-2.531l2.59-1.515C209.769,121.557,207.855,124.546,205.72,126.638"/>
<linearGradient id="SVGID_11_" gradientUnits="userSpaceOnUse" x1="-63.4631" y1="-29.8301" x2="-44.9299" y2="-29.8301" gradientTransform="matrix(1 0 0 -1 237.2095 79.1113)">
	<stop  offset="0" style="stop-color:#FFA1A1"/>
	<stop  offset="0.0051" style="stop-color:#FFA1A1"/>
	<stop  offset="1" style="stop-color:#FFD9D9"/>
</linearGradient>
<path fill="url(#SVGID_11_)" d="M186.51,101.531c0.543,0,3.53,5.428,5.433,8.956c1.9,3.528-4.753,5.156-7.062,5.429
	c-2.311,0.271-9.37,2.442-11.135-6.243"/>
<linearGradient id="SVGID_12_" gradientUnits="userSpaceOnUse" x1="-61.8342" y1="-21.1318" x2="-50.0588" y2="-21.1318" gradientTransform="matrix(1 0 0 -1 237.2095 79.1113)">
	<stop  offset="0" style="stop-color:#FFA1A1"/>
	<stop  offset="0.0051" style="stop-color:#FFA1A1"/>
	<stop  offset="1" style="stop-color:#FFD9D9"/>
</linearGradient>
<path fill="url(#SVGID_12_)" d="M175.375,107.198c2.063,0.954,4.64,0.966,6.813,0.867c1.903-0.088,3.567-0.675,4.939-1.674
	c0.214-4.89-1.049-9.845-3.629-14.01l-6.431,0.87c0.771,4.528,0.234,9.269-1.528,13.509
	C175.481,106.903,175.425,107.049,175.375,107.198"/>
<linearGradient id="SVGID_13_" gradientUnits="userSpaceOnUse" x1="-60.1389" y1="-19.8491" x2="-50.0569" y2="-19.8491" gradientTransform="matrix(1 0 0 -1 237.2095 79.1113)">
	<stop  offset="0" style="stop-color:#FFA1A1"/>
	<stop  offset="0.0051" style="stop-color:#FFA1A1"/>
	<stop  offset="1" style="stop-color:#FFD9D9"/>
</linearGradient>
<path fill="url(#SVGID_13_)" d="M177.25,100.167c2,1.905,4.337,3.423,6.943,4.436c0.969,0.375,1.957,0.674,2.958,0.936
	c0.04-4.611-1.225-9.234-3.652-13.157l-6.429,0.87C177.461,95.533,177.516,97.868,177.25,100.167"/>
<linearGradient id="SVGID_14_" gradientUnits="userSpaceOnUse" x1="-75.8738" y1="-6.8701" x2="-49.4954" y2="-6.8701" gradientTransform="matrix(1 0 0 -1 237.2095 79.1113)">
	<stop  offset="0" style="stop-color:#FFA1A1"/>
	<stop  offset="0.0051" style="stop-color:#FFA1A1"/>
	<stop  offset="1" style="stop-color:#FFD9D9"/>
</linearGradient>
<path fill="url(#SVGID_14_)" d="M163.417,83.68c1.453,3.68,3.133,7.333,5.667,10.374c2.534,3.04,6.025,5.441,9.952,5.965
	c1.082,0.145,2.207,0.142,3.229-0.226c2.302-0.824,3.596-3.243,4.4-5.551c0.843-2.424,1.384-5.053,0.81-7.556
	c-0.37-1.617-1.188-3.093-1.995-4.545c-2.336-4.195-5.15-8.779-9.804-9.99c-3.864-1.006-7.96,0.688-11.168,3.066
	c-0.892,0.662-1.758,1.398-2.34,2.343c-1.09,1.772-1.021,4.067-0.312,6.023c0.708,1.956,1.979,3.647,3.234,5.308"/>
<path fill="#25CCF7" d="M185.551,81.577c0,0-1.719,1.322-3.704-0.925c-1.983-2.248-4.498-5.024-4.498-5.024s1.587,0.398-3.042,3.173
	c-4.63,2.776-8.334,5.288-7.938,10.047c0.396,4.757-17.196,9.12-17.196,9.12l6.746-20.225l13.758-7.402l7.143-2.511l3.176,0.131
	L185.551,81.577z"/>
<path fill="#0099CC" d="M182.334,144.702c-5.611-8.396-8.032-18.866-6.673-28.871c0.572-4.224,1.771-8.622,0.892-12.7
	c-0.276-0.65-0.53-1.309-0.854-1.934c-1.902-0.523-3.72-1.408-5.313-2.567c-3.109-2.26-5.438-5.48-7.041-8.973
	c-0.639-1.394-1.176-2.848-2.015-4.133c-1.825-2.798-4.861-4.514-7.455-6.617c-3.583-2.906-6.437-6.704-8.228-10.954
	c-2.042,2.156-4.799,3.626-7.729,4.122c0.599,3.016,2.799,5.417,4.835,7.721c2.309,2.617,4.552,5.378,5.854,8.614
	c1.375,3.417,1.646,7.219,3.201,10.558c1.787,3.839,5.112,6.735,7.368,10.32c2.779,4.415,3.836,9.835,3.161,15.006
	c-0.674,5.171-3.041,10.072-6.488,13.985c2.73,1.424,5.479,2.86,7.898,4.766c1.58,1.246,3.033,2.699,4.844,3.577
	c2.224,1.078,4.781,1.19,7.251,1.153c1.881-0.029,3.764-0.134,5.636-0.315c0.442-0.043,0.923-0.11,1.229-0.434
	C183.291,146.405,182.808,145.411,182.334,144.702"/>
<path fill="#2E353A" d="M230.781,189.384c0.019,0.298,0.056,0.599,0.238,0.832c0.451,0.582,1.199,0.255,1.834-0.259
	c0.271-0.146,0.582-0.32,0.936-0.525c3.277-1.896,10.075-6.129,15.938-6.474c0.31-0.017,0.583-0.056,0.828-0.092
	c3.287,0.817,6.543,2.224,6.543,2.224l-0.45,0.299c1.966,1.245,3.111,2.514,3.111,2.514s8.365-5.827,6.675-7.061
	c-1.688-1.238-3.739-4.63-4.931-7.281c-0.414-0.924-0.635-1.938-1.033-2.815c-0.274-0.613-0.642-1.146-1.215-1.537
	c-1.407-0.962-3.295-1.16-4.871-0.521c-0.787,0.328-1.467,0.823-2.164,1.308c-2.293,1.582-4.756,2.938-7.355,3.946
	c-2.535,0.974-5.229,1.613-7.566,2.988C233.052,179.45,230.428,184.464,230.781,189.384"/>
<path fill="#4D5A64" d="M230.781,189.384c0.019,0.298,0.056,0.599,0.238,0.832c0.451,0.582,1.199,0.255,1.834-0.259
	c0.271-0.146,0.582-0.32,0.936-0.525c0.065-5.061,3.249-8.695,6.958-10.545c4.071-2.041,10.319-3.316,12.23-5.229
	c1.719-1.719,4.677-2.816,7.492-2.916c-0.274-0.613-0.642-1.146-1.215-1.537c-1.407-0.962-3.295-1.16-4.871-0.52
	c-0.787,0.328-1.467,0.822-2.164,1.307c-2.293,1.582-4.756,2.941-7.355,3.949c-2.535,0.971-5.229,1.613-7.566,2.988
	C233.052,179.45,230.428,184.464,230.781,189.384"/>
<path fill="#2E353A" d="M266.768,172.982c-0.057,0.293-0.091,0.592,0.031,0.865c0.299,0.672,1.104,0.529,1.843,0.186
	c0.294-0.077,0.644-0.174,1.031-0.289c3.637-1.061,11.249-3.551,17.027-2.486c0.3,0.059,0.573,0.086,0.82,0.107
	c2.998,1.576,5.825,3.719,5.825,3.719l-0.509,0.182c1.612,1.678,2.423,3.185,2.423,3.185s9.514-3.667,8.167-5.267
	c-1.346-1.604-2.527-5.388-3.053-8.246c-0.184-0.998-0.152-2.037-0.329-2.982c-0.123-0.659-0.354-1.268-0.814-1.782
	c-1.137-1.271-2.924-1.913-4.604-1.664c-0.843,0.134-1.621,0.452-2.413,0.753c-2.605,0.99-5.32,1.727-8.085,2.086
	c-2.697,0.336-5.464,0.317-8.064,1.098C271.342,163.877,267.598,168.119,266.768,172.982"/>
<path fill="#4D5A64" d="M266.768,172.982c-0.057,0.293-0.091,0.592,0.031,0.865c0.299,0.672,1.104,0.529,1.843,0.186
	c0.294-0.077,0.644-0.174,1.031-0.289c1.271-4.896,5.229-7.67,9.271-8.583c4.445-1.011,10.816-0.761,13.132-2.159
	c2.076-1.262,5.216-1.624,7.973-1.05c-0.123-0.659-0.354-1.267-0.814-1.782c-1.137-1.27-2.924-1.913-4.604-1.664
	c-0.843,0.131-1.621,0.452-2.413,0.753c-2.605,0.99-5.32,1.724-8.085,2.084c-2.697,0.337-5.464,0.319-8.064,1.097
	C271.342,163.877,267.598,168.119,266.768,172.982"/>
<path fill="#2E353A" d="M330.327,138.713c6.873,15.602,10.48,32.628,10.533,49.674c0.018,5.004-0.278,10.063-1.696,14.859
	c-0.541,1.828-1.278,3.665-2.638,5.005c-1.47,1.453-3.5,2.164-5.459,2.829c-2.296,0.781-4.59,1.563-6.885,2.344
	c-0.495,0.169-1.035,0.337-1.527,0.162c-0.336-0.12-0.598-0.384-0.845-0.641c-6.332-6.563-12.221-13.547-17.613-20.896
	c-0.59-0.808-1.188-1.648-1.396-2.628c-0.212-0.996,0.004-2.028,0.214-3.026c1.921-9.139,3.326-18.481,6.971-27.082
	c3.648-8.6,9.955-16.57,18.734-19.774"/>
<path fill="#32416D" d="M321.023,179.139c0.191,0.572,2.104,12.228,2.104,12.228s-0.957-7.644-5.926-8.216"/>
<path fill="#4D5A64" d="M326.496,159.053c-1.287,21.357-11.733,42.01-28.183,55.706c-2.206,1.839-4.982,3.655-7.746,2.869
	c-3.693-1.054-4.624-5.808-4.641-9.647c-0.07-16.722,4.261-33.322,11.573-48.364c1.752-3.603,4.033-7.434,7.854-8.637
	c3.675-1.158,7.59,0.487,11.064,2.153c3.654,1.751,7.278,3.568,10.872,5.443"/>
<path fill="#4D5A64" d="M287.865,195.75c-5.732-5.688-11.47-11.375-17.202-17.061c-0.437-0.431-0.896-0.875-1.484-1.028
	c-0.661-0.172-1.35,0.053-1.995,0.276c-6.542,2.26-13.351,4.688-18.119,9.703c12.066,9.627,24.028,19.485,37.075,27.74
	c1.182,0.746,2.901,2.402,5.227,2.469c2.326,0.063,5.576-3.151,5.576-3.151L287.865,195.75z"/>
<path fill="#475259" d="M286.584,194.208c-0.287,2.563,1.188,5.556,2.262,7.83c1.357,2.88,3.007,5.646,4.825,8.257
	c0.141,0.203,0.454,0.027,0.333-0.195c-1.412-2.597-2.989-5.098-4.274-7.763c-0.695-1.451-1.327-2.938-1.818-4.471
	c-0.397-1.228-0.582-2.546-1.147-3.704C286.717,194.066,286.594,194.126,286.584,194.208"/>
<path fill="#475259" d="M286.203,195.064c-1.414,3.271-2.064,7.271-1.697,10.813c0.031,0.296,0.425,0.295,0.458,0
	c0.407-3.609,0.922-7.09,1.611-10.656C286.616,195.014,286.301,194.841,286.203,195.064"/>
<path fill="#475259" d="M308.456,157.262c-1.823,3.604-2.922,7.453-4.033,11.318c-1.209,4.213-2.61,8.331-4.384,12.346
	c-1.636,3.698-3.556,7.271-5.727,10.682c-1.858,2.922-5.18,6.004-5.123,9.686c0.017,0.822,1.293,0.824,1.28,0
	c-0.039-2.167,1.347-3.814,2.537-5.497c1.168-1.647,2.274-3.343,3.316-5.073c1.929-3.205,3.63-6.546,5.095-9.984
	c3.192-7.51,4.383-15.664,7.575-23.155C309.147,157.218,308.641,156.896,308.456,157.262"/>
<path fill="#424F87" d="M290.134,200.641c-1.044-0.359-2.138-0.354-3.181,0.016c-0.697,0.244-1.92,0.716-1.896,1.593
	c0.002,0.126,0.098,0.211,0.218,0.22c0.664,0.053,1.255-0.623,1.856-0.859c0.893-0.354,1.869-0.416,2.813-0.276
	C290.391,201.393,290.577,200.792,290.134,200.641"/>
<path fill="#424F87" d="M266.31,183.541c-0.063-0.732-0.374-1.402-0.814-1.984c-0.402-0.525-0.992-1.188-1.662-1.344
	c-0.347-0.08-0.63,0.35-0.355,0.611c0.45,0.434,1.023,0.688,1.454,1.166c0.442,0.488,0.742,1.063,1.042,1.643
	C266.052,183.788,266.325,183.723,266.31,183.541"/>
<path fill="#2CDDD4" d="M322.181,86.5c10.173,18.846,15.716,39.778,21.169,60.485c0.162,0.617,0.325,1.263,0.172,1.882
	c-0.185,0.745-0.791,1.301-1.367,1.81c-4.111,3.631-8.368,7.347-13.559,9.136c-12.245,4.229-25.691-3.319-38.493-1.334
	c2.493-8.5,4.902-18.026,0.783-25.871c-1.459-2.779-3.697-5.21-4.438-8.26c-0.461-1.897-0.304-3.897-0.701-5.807
	c-1.208-5.753-7.238-9.861-7.533-15.733c-0.22-4.375,3.075-8.374,7.104-10.096c4.032-1.721,8.625-1.55,12.943-0.786
	c4.745,0.84,10.081,2.243,14.039-0.505c2.534-1.758,4.188-5.076,7.247-5.509"/>
<linearGradient id="SVGID_15_" gradientUnits="userSpaceOnUse" x1="82.3728" y1="11.8965" x2="104.9783" y2="11.8965" gradientTransform="matrix(1 0 0 -1 237.2095 79.1113)">
	<stop  offset="0" style="stop-color:#FFA1A1"/>
	<stop  offset="0.0051" style="stop-color:#FFA1A1"/>
	<stop  offset="1" style="stop-color:#FFD9D9"/>
</linearGradient>
<path fill="url(#SVGID_15_)" d="M331.682,92.885c-0.164,0.003-0.096,0.316,0.067,0.318c0.162,0.001,0.272-0.163,0.354-0.308
	c3.378-5.929,6.235-12.2,8.186-18.787c0.476-1.607,0.896-3.237,1.126-4.903c0.226-1.645,0.26-3.31,0.295-4.97
	c0.159-7.586,0.315-15.173,0.478-22.76c-1.871-0.298-3.778-0.329-5.66-0.088c-0.679,5.393-1.355,10.786-2.034,16.178
	c-0.206,1.628-0.415,3.274-0.994,4.801c-0.503,1.329-1.272,2.529-2.035,3.717c-3.96,6.168-7.922,12.337-11.882,18.506"/>
<linearGradient id="SVGID_16_" gradientUnits="userSpaceOnUse" x1="-22.5525" y1="-5.1113" x2="36.9695" y2="-5.1113" gradientTransform="matrix(1 0 0 -1 237.2095 79.1113)">
	<stop  offset="0" style="stop-color:#FFA1A1"/>
	<stop  offset="0.0051" style="stop-color:#FFA1A1"/>
	<stop  offset="1" style="stop-color:#FFD9D9"/>
</linearGradient>
<path fill="url(#SVGID_16_)" d="M267.491,87.768c-5.621-2.837-11.597-4.978-17.739-6.354c-1.59-0.357-3.197-0.665-4.73-1.209
	c-2.82-1.003-5.297-2.773-7.783-4.445c-4.833-3.248-9.861-6.2-15.056-8.837c-2.161-1.097-5-2.065-6.8-0.442
	c-0.521,0.467-0.879,1.201-0.661,1.864c0.097,0.298,0.299,0.548,0.499,0.789c8.522,10.206,21.93,14.616,33.243,21.604
	c2.362,1.458,4.644,3.041,7.021,4.473c5.787,3.485,12.118,6.065,18.694,7.616"/>
<linearGradient id="SVGID_17_" gradientUnits="userSpaceOnUse" x1="94.5408" y1="45.9907" x2="107.5125" y2="45.9907" gradientTransform="matrix(1 0 0 -1 237.2095 79.1113)">
	<stop  offset="0" style="stop-color:#FFA1A1"/>
	<stop  offset="0.0051" style="stop-color:#FFA1A1"/>
	<stop  offset="1" style="stop-color:#FFD9D9"/>
</linearGradient>
<path fill="url(#SVGID_17_)" d="M340.098,46.302c2.126-1.603,3.697-3.929,4.386-6.5c0.184-0.675,0.306-1.381,0.198-2.072
	c-0.144-0.958-0.705-1.792-1.096-2.679c-0.755-1.708-0.875-3.687-0.333-5.473c0.37-1.223,1.045-2.41,0.938-3.683
	c-1.831,0.322-3.365,1.901-3.639,3.74c-1.683-2.229,0.776-5.44,0.095-8.148c-0.812-0.029-1.256,0.918-1.464,1.704
	c-0.586,2.223-1.006,4.489-1.255,6.774c-0.716-2.681-0.874-5.509-0.462-8.251c0.114-0.756-0.074-1.892-0.829-1.765
	c-0.382,0.064-0.599,0.466-0.738,0.826c-1.025,2.654-1.018,5.579-0.993,8.423c-0.549-2.524-1.334-4.998-2.343-7.377
	c-0.926,1.733-0.9,3.807-0.701,5.76c0.691,6.671,3.251,13.139,7.313,18.478"/>
<path fill="#2CDDD4" d="M312.744,89.629l5.196,25.121c2.209-0.183,4.054-1.696,5.684-3.193c2.564-2.375,4.999-4.897,7.27-7.548
	c1.623-1.873,3.167-3.821,4.618-5.823c0.749-1.031,1.475-2.077,2.188-3.14c0.268-0.405,0.551-0.864,0.486-1.345
	c-0.038-0.351-0.243-0.649-0.44-0.932c-4.067-5.768-8.127-11.53-12.195-17.297c-0.206-0.291-0.438-0.604-0.787-0.696
	c-0.581-0.145-1.086,0.382-1.444,0.863C319.792,80.3,316.268,84.969,312.744,89.629"/>
<path fill="#2CDDD4" d="M257.396,96.957c3.557,6.441,9.358,11.453,15.833,14.96c6.479,3.499,13.625,5.584,20.813,7.167
	l23.632-11.292l5.551-8.879l-2.01-8.113c0,0-5.16-3.156-7.073-2.675c-0.549,0.138-1.757,0.589-3.234,1.154
	c-3.646,1.398-8.938,3.477-9.952,3.14c-1.291-0.427-5.638-1.016-8.814-1.345c-0.345-0.038-0.673-0.068-0.979-0.098
	c-6.667-0.627-13.479-0.36-19.71-2.819c-2.691-1.07-5.47-2.438-8.345-2.071c1.11,2.025,2.22,4.05,3.327,6.067
	c0.42,0.771,0.848,1.68,0.48,2.475c-0.329,0.711-1.161,1.009-1.918,1.207C262.518,96.498,259.965,96.873,257.396,96.957"/>
<linearGradient id="SVGID_18_" gradientUnits="userSpaceOnUse" x1="52.7854" y1="-16.3521" x2="75.907" y2="-16.3521" gradientTransform="matrix(1 0 0 -1 237.2095 79.1113)">
	<stop  offset="0" style="stop-color:#FFA1A1"/>
	<stop  offset="0.0051" style="stop-color:#FFA1A1"/>
	<stop  offset="1" style="stop-color:#FFD9D9"/>
</linearGradient>
<path fill="url(#SVGID_18_)" d="M290.685,96.812c0.796,0.894,2.072,1.176,3.269,1.291c2.134,0.206,4.354,0.061,6.329,0.901
	c1.275,0.542,2.361,1.46,3.633,2.018c2.275,1,4.962,0.718,7.256-0.244c0.466-0.192,0.938-0.429,1.292-0.795
	c0.748-0.788,0.795-2.049,0.436-3.08c-0.357-1.032-1.048-1.903-1.644-2.819c-0.598-0.917-1.124-1.94-1.103-3.026
	c0.019-0.656,0.3-1.321,0.759-1.78c-3.647,1.397-8.938,3.476-9.955,3.14c-1.293-0.427-5.639-1.016-8.816-1.344
	c0,0.038-0.007,0.069-0.016,0.106c-0.198,0.91-1.124,1.436-1.659,2.208C289.76,94.404,289.86,95.895,290.685,96.812"/>
<path fill="#B57C7C" d="M298.468,91.853l4.492,8.404c0,0,6.117-3.724,6.499-7.449C309.841,89.084,298.468,91.853,298.468,91.853"/>
<linearGradient id="SVGID_19_" gradientUnits="userSpaceOnUse" x1="56.4958" y1="-0.0688" x2="78.6111" y2="-0.0688" gradientTransform="matrix(1 0 0 -1 237.2095 79.1113)">
	<stop  offset="0" style="stop-color:#FFA1A1"/>
	<stop  offset="0.0051" style="stop-color:#FFA1A1"/>
	<stop  offset="1" style="stop-color:#FFD9D9"/>
</linearGradient>
<path fill="url(#SVGID_19_)" d="M314.799,68.828c1.279,5.237,1.358,10.763,0.229,16.034c-0.688,3.215-2.021,6.591-4.865,8.243
	c-1.524,0.885-3.332,1.172-5.098,1.168c-2.778-0.007-5.688-0.784-7.635-2.77c-1.37-1.4-2.146-3.276-2.652-5.168
	c-0.898-3.378-1.021-6.913-1.067-10.41c-0.051-3.557,0.174-7.595,2.884-9.903c1.954-1.664,4.712-1.958,7.28-1.933
	c2.524,0.024,5.128,0.311,7.354,1.506c2.229,1.196,4.02,3.466,4.028,5.993"/>
<path fill="#25CCF7" d="M312.03,70.149c-2.597,3.424-7.036,5.359-11.315,4.932c-0.258-0.025-0.529-0.064-0.735-0.222
	c-0.596-0.458-0.186-1.442,0.408-1.902c0.595-0.461,1.38-0.795,1.624-1.506c-4.579,1.467-9.573,1.621-14.232,0.435
	c-1.853-0.471-3.738-1.209-4.958-2.683c-0.45-0.547-0.777-1.402-0.298-1.922c0.284-0.305,0.738-0.362,1.152-0.401
	c1.112-0.105,2.224-0.208,3.336-0.313c-3.708-1.106-5.856-5.786-4.278-9.316c1.828,1.404,3.899,2.494,6.096,3.207
	c-0.698-1.028-0.91-2.605,0.055-3.388c1.007-0.815,2.518-0.228,3.572,0.526c1.054,0.753,2.177,1.703,3.462,1.528
	c-0.281-0.676-0.563-1.354-0.844-2.028c-0.068-0.168-0.143-0.348-0.113-0.529c0.103-0.699,1.172-0.446,1.759-0.051
	c2.396,1.614,5.258,2.534,8.146,2.619c1.143,0.034,2.313-0.055,3.396,0.298c1.534,0.501,2.65,1.798,3.682,3.038
	c0.648,0.778,1.312,1.579,1.657,2.53c0.347,0.952,0.326,2.102-0.313,2.888"/>
<path fill="#25CCF7" d="M312.544,63.86c0.906-0.966,2.022-2.015,3.342-1.858c1.184,0.142,2.027,1.234,2.47,2.34
	c0.43,1.067,0.61,2.231,0.535,3.378c-0.045,0.671-0.176,1.351-0.048,2.011c0.125,0.639,0.482,1.203,0.75,1.797
	c0.896,1.996,0.75,4.336,0.064,6.414c-0.688,2.078-3.29,4.797-4.466,6.645c0.099-4.298-0.251-7.618-1.085-11.002
	c-0.317-1.307-0.896-2.861-2.226-3.073"/>
<path fill="#25CCF7" d="M289.483,68.288c-1.089,2.385-1.613,5.021-1.526,7.64c0.025,0.851,0.125,1.717,0.479,2.491
	c0.586,1.263,1.832,2.188,2.188,3.536c0.14,0.53,0.127,1.086,0.188,1.631c0.216,1.863,4.313,3.962,4.313,3.962
	s-2.771-11.078,0.336-19.256"/>
<linearGradient id="SVGID_20_" gradientUnits="userSpaceOnUse" x1="-18.4827" y1="16.4858" x2="-14.0569" y2="16.4858" gradientTransform="matrix(1 0 0 -1 237.2095 79.1113)">
	<stop  offset="0" style="stop-color:#FFA1A1"/>
	<stop  offset="0.0051" style="stop-color:#FFA1A1"/>
	<stop  offset="1" style="stop-color:#FFD9D9"/>
</linearGradient>
<path fill="url(#SVGID_20_)" d="M218.757,65.725c0.136-1.818,0.86-3.41,0.672-4.932c0.108-1.419,0.239-2.854,0.752-4.181
	c0.536-1.387,1.563-2.663,2.972-3.138c-2.139,5.203,1.076,11.515-1.24,16.638l-1.918,1.665
	C219.135,69.911,218.589,67.983,218.757,65.725"/>
<linearGradient id="SVGID_21_" gradientUnits="userSpaceOnUse" x1="-34.3909" y1="16.2969" x2="-14.3425" y2="16.2969" gradientTransform="matrix(1 0 0 -1 237.2095 79.1113)">
	<stop  offset="0" style="stop-color:#FFA1A1"/>
	<stop  offset="0.0051" style="stop-color:#FFA1A1"/>
	<stop  offset="1" style="stop-color:#FFD9D9"/>
</linearGradient>
<path fill="url(#SVGID_21_)" d="M220.656,61.33c0,0-11.666-9.856-12.886-8.452c-0.155,0.143,1.266,1.484,1.396,1.628
	c2.037,2.233,6.659,6.024,6.109,6.7c-0.546,0.676-10.609-7.25-11.502-6.389c-0.145,0.414,0.191,0.828,0.5,1.139
	c2.688,2.693,8.386,7.691,8.057,8.079c-0.328,0.388-8.807-5.398-9.512-4.133c0.032,0.237,0.229,0.412,0.415,0.565
	c2.398,1.982,7.338,5.602,7.194,5.946c-0.144,0.344-4.79-1.685-5.142-1.165c-0.354,0.52,9.403,6.546,13.277,7.618
	c1.271,0.352,4.562-3.603,4.287-5.048C222.582,66.373,220.656,61.33,220.656,61.33"/>
<path fill="#383F44" d="M321.634,186.008c-0.361,3.59,2.324,8.04,5.028,10.227c0.342,0.275,0.943-0.08,0.657-0.508
	c-1.043-1.563-2.108-3.056-2.942-4.752c-0.823-1.672-1.186-3.514-2.016-5.166C322.173,185.43,321.669,185.657,321.634,186.008"/>
<path fill="#383F44" d="M321.539,185.945c-0.752,2.914-0.684,6.789-0.248,9.756c0.068,0.492,0.923,0.492,0.995,0
	c0.432-2.967,0.503-6.842-0.25-9.756C321.973,185.701,321.603,185.701,321.539,185.945"/>
<path fill="#21A69F" d="M334.072,149.765c-5.757,1.324-11.813,1.33-17.57,0.019c-2.281-0.518-4.646-1.323-6.139-3.123
	c3.01-1.332,5.765-3.235,8.071-5.577c0.374-0.377,0.763-0.891,0.575-1.387c-0.143-0.375-0.556-0.557-0.933-0.697
	c-4.837-1.773-10.077-2.441-14.688-4.74c-4.975-2.482-8.846-6.672-12.598-10.772c1.835,3.444,3.671,6.891,5.508,10.337
	c1.101,2.066,2.235,4.404,1.59,6.655c-0.396,1.384-1.452,2.628-1.337,4.066c0.171,2.132,2.87,3.712,2.364,5.792
	c-0.295,1.222-1.59,2.658-0.604,3.435c0.347,0.269,0.818,0.261,1.253,0.272c2.789,0.063,5.396,1.314,8.108,1.969
	c7.625,1.842,15.507-1.076,22.809-3.945c1.417-0.557,2.893-1.151,3.909-2.285"/>
<path fill="#21A69F" d="M327.309,95.986c0,0.726,0.328,1.414,0.658,2.071c0.971,1.987,1.95,3.965,2.927,5.952
	c1.623-1.872,3.166-3.82,4.619-5.821c-1.873-4.234-4.244-8.252-7.043-11.943c0.536,2.551,0.321,5.257-0.603,7.694
	C327.613,94.604,327.309,95.269,327.309,95.986"/>
<path fill="#B57C7C" d="M302.048,88.928c0.112-0.142,1.353,0.778,2.931,0.669c1.579-0.104,2.313-1.156,2.492-1.035
	c0.089,0.045,0.046,0.391-0.306,0.803c-0.345,0.406-1.044,0.849-2.013,0.915c-0.966,0.063-1.866-0.271-2.402-0.618
	C302.201,89.312,301.987,88.983,302.048,88.928"/>
<path fill="#B57C7C" d="M179.591,96.458c0.002-0.155,1.334-0.167,2.365-1.064c1.028-0.892,0.984-1.996,1.174-2.007
	c0.085-0.015,0.236,0.245,0.208,0.712c-0.024,0.458-0.277,1.127-0.907,1.674c-0.631,0.547-1.426,0.786-1.977,0.826
	C179.896,96.643,179.576,96.529,179.591,96.458"/>
<ellipse fill="#FFFFFF" cx="103.619" cy="126.908" rx="8.103" ry="8.103"/>
<path fill="#83E8F2" d="M123.632,246.971c-3.396-1.879-7.389-2.123-11.157-1.455c-2.021,0.358-4.134,1.01-5.511,2.643
	c-1.379,1.632-1.639,4.504-0.056,5.904c0.938,0.832,2.253,0.959,3.474,0.944c2.949-0.036,6.222-0.596,8.579,1.312
	c1.344,1.086,2.238,2.894,3.846,3.429c1.572,0.521,3.346-0.478,4.181-1.996c0.833-1.521,0.86-3.427,0.475-5.146
	C127.46,252.604,127.05,248.861,123.632,246.971"/>
<path fill="#83E8F2" d="M131.407,230.866c-2.075,3.179-6.106,2.126-7.979,0.184c-1.871-1.94-2.659-4.755-3.379-7.437
	c-1.646-6.131-3.302-12.563-2.08-18.805c0.365-1.867,1.016-3.729,2.238-5.111c1.222-1.385,3.101-2.211,4.817-1.721
	c2.032,0.572,3.297,2.711,4.21,4.746c2.688,5.977,4.106,12.601,4.128,19.233C133.376,225.059,133.038,228.307,131.407,230.866"/>
<path fill="#83E8F2" d="M137.106,235.43c-2.252-2.871-2.68-7.058-1.679-10.65c1.003-3.596,3.268-6.651,5.878-9.146
	c3.063-2.928,6.659-5.205,10.525-6.666c1.521-0.57,3.127-1.023,4.731-0.859c1.606,0.164,3.227,1.047,3.976,2.578
	c1.105,2.27,0.045,5.019-1.104,7.262c-2.021,3.951-4.337,7.73-6.914,11.298c-2.068,2.864-4.442,5.692-7.604,6.989
	c-3.158,1.295-6.438,1.142-8.113-1.209"/>
<path fill="#75C6BC" d="M131.547,278.84c-0.038,0.002-0.104-0.514-0.188-1.443c-0.095-1.051-0.216-2.373-0.354-3.942
	c-0.172-1.659-0.398-3.638-0.826-5.785c-0.428-2.146-1.1-4.47-1.96-6.826c-0.891-2.345-1.979-4.477-3.249-6.18
	c-1.261-1.712-2.729-2.949-4.107-3.663c-1.375-0.729-2.604-1.023-3.459-1.157c-0.857-0.095-1.341-0.167-1.341-0.208
	c0-0.039,0.481-0.048,1.364-0.021c0.875,0.063,2.159,0.299,3.604,1.007c1.454,0.689,3.012,1.947,4.333,3.693
	c1.334,1.74,2.464,3.918,3.369,6.306c0.876,2.397,1.535,4.746,1.945,6.938c0.407,2.188,0.594,4.186,0.717,5.855
	c0.116,1.675,0.16,3.032,0.184,3.969C131.596,278.316,131.586,278.837,131.547,278.84"/>
<path fill="#75C6BC" d="M131.294,275.805c-0.021,0-0.03-0.229-0.036-0.67c0-0.504,0.003-1.139,0.006-1.917
	c0.003-1.665,0.002-4.071-0.08-7.048c-0.138-5.945-0.615-12.348-1.535-21.373c-0.873-8.484-2.045-18.359-3.279-24.781
	c-0.268-1.459-0.534-2.771-0.783-3.924c-0.239-1.152-0.445-2.148-0.645-2.953c-0.171-0.757-0.308-1.375-0.417-1.863
	c-0.09-0.428-0.129-0.653-0.105-0.662c0.017-0.004,0.091,0.214,0.215,0.633c0.136,0.479,0.309,1.09,0.519,1.837
	c0.23,0.797,0.468,1.784,0.735,2.937c0.281,1.146,0.576,2.455,0.866,3.914c1.223,5.815,2.518,13.947,3.449,22.992
	c0.924,9.043,1.339,17.278,1.376,23.241c0.03,2.979-0.026,5.396-0.1,7.062c-0.044,0.776-0.08,1.412-0.106,1.916
	C131.339,275.578,131.314,275.807,131.294,275.805"/>
<path fill="#75C6BC" d="M131.257,259.924c-0.039-0.001-0.031-0.713,0.014-2.003c0.068-1.287,0.233-3.149,0.571-5.428
	c0.358-2.272,0.86-4.972,1.645-7.906c0.343-1.341,1.145-4.554,3.081-9.356c2.56-6.506,6.029-11.821,9.052-15.119
	c0.708-0.871,1.498-1.506,2.129-2.121c0.326-0.297,0.612-0.594,0.907-0.826c0.298-0.221,0.571-0.421,0.824-0.611
	c0.995-0.729,1.555-1.111,1.573-1.076c0.09,0.131-2.227,1.594-5.151,4.93c-2.913,3.334-6.289,8.615-8.82,15.066
	c-1.414,3.498-2.399,6.618-3.101,9.271c-0.809,2.903-1.346,5.577-1.751,7.827c-0.385,2.258-0.605,4.099-0.743,5.373
	C131.375,259.218,131.297,259.926,131.257,259.924"/>
<path fill="#83E8F2" d="M317.212,244.559c1.813,2.766,5.348,1.851,6.987,0.162c1.639-1.688,2.327-4.132,2.959-6.461
	c1.438-5.322,2.893-10.908,1.819-16.33c-0.317-1.621-0.891-3.236-1.962-4.438c-1.07-1.204-2.716-1.922-4.221-1.495
	c-1.78,0.5-2.888,2.354-3.688,4.122c-2.352,5.188-3.596,10.941-3.612,16.706C315.487,239.514,315.784,242.337,317.212,244.559"/>
<path fill="#83E8F2" d="M312.22,248.521c1.974-2.492,2.348-6.127,1.47-9.25s-2.859-5.776-5.146-7.944
	c-2.683-2.542-5.833-4.521-9.222-5.789c-1.334-0.497-2.735-0.894-4.146-0.75s-2.824,0.909-3.48,2.239
	c-0.97,1.971-0.04,4.354,0.968,6.309c1.771,3.432,3.8,6.715,6.057,9.811c1.815,2.487,3.895,4.946,6.66,6.071
	c2.766,1.124,5.639,0.989,7.104-1.051"/>
<path fill="#75C6BC" d="M317.31,283.588c0.02-0.001,0.027-0.197,0.032-0.581c-0.001-0.438-0.003-0.989-0.005-1.666
	c-0.004-1.444-0.003-3.534,0.071-6.118c0.116-5.166,0.535-10.728,1.343-18.563c0.765-7.371,1.791-15.945,2.874-21.523
	c0.23-1.269,0.467-2.408,0.687-3.406c0.209-1.002,0.392-1.864,0.563-2.563c0.146-0.657,0.271-1.19,0.366-1.617
	c0.077-0.372,0.11-0.569,0.096-0.575c-0.019-0.004-0.081,0.186-0.189,0.547c-0.12,0.42-0.271,0.945-0.455,1.596
	c-0.199,0.691-0.405,1.551-0.644,2.549c-0.246,0.996-0.504,2.132-0.759,3.4c-1.07,5.052-2.205,12.115-3.021,19.972
	c-0.809,7.853-1.174,15.008-1.207,20.187c-0.025,2.59,0.023,4.687,0.085,6.129c0.038,0.681,0.071,1.229,0.098,1.666
	C317.271,283.393,317.293,283.591,317.31,283.588"/>
<path fill="#75C6BC" d="M317.342,269.797c0.034,0,0.028-0.62-0.012-1.74c-0.063-1.117-0.204-2.732-0.5-4.714
	c-0.313-1.973-0.752-4.317-1.441-6.864c-0.298-1.166-0.999-3.955-2.698-8.129c-2.236-5.647-5.278-10.27-7.925-13.132
	c-0.621-0.759-1.313-1.307-1.865-1.843c-0.284-0.259-0.54-0.514-0.797-0.718c-0.259-0.19-0.501-0.365-0.723-0.532
	c-0.872-0.633-1.359-0.967-1.377-0.938c-0.078,0.111,1.95,1.385,4.512,4.285c2.551,2.893,5.508,7.479,7.729,13.082
	c1.235,3.037,2.103,5.75,2.713,8.051c0.708,2.521,1.178,4.846,1.533,6.802c0.337,1.958,0.53,3.558,0.648,4.667
	C317.239,269.184,317.308,269.798,317.342,269.797"/>
</svg>
