<?xml version="1.0" encoding="utf-8"?>
<!-- Generator: Adobe Illustrator 15.0.0, SVG Export Plug-In . SVG Version: 6.00 Build 0)  -->
<!DOCTYPE svg PUBLIC "-//W3C//DTD SVG 1.1//EN" "http://www.w3.org/Graphics/SVG/1.1/DTD/svg11.dtd">
<svg version="1.1" id="Capa_1" xmlns="http://www.w3.org/2000/svg" xmlns:xlink="http://www.w3.org/1999/xlink" x="0px" y="0px"
	 width="442px" height="310px" viewBox="0 0 442 310" enable-background="new 0 0 442 310" xml:space="preserve">
<path fill="#FFFFFF" d="M97.845,286.841c0,0-112.96-149.905-17.041-127.008c92.05,21.974,22.521-22.116,36.953-80.544
	c9.404-38.066,112.375-103.709,202.019-19.033c42.671,40.306-52.083,58.16,45.001,129.619
	c49.485,36.424-29.312,96.966-29.312,96.966H97.845z"/>
<path fill="#C8EAFB" d="M161.335,276.396c0,0,1.353-216.318,92.557-254.58c91.205-38.258,169.951,49.876,62.439,94.173
	c-107.513,44.297,37.253,160.402,37.253,160.402H161.335V276.396z"/>
<path fill="#83E8F2" d="M37.068,277.934c0,11.748,84.652,21.271,189.075,21.271s189.075-9.523,189.075-21.271
	s-84.652-21.271-189.075-21.271S37.068,266.186,37.068,277.934"/>
<g opacity="0.1">
	<g>
		<g>
			<g>
				<g>
					<defs>
						<rect id="SVGID_1_" x="105.194" y="270.045" width="240.527" height="20.877"/>
					</defs>
					<clipPath id="SVGID_2_">
						<use xlink:href="#SVGID_1_"  overflow="visible"/>
					</clipPath>
					<path clip-path="url(#SVGID_2_)" fill="#001627" d="M345.721,280.482c0,5.766-53.844,10.438-120.264,10.438
						c-66.419,0-120.266-4.673-120.266-10.438c0-5.767,53.847-10.438,120.266-10.438
						C291.877,270.045,345.721,274.718,345.721,280.482"/>
				</g>
			</g>
		</g>
	</g>
</g>
<g opacity="0.1">
	<g>
		<g>
			<g>
				<g>
					<defs>
						<rect id="SVGID_3_" x="61.299" y="271.205" width="28.549" height="6.423"/>
					</defs>
					<clipPath id="SVGID_4_">
						<use xlink:href="#SVGID_3_"  overflow="visible"/>
					</clipPath>
					<path clip-path="url(#SVGID_4_)" fill="#001627" d="M89.849,274.416c0,1.773-6.391,3.213-14.272,3.213
						c-7.885,0-14.275-1.438-14.275-3.213c0-1.773,6.391-3.212,14.274-3.212C83.457,271.204,89.849,272.643,89.849,274.416"/>
				</g>
			</g>
		</g>
	</g>
</g>
<path fill="#83E8F2" d="M79.421,215.975c0,0-1.951-18.92,7.004-30.457c8.954-11.535,27.971-20.729,34.577-9.063
	c6.604,11.666-3.587,16.037-14.371,15.082c-10.783-0.956-18.207,4.854-20.328,14.104C84.182,214.881,79.421,215.975,79.421,215.975"
	/>
<path fill="#83E8F2" d="M76.524,194.698c0,0-5.06-8.274-3.059-23.947c2-15.673,15.424-59.657,33.801-57.285
	c18.377,2.373,10.41,21.357-4.179,37.257C91.845,162.975,90.109,188.779,76.524,194.698"/>
<path fill="#83E8F2" d="M66.77,162.039c0,0-10.581-19.737-11.827-40.309s1.669-43.272,18.309-38.648
	c16.636,4.623,5.763,24.319,3.577,41.344C74.64,141.451,75.789,160.421,66.77,162.039"/>
<path fill="#83E8F2" d="M65.134,179.3c0,0-13.431-4.817-21.097-20.71c-7.666-15.893-24.938,4.461-30.577-4.582
	c-5.646-9.044,2.563-20.444,20.061-22.936C53.194,128.271,66.916,155.596,65.134,179.3"/>
<path fill="#83E8F2" d="M66.735,223.445c0,0,5.135-13.225-4.039-26.838c-12.669-18.809-56.229-19.914-48.272-4.584
	c6.072,11.699,26.449,7.248,32.479,13.854C52.933,212.482,52.989,217.843,66.735,223.445"/>
<path fill="none" stroke="#75C6BC" stroke-miterlimit="10" d="M26.626,142.18c0,0,48.706-27.819,47.631,133.263
	c0,0-0.17-81.133-36.682-81.871"/>
<path fill="none" stroke="#75C6BC" stroke-miterlimit="10" d="M103.93,129.221c0,0-16.947,15.782-23.353,35.134
	c-6.407,19.351-7.153,111.283-7.153,111.283s2.646-31.926-4.086-85.611c-6.733-53.688-1.436-92.283-1.436-92.283"/>
<path fill="none" stroke="#75C6BC" stroke-miterlimit="10" d="M109.623,178.036c0,0-22.031-4.642-29.699,34.401
	c-7.667,39.043-4.63,62.402-4.63,62.402"/>
<path fill="#83E8F2" d="M366.063,259.785c0,0-12.133-3.569-12.133-15.702s10.706-24.624,7.137-34.616
	c-3.566-9.992-15.702-26.051-9.635-29.263c6.065-3.212,20.028,4.282,22.304,23.687c1.62,13.823-10.885,30.469-9.1,38.676
	C366.419,250.773,367.177,254.343,366.063,259.785"/>
<path fill="#83E8F2" d="M368.382,246.447c0,0-3.613-8.832,2.409-19.137c3.747-6.412,12.758-21.059,9.546-36.761
	c-3.212-15.698-19.271-36.757-7.137-43.894c12.133-7.138,26.095,22.568,23.907,46.033
	C395.188,213.322,380.515,243.234,368.382,246.447"/>
<path fill="#83E8F2" d="M377.125,257.287c0,0-3.256-6.29,1.692-14.723c3.564-6.067,23.286-22.395,22.932-39.879
	c-0.357-17.485-5.371-43.097,8.921-43.896c16.729-0.938,13.157,42.378-0.4,65.572C396.708,247.563,386.405,241.229,377.125,257.287"
	/>
<path fill="#83E8F2" d="M382.479,258.715c0,0-1.068-9.636,10.352-13.563c11.42-3.924,18.732-7.896,20.52-18.244
	c1.784-10.35,4.817-19.583,12.313-15.301c7.494,4.283,5.354,33.9-13.201,38.896C393.899,255.502,391.043,250.507,382.479,258.715"/>
<g opacity="0.1">
	<g>
		<g>
			<g>
				<g>
					<defs>
						<rect id="SVGID_5_" x="360.353" y="269.063" width="28.549" height="6.424"/>
					</defs>
					<clipPath id="SVGID_6_">
						<use xlink:href="#SVGID_5_"  overflow="visible"/>
					</clipPath>
					<path clip-path="url(#SVGID_6_)" fill="#001627" d="M388.902,272.275c0,1.771-6.391,3.211-14.271,3.211
						s-14.274-1.438-14.274-3.211c0-1.774,6.395-3.213,14.274-3.213C382.511,269.063,388.902,270.501,388.902,272.275"/>
				</g>
			</g>
		</g>
	</g>
</g>
<path fill="none" stroke="#75C6BC" stroke-miterlimit="10" d="M376.066,153.011c0,0,24.206,31.108,4.346,66.296
	c-19.862,35.188-11.826,36.467-3.512,53.51c0,0-11.416-5.938-15.706-25.569c-4.291-19.638,18.043-32.118,1.149-55.407"/>
<path fill="none" stroke="#75C6BC" stroke-miterlimit="10" d="M412.441,170.59c0,0,7.644,37.221-18.979,63.092
	c-26.62,25.87-16.563,39.135-16.563,39.135s4.473-24.896,24.491-25.64c20.021-0.743,21.188-30.438,21.188-30.438"/>
<linearGradient id="SVGID_7_" gradientUnits="userSpaceOnUse" x1="-24.4753" y1="-83.6025" x2="10.6511" y2="-83.6025" gradientTransform="matrix(1 0 0 -1 237.2095 79.1113)">
	<stop  offset="0" style="stop-color:#C07979"/>
	<stop  offset="0.334" style="stop-color:#BB7878"/>
	<stop  offset="0.7054" style="stop-color:#AE7575"/>
	<stop  offset="1" style="stop-color:#9E7171"/>
</linearGradient>
<path fill="url(#SVGID_7_)" d="M244.979,168.396c-1.229,0.711-1.952,1.143-1.952,1.143l-16.142-18.28
	c0.146-0.783,1.894-10.444-1.7-1.924l-1.267-1.437c-9.915-12.055-3.063-0.239-3.063-0.239c-11.979-9.596-1.376,1.64-1.376,1.64
	c-13.893-11.202-1.146,1.366-1.146,1.366c-12.079-7.814-0.854,1.847-0.854,1.847s15.585,29.166,21.889,30.263
	c2.354,0.41,5.289,0.074,8.493-0.768C246.844,177.491,245.951,172.939,244.979,168.396"/>
<path fill="#69A6AB" d="M229.74,172.175c0,0,8.029,14.722,12.047,14.185c4.016-0.532,27.565-21.678,27.565-21.678l-6.959-6.689
	L229.74,172.175z"/>
<g opacity="0.2">
	<g>
		<g>
			<g>
				<g>
					<defs>
						<rect id="SVGID_8_" x="229.74" y="157.989" width="39.612" height="28.385"/>
					</defs>
					<clipPath id="SVGID_9_">
						<use xlink:href="#SVGID_8_"  overflow="visible"/>
					</clipPath>
					<path clip-path="url(#SVGID_9_)" fill="#001627" d="M229.74,172.175c0,0,8.029,14.722,12.047,14.185
						c4.016-0.532,27.565-21.678,27.565-21.678l-6.959-6.689L229.74,172.175z"/>
				</g>
			</g>
		</g>
	</g>
</g>
<g opacity="0.1">
	<g>
		<g>
			<g>
				<g>
					<defs>
						<rect id="SVGID_10_" x="224.315" y="164.413" width="23.547" height="18.537"/>
					</defs>
					<clipPath id="SVGID_11_">
						<use xlink:href="#SVGID_10_"  overflow="visible"/>
					</clipPath>
					<path clip-path="url(#SVGID_11_)" fill="#001627" d="M244.979,168.396c-1.229,0.711-1.952,1.143-1.952,1.143l-4.523-5.126
						h-14.188c4.999,8.205,11.501,17.744,15.056,18.362c2.354,0.41,5.291,0.072,8.493-0.769
						C246.844,177.491,245.951,172.939,244.979,168.396"/>
				</g>
			</g>
		</g>
	</g>
</g>
<rect x="140.346" y="169.277" fill="#001627" width="4.036" height="51.181"/>
<rect x="120.166" y="236.372" fill="#00344E" width="4.036" height="51.18"/>
<rect x="130.48" y="223.52" fill="#00344E" width="4.036" height="51.182"/>
<rect x="334.969" y="236.372" fill="#00344E" width="4.036" height="51.18"/>
<rect x="324.655" y="223.52" fill="#00344E" width="4.036" height="51.182"/>
<rect x="314.79" y="169.277" fill="#001627" width="4.036" height="51.181"/>
<polygon fill="#CE523B" points="124.651,213.146 338.109,214.867 347.077,238.092 112.095,234.65 "/>
<polygon fill="#A84B3F" points="112.094,233.65 112.094,239.672 347.525,242.253 347.078,237.093 "/>
<polygon fill="#CE523B" points="124.651,201.965 337.211,207.126 337.211,191.643 124.651,187.771 "/>
<polygon fill="#CE523B" points="124.651,178.74 337.211,183.9 337.211,168.418 124.651,164.547 "/>
<path fill="#001627" d="M286.373,115.791c0,0-0.455-9.258-9.309-9.846c-8.852-0.59-3.039,5.987-8.749,6.914
	c-5.709,0.926-0.563,5.171-5.825,6.229c-5.267,1.058-6.021,0.495-5.927,3.288c0.096,2.794,3.709,5.323-0.051,7.361
	c-3.759,2.039-2.234,3.606,0.377,6.905c2.612,3.298-0.044,7.509,5.866,8.194c5.911,0.687,4.563-0.004,6.199,4.946
	c1.637,4.948,10.858,3.465,15.58-0.666C289.257,144.986,286.373,115.791,286.373,115.791"/>
<linearGradient id="SVGID_12_" gradientUnits="userSpaceOnUse" x1="37.2415" y1="-74.0166" x2="67.9666" y2="-74.0166" gradientTransform="matrix(1 0 0 -1 237.2095 79.1113)">
	<stop  offset="0" style="stop-color:#C07979"/>
	<stop  offset="0.334" style="stop-color:#BB7878"/>
	<stop  offset="0.7054" style="stop-color:#AE7575"/>
	<stop  offset="1" style="stop-color:#9E7171"/>
</linearGradient>
<path fill="url(#SVGID_12_)" d="M293.887,149.748l1.333-16.029l-11.241,4.865l-0.967,10.394l-7.667-0.894
	c0,0-5.14,23.551,9.228,24.425c14.367,0.875,20.604-18.554,20.604-18.554L293.887,149.748z"/>
<g opacity="0.1">
	<g>
		<g>
			<g>
				<g>
					<defs>
						<rect id="SVGID_13_" x="283.127" y="133.718" width="12.093" height="14.564"/>
					</defs>
					<clipPath id="SVGID_14_">
						<use xlink:href="#SVGID_13_"  overflow="visible"/>
					</clipPath>
					<path clip-path="url(#SVGID_14_)" fill="#001627" d="M294.327,145.096l0.894-11.378l-11.24,4.865l-0.853,9.699
						C286.68,148.046,290.495,147.09,294.327,145.096"/>
				</g>
			</g>
		</g>
	</g>
</g>
<linearGradient id="SVGID_15_" gradientUnits="userSpaceOnUse" x1="33.9026" y1="-52.2959" x2="59.9333" y2="-52.2959" gradientTransform="matrix(1 0 0 -1 237.2095 79.1113)">
	<stop  offset="0" style="stop-color:#C07979"/>
	<stop  offset="0.3403" style="stop-color:#B97777"/>
	<stop  offset="0.8253" style="stop-color:#A77373"/>
	<stop  offset="1" style="stop-color:#9E7171"/>
</linearGradient>
<path fill="url(#SVGID_15_)" d="M271.708,126.286c2.495-13.933,17-10.242,24.287-8.109c-0.9,7.577-0.333,12.489,1.147,19.773
	C284.1,153.118,267.776,148.25,271.708,126.286"/>
<path fill="#001627" d="M285.922,106.681c0,0-4.719,3.246-3.902,11.021c0.863,8.214,10.909,4.937,9.498,11.164
	c-1.412,6.229-3.482,5.857-0.084,10.748c3.4,4.891-4.479,6.92,1.259,11.292c5.739,4.372,13.413,0.584,17.408-3.229
	c3.994-3.813-2.029-12.296,2.872-15.402c4.9-3.107,2.216-8.611-1.686-10.836c-3.9-2.226-0.83-10.962-6.521-10.087
	c-3.66,0.563-6.959-1.24-8.218-3.7C295.292,105.191,289.235,104.509,285.922,106.681"/>
<path fill="#8C4D4D" d="M276.667,140.235c0,0,0.603,0.167,1.505,0.325c0.45,0.084,0.979,0.152,1.543,0.192
	c0.563,0.046,1.164,0.058,1.759,0.012c0.295-0.032,0.596-0.037,0.881-0.104c0.288-0.053,0.574-0.094,0.839-0.184
	c0.271-0.069,0.531-0.143,0.771-0.244c0.24-0.09,0.473-0.172,0.666-0.29c0.202-0.104,0.389-0.199,0.553-0.283
	c0.156-0.104,0.291-0.193,0.401-0.268c0.229-0.145,0.361-0.228,0.361-0.228s-0.104,0.115-0.287,0.316
	c-0.188,0.201-0.462,0.488-0.86,0.746c-0.188,0.15-0.415,0.27-0.658,0.397c-0.238,0.14-0.502,0.259-0.789,0.347
	c-0.281,0.111-0.58,0.19-0.891,0.248c-0.31,0.078-0.627,0.094-0.943,0.133c-0.637,0.036-1.272,0.014-1.857-0.085
	c-0.591-0.079-1.117-0.25-1.564-0.386C277.197,140.577,276.667,140.235,276.667,140.235"/>
<path fill="#8C4D4D" d="M278.526,128.973c-0.355,1.178-0.797,2.319-1.263,3.448c-0.475,1.124-0.974,2.238-1.523,3.329l-0.06-0.288
	c0.754,0.776,1.508,1.55,2.203,2.389c-0.887-0.632-1.716-1.325-2.545-2.02l-0.13-0.108l0.069-0.18
	c0.455-1.134,0.961-2.245,1.49-3.345C277.31,131.103,277.878,130.02,278.526,128.973"/>
<path fill="#C07979" d="M261.987,219.507c0,0,9.681,0.206,3.018,36.604c-2.343,12.793-5.262,31.182-5.262,31.182l-14.736,3.523
	l8.044-6.635c0,0-7.534-61.068-2.763-64.824C255.056,215.604,261.987,219.507,261.987,219.507"/>
<path fill="#FFFFFF" d="M259.74,287.292l-0.143,2.278c0,0-17.06,5.147-17.073,2.181c-0.013-2.967,9.627-6.798,9.627-6.798
	S247.521,289.419,259.74,287.292"/>
<path fill="#00344E" d="M259.718,288.585l-0.063,0.933c0,0-17.201,5.403-17.204,2.323c0-0.315,0.104-0.644,0.292-0.975
	C242.846,293.68,257.717,289.2,259.718,288.585"/>
<g opacity="0.1">
	<g>
		<g>
			<g>
				<g>
					<defs>
						<rect id="SVGID_16_" x="242.452" y="217.729" width="24.891" height="75.063"/>
					</defs>
					<clipPath id="SVGID_17_">
						<use xlink:href="#SVGID_16_"  overflow="visible"/>
					</clipPath>
					<path clip-path="url(#SVGID_17_)" fill="#001627" d="M259.598,289.535c0.037-0.012,0.063-0.018,0.063-0.018l0.06-0.936
						c-0.017,0.006-0.042,0.016-0.06,0.021l0.079-1.313c0,0,2.923-18.39,5.265-31.183c6.664-36.397-3.017-36.604-3.017-36.604
						s-6.932-3.9-11.7-0.146c-4.772,3.756,2.763,64.824,2.763,64.824l-0.971,0.801c-0.688,0.273-7.972,3.276-9.318,5.957
						c-0.003-0.024-0.014-0.047-0.015-0.074c-0.188,0.332-0.293,0.658-0.293,0.977c0.002,2.23,9.028,0.01,14.007-1.384
						c1.854-0.499,3.139-0.888,3.139-0.888L259.598,289.535L259.598,289.535z"/>
				</g>
			</g>
		</g>
	</g>
</g>
<linearGradient id="SVGID_18_" gradientUnits="userSpaceOnUse" x1="16.6477" y1="-178.043" x2="60.5134" y2="-178.043" gradientTransform="matrix(1 0 0 -1 237.2095 79.1113)">
	<stop  offset="0" style="stop-color:#C07979"/>
	<stop  offset="0.4018" style="stop-color:#BD7878"/>
	<stop  offset="0.6812" style="stop-color:#B47676"/>
	<stop  offset="0.9228" style="stop-color:#A57373"/>
	<stop  offset="1" style="stop-color:#9E7171"/>
</linearGradient>
<path fill="url(#SVGID_18_)" d="M263.969,222.486c0,0,8.339-4.916,21.824,29.545c4.739,12.111,11.93,29.283,11.93,29.283
	l-10.677,10.75l3.35-9.875c0,0-38.539-47.967-36.457-53.672C256.021,222.814,263.969,222.486,263.969,222.486"/>
<path fill="#FFFFFF" d="M297.724,281.314l1.076,2.014c0,0-11.797,13.354-13.37,10.837s4.608-10.847,4.608-10.847
	S288.452,289.553,297.724,281.314"/>
<path fill="#00344E" d="M298.385,282.426l0.438,0.823c0,0-11.783,13.647-13.405,11.03c-0.167-0.271-0.248-0.604-0.269-0.983
	C286.718,295.636,297.008,284.001,298.385,282.426"/>
<path fill="#6E74CD" d="M307.894,183.416c-15.346,9.277-32.131-0.83-32.131-0.83c-1.239,2.29-3.556,12.339-3.556,12.339
	c-3.351,1.937-6.229,3.774-8.743,5.522c-6.229,3.91-13.697,9.597-18.021,16.425c-5.086,8.028-9.99,28.64-9.99,28.64
	s44.695,14.541,66.377,3.567l-4.282-22.839c1.128-0.063-8.479,2.141-8.479,2.141s24.895-3.747,27.033-13.382
	C318.243,205.363,307.894,183.416,307.894,183.416"/>
<g opacity="0.2">
	<g>
		<g>
			<g>
				<g>
					<defs>
						<rect id="SVGID_19_" x="274.734" y="182.586" width="37.274" height="9.79"/>
					</defs>
					<clipPath id="SVGID_20_">
						<use xlink:href="#SVGID_19_"  overflow="visible"/>
					</clipPath>
					<path clip-path="url(#SVGID_20_)" fill="#001627" d="M312.008,190.247c-2.242-4.022-4.114-6.831-4.114-6.831
						c-15.346,9.277-32.13-0.83-32.13-0.83c-0.506,0.934-0.744,2.903-1.03,5.012C286.709,192.964,299.711,193.758,312.008,190.247"
						/>
				</g>
			</g>
		</g>
	</g>
</g>
<path fill="#2CDDD4" d="M270.245,155.224c1.062-3.299,4.107-6.669,4.107-6.669l4.036-0.077c0,0-5.724,10.481,6.013,12.004
	c11.737,1.522,17.199-8.186,17.199-8.186c4.271,0.692,7.833,3.245,7.833,3.245c-2.681,6.146-9.394,17.521-1.543,27.871
	c0.445,1.039-8.896,4.502-9.635,4.644c-11.42,2.141-24.097-2.291-24.097-2.291l0.371-8.211c0,0-5.139-2.381-5.93-7.66
	C267.914,165.26,269.387,157.459,270.245,155.224"/>
<g opacity="0.2">
	<g>
		<g>
			<g>
				<g>
					<defs>
						<rect id="SVGID_21_" x="270.456" y="169.969" width="37.454" height="18.67"/>
					</defs>
					<clipPath id="SVGID_22_">
						<use xlink:href="#SVGID_21_"  overflow="visible"/>
					</clipPath>
					<path clip-path="url(#SVGID_22_)" fill="#001627" d="M304.373,169.971c-10.445,6.357-22.918,9.021-33.917,4.196
						c1.761,2.308,4.077,3.388,4.077,3.388l-0.372,8.211c0,0,12.678,4.434,24.098,2.289c0.735-0.138,10.08-3.6,9.635-4.639
						C304.511,178.958,303.835,174.309,304.373,169.971"/>
				</g>
			</g>
		</g>
	</g>
</g>
<path fill="#2CDDD4" d="M278.392,148.478c0,0-3.475-1.306-9.896-0.057c-6.426,1.249-25.978,18.116-25.978,18.116l21.979,0.533
	l8.423-5.066L278.392,148.478z"/>
<linearGradient id="SVGID_23_" gradientUnits="userSpaceOnUse" x1="35.5413" y1="-103.3618" x2="80.9231" y2="-103.3618" gradientTransform="matrix(1 0 0 -1 237.2095 79.1113)">
	<stop  offset="0" style="stop-color:#C07979"/>
	<stop  offset="0.4018" style="stop-color:#BD7878"/>
	<stop  offset="0.6812" style="stop-color:#B47676"/>
	<stop  offset="0.9228" style="stop-color:#A57373"/>
	<stop  offset="1" style="stop-color:#9E7171"/>
</linearGradient>
<path fill="url(#SVGID_23_)" d="M309.436,155.544c0,0-6.717,1.909-6.981,8.868c-0.271,6.959,2.141,21.681,2.141,21.681
	s-45.5,24.892-27.032,18.199c0,0-11.509,6.425,1.07,1.339c0,0-9.635,6.155,0.536,1.605c0,0-6.156,4.283,1.604,0.803
	c7.766-3.479,32.654-7.762,35.33-13.918C320.631,183.702,317.224,158.186,309.436,155.544"/>
<g opacity="0.1">
	<g>
		<g>
			<g>
				<g>
					<defs>
						<rect id="SVGID_24_" x="302.431" y="155.544" width="15.698" height="35.532"/>
					</defs>
					<clipPath id="SVGID_25_">
						<use xlink:href="#SVGID_24_"  overflow="visible"/>
					</clipPath>
					<path clip-path="url(#SVGID_25_)" fill="#001627" d="M304.39,186.203c3.979,2.502,8.262,4.002,12.712,4.873
						c2.899-11.65-0.556-33.121-7.665-35.532c0,0-6.718,1.91-6.982,8.869c-0.271,6.958,2.141,21.679,2.141,21.679
						S304.518,186.133,304.39,186.203"/>
				</g>
			</g>
		</g>
	</g>
</g>
<path fill="#2CDDD4" d="M318.778,187.432c2.322-11.888,0.068-32.75-17.174-35.133c0,0-0.491,3.816-0.758,10.775
	c-0.229,5.961,1.639,18.728,2.141,21.947C307.318,186.398,312.89,187.432,318.778,187.432"/>
<linearGradient id="SVGID_26_" gradientUnits="userSpaceOnUse" x1="-61.9617" y1="-188.0972" x2="-35.2844" y2="-188.0972" gradientTransform="matrix(1 0 0 -1 237.2095 79.1113)">
	<stop  offset="0" style="stop-color:#FFA1A1"/>
	<stop  offset="0.0051" style="stop-color:#FFA1A1"/>
	<stop  offset="1" style="stop-color:#FFD9D9"/>
</linearGradient>
<path fill="url(#SVGID_26_)" d="M181.406,281.471c3.107-4.32,10.869-15.332,20.52-30.615c-4.818-2.141-9.657-4.229-14.539-6.219
	c-0.991,2.469-1.938,5.036-2.828,7.623l0.021-0.135c0,0-10.304,28.471-9.256,30.739c1.052,2.271,12.748,7.946,12.771,6.753
	C188.111,288.643,183.198,283.361,181.406,281.471"/>
<g opacity="0.1">
	<g>
		<g>
			<g>
				<g>
					<defs>
						<rect id="SVGID_27_" x="182.003" y="244.636" width="19.922" height="17.271"/>
					</defs>
					<clipPath id="SVGID_28_">
						<use xlink:href="#SVGID_27_"  overflow="visible"/>
					</clipPath>
					<path clip-path="url(#SVGID_28_)" fill="#001627" d="M187.385,244.636c-0.991,2.47-1.938,5.036-2.828,7.624l0.021-0.135
						c0,0-1.114,3.079-2.572,7.293c4.304,0.576,8.563,1.457,12.803,2.486c2.211-3.362,4.602-7.063,7.119-11.049
						C197.107,248.715,192.268,246.624,187.385,244.636"/>
				</g>
			</g>
		</g>
	</g>
</g>
<path fill="#BB969D" d="M175.097,281.134l-0.739,1.56c0,0,13.094,10.502,14.23,8.557c1.139-1.945-5.909-8.484-5.909-8.484
	S185.067,287.629,175.097,281.134"/>
<path fill="#7669F4" d="M174.649,282.078l-0.291,0.613c0,0,13.094,10.502,14.23,8.557c0.117-0.201,0.144-0.452,0.104-0.738
	C187.563,292.248,176.176,283.291,174.649,282.078"/>
<linearGradient id="SVGID_29_" gradientUnits="userSpaceOnUse" x1="-35.8772" y1="-160.5771" x2="-1.9397" y2="-160.5771" gradientTransform="matrix(1 0 0 -1 237.2095 79.1113)">
	<stop  offset="0" style="stop-color:#FFA1A1"/>
	<stop  offset="0.0051" style="stop-color:#FFA1A1"/>
	<stop  offset="1" style="stop-color:#FFD9D9"/>
</linearGradient>
<path fill="url(#SVGID_29_)" d="M224.701,254.789c-1.133-5.199-4.117-18.337-9.019-35.732c-4.813,2.146-9.604,4.344-14.351,6.643
	c1.17,2.388,2.442,4.81,3.771,7.201l-0.088-0.104c0,0,14.26,26.708,16.647,27.448c2.387,0.739,14.436-4.155,13.563-4.972
	C234.517,254.607,227.305,254.725,224.701,254.789"/>
<g opacity="0.1">
	<g>
		<g>
			<g>
				<g>
					<defs>
						<rect id="SVGID_30_" x="201.333" y="219.055" width="17.798" height="20.533"/>
					</defs>
					<clipPath id="SVGID_31_">
						<use xlink:href="#SVGID_30_"  overflow="visible"/>
					</clipPath>
					<path clip-path="url(#SVGID_31_)" fill="#001627" d="M201.333,225.695c1.171,2.389,2.442,4.811,3.771,7.203l-0.088-0.104
						c0,0,1.542,2.892,3.697,6.792c3.309-2.813,6.813-5.388,10.417-7.848c-1.021-3.896-2.168-8.146-3.446-12.687
						C210.871,221.202,206.079,223.398,201.333,225.695"/>
				</g>
			</g>
		</g>
	</g>
</g>
<path fill="#BB969D" d="M220.228,259.253l0.664,1.593c0,0,16.564-2.699,15.88-4.848c-0.684-2.15-10.261-1.29-10.261-1.29
	S231.727,256.191,220.228,259.253"/>
<path fill="#7669F4" d="M220.63,260.218l0.262,0.628c0,0,16.564-2.699,15.88-4.849c-0.066-0.222-0.235-0.408-0.478-0.57
	C236.83,257.43,222.553,259.895,220.63,260.218"/>
<path fill="#D1C090" d="M176.637,187.674c0,0-28.267,15.575-30.125,30.852c-1.546,12.711,12.585,17.16,41.252,13.81
	c0,0-3.566,8.479-7.29,18.892c0,0,9.021,10.014,20.176,9.533c0,0,14.818-29.972,12.005-37.01
	c-2.813-7.038-27.775-26.366-27.775-26.366L176.637,187.674z"/>
<path fill="#F4ADAB" d="M177.894,154.884c0,0,4.563-0.106,10.185,10.331c5.618,10.439,9.365,17.131,9.365,17.131
	s8.3-16.861,10.439-20.074c0,0,9.1-9.636,1.873,0.271c0,0,12.847-9.1,2.141,0.535c0,0,13.382-4.818,1.071,2.141
	c0,0,14.185,0.806,0.535,2.146l-2.144,1.873c0,0-2.141,30.244-13.647,27.3s-19.271-22.75-19.271-22.75L177.894,154.884z"/>
<path fill="#0099CC" d="M151.815,195.561c0,0-13.102,20.588-2.995,32.191c8.41,9.655,36.313,5.615,46.417-8.607
	c0,0,1.123,6.361,6.364,16.098c0,0,13.478,0,20.587-8.61c0,0-12.353-31.065-19.464-33.688c-7.113-2.62-38.182,2.994-38.182,2.994
	L151.815,195.561z"/>
<path fill="#047FA0" d="M171.443,202.777c6.57-2.238,16.813-9.369,28.812-10.354c-9.993-1.137-35.71,3.511-35.71,3.511
	l-12.729-0.373c0,0-0.823,1.297-1.898,3.422C153.362,199.607,161.21,206.266,171.443,202.777"/>
<path fill="#047FA0" d="M195.24,219.141l-0.002,0.004c-16.097,8.981-20.51,14.129-31.846,13.859
	c6.374,0.711,14.513,0.48,24.371-0.672c0,0-3.565,8.482-7.289,18.891c0,0,9.021,10.012,20.176,9.534
	c0,0,14.245-23.346,11.435-30.385C210.722,226.969,201.976,221.15,195.24,219.141"/>
<path fill="#25CCF7" d="M169.518,116.113c0,0,6.497-2.541,10.46,2.425c3.964,4.965,12.024,27.764,1.674,35.972
	c-9.524,7.557-13.992,0.694-13.992,0.694l1.898-9.167L169.518,116.113z"/>
<linearGradient id="SVGID_32_" gradientUnits="userSpaceOnUse" x1="-90.2786" y1="-76.4541" x2="-57.7073" y2="-76.4541" gradientTransform="matrix(1 0 0 -1 237.2095 79.1113)">
	<stop  offset="0" style="stop-color:#FFA1A1"/>
	<stop  offset="0.0051" style="stop-color:#FFA1A1"/>
	<stop  offset="1" style="stop-color:#FFD9D9"/>
</linearGradient>
<path fill="url(#SVGID_32_)" d="M160.78,149.513l2.097-14.326l10.309,8.01l-1.885,10.272l8.202,1.416
	c0,0-1.211,24.149-16.357,20.727c-15.145-3.422-16.214-23.937-16.214-23.937L160.78,149.513z"/>
<g opacity="0.1">
	<g>
		<g>
			<g>
				<g>
					<defs>
						<rect id="SVGID_33_" x="160.64" y="135.187" width="12.542" height="17.579"/>
					</defs>
					<clipPath id="SVGID_34_">
						<use xlink:href="#SVGID_33_"  overflow="visible"/>
					</clipPath>
					<path clip-path="url(#SVGID_34_)" fill="#001627" d="M160.641,146.383l2.233-11.196l10.309,8.01l-1.81,9.569
						C167.752,151.485,164.062,149.435,160.641,146.383"/>
				</g>
			</g>
		</g>
	</g>
</g>
<linearGradient id="SVGID_35_" gradientUnits="userSpaceOnUse" x1="-80.7229" y1="-55.1211" x2="-55.0364" y2="-55.1211" gradientTransform="matrix(1 0 0 -1 237.2095 79.1113)">
	<stop  offset="0" style="stop-color:#FFA1A1"/>
	<stop  offset="0.0051" style="stop-color:#FFA1A1"/>
	<stop  offset="1" style="stop-color:#FFD9D9"/>
</linearGradient>
<path fill="url(#SVGID_35_)" d="M181.208,128.771c-3.307-13.763-17.569-9.234-24.722-6.679c1.345,7.512,4.557,11.713,3.499,19.07
	C169.271,155.306,186.417,150.467,181.208,128.771"/>
<path fill="#6E74CD" d="M157.386,149.335c0,0,0.207,15.915,13.204,15.702c10.884-0.178,6.969-10.632,6.969-10.632l3.264,1.02
	c0,0,12.569,16.37,0.692,25.433c0,0,0.553,3.392,3.885,10.77c0,0-18.333,11.146-37.111,6.064c0,0-1.552-27.25,2.04-46.188
	L157.386,149.335z"/>
<g opacity="0.1">
	<g>
		<g>
			<g>
				<g>
					<defs>
						<rect id="SVGID_36_" x="147.953" y="162.602" width="38.179" height="36.416"/>
					</defs>
					<clipPath id="SVGID_37_">
						<use xlink:href="#SVGID_36_"  overflow="visible"/>
					</clipPath>
					<path clip-path="url(#SVGID_37_)" fill="#001627" d="M186.132,173.977c-4.74,1.778-10.048,2.34-15.633,1.45
						c-8.666-1.38-16.531-6.03-21.675-12.825c-1.568,16.961-0.538,35.09-0.538,35.09c18.778,5.08,37.111-6.065,37.111-6.065
						c-3.333-7.377-3.885-10.769-3.885-10.769C184.127,178.863,185.53,176.48,186.132,173.977"/>
				</g>
			</g>
		</g>
	</g>
</g>
<linearGradient id="SVGID_38_" gradientUnits="userSpaceOnUse" x1="-93.0593" y1="-97.7891" x2="-29.9612" y2="-97.7891" gradientTransform="matrix(1 0 0 -1 237.2095 79.1113)">
	<stop  offset="0" style="stop-color:#FFA1A1"/>
	<stop  offset="0.0051" style="stop-color:#FFA1A1"/>
	<stop  offset="1" style="stop-color:#FFD9D9"/>
</linearGradient>
<path fill="url(#SVGID_38_)" d="M199.317,189.482c0,0,17.846-1.428,0-1.784c0,0,15.348-1.785,0-2.142c0,0,12.85-4.642-2.498-1.785
	l-1.894,0.285c2.728-8.836-2.147-0.313-2.539,0.381l-24.116,3.617c0,0-9.813-28.371-17.484-35.332c0,0-7.158,0.197-6.604,9.278
	c0.536,8.742,9.088,33.146,18.379,38.542c5.531,3.212,36.222-9.104,36.222-9.104S213.592,191.268,199.317,189.482"/>
<path fill="#25CCF7" d="M173.711,119.767c0,0,0.549,5.341-11.775,9.137c0,0,4.193,26.32-5.439,24.536
	c-7.917-1.466-12.491,3.567-12.491,3.567s-5.329-10.281,2.141-16.594c4.968-4.196,3-16.599,8.03-21.59
	C161.214,111.837,174.153,112.72,173.711,119.767"/>
<path fill="#B57C7C" d="M176.633,134.494c0.38,0.377,0.684,0.796,0.96,1.229c0.266,0.438,0.51,0.888,0.704,1.363l0.075,0.185
	l-0.116,0.108c-0.787,0.741-1.574,1.482-2.423,2.164c0.645-0.877,1.353-1.693,2.06-2.513l-0.041,0.293
	c-0.286-0.427-0.521-0.881-0.737-1.347C176.91,135.506,176.733,135.021,176.633,134.494"/>
<path fill="#B57C7C" d="M175.9,140.994c0.296,0.505,0.581,1.014,0.833,1.537l0.17,0.352l-0.396-0.116
	c-0.572-0.169-1.168-0.302-1.747-0.386c-0.29-0.033-0.58-0.065-0.851-0.041c-0.27,0.021-0.518,0.098-0.628,0.23
	c-0.116,0.126-0.136,0.367-0.088,0.634c0.042,0.278,0.136,0.491,0.301,0.628c0.17,0.134,0.459,0.148,0.737,0.096
	c0.29-0.037,0.576-0.145,0.866-0.257c-0.221,0.224-0.49,0.391-0.787,0.529c-0.296,0.115-0.671,0.194-1.044,0.018
	c-0.375-0.183-0.541-0.59-0.611-0.903c-0.083-0.319-0.103-0.758,0.185-1.115c0.293-0.348,0.702-0.414,1.03-0.436
	c0.342-0.019,0.663,0.015,0.979,0.078c0.629,0.119,1.213,0.335,1.788,0.593l-0.229,0.233
	C176.21,142.121,176.05,141.561,175.9,140.994"/>
<g>
	<g>
		<path fill="#6E74CD" d="M213.4,80.051c0-9.625-11.053-17.426-24.687-17.426c-13.636,0-24.688,7.802-24.688,17.426
			s11.055,17.426,24.688,17.426c0.541,0,1.08-0.013,1.612-0.038c0.239-0.011,0.431,0.207,0.388,0.445l-1.968,10.728
			c-0.067,0.375,0.396,0.604,0.648,0.32L202.24,94.66c0.034-0.038,0.075-0.067,0.119-0.089C209.014,91.45,213.4,86.113,213.4,80.051
			z"/>
		<g>
			<path fill="#FCFCA1" d="M178.21,82.184c1.424,0,1.427-2.213,0-2.213C176.788,79.971,176.785,82.184,178.21,82.184z"/>
			<path fill="#FCFCA1" d="M188.168,82.184c1.424,0,1.427-2.213,0-2.213C186.745,79.971,186.742,82.184,188.168,82.184z"/>
			<path fill="#FCFCA1" d="M200.616,82.184c1.424,0,1.427-2.213,0-2.213C199.192,79.971,199.19,82.184,200.616,82.184z"/>
		</g>
	</g>
</g>
<path fill="#25CCF7" d="M258.44,65.422c0-9.625,11.056-17.426,24.688-17.426c13.636,0,24.688,7.802,24.688,17.426
	s-11.052,17.426-24.688,17.426c-0.541,0-1.08-0.013-1.612-0.038c-0.242-0.011-0.431,0.207-0.388,0.445l1.968,10.728
	c0.067,0.375-0.397,0.604-0.651,0.32L269.6,80.032c-0.035-0.038-0.076-0.067-0.12-0.089C262.826,76.821,258.44,71.484,258.44,65.422
	z"/>
<g>
	<path fill="#FCFCA1" d="M293.629,67.555c-1.424,0-1.427-2.213,0-2.213C295.052,65.342,295.055,67.555,293.629,67.555z"/>
	<path fill="#FCFCA1" d="M283.671,67.555c-1.424,0-1.427-2.213,0-2.213C285.095,65.342,285.098,67.555,283.671,67.555z"/>
	<path fill="#FCFCA1" d="M271.224,67.555c-1.424,0-1.427-2.213,0-2.213C272.648,65.342,272.65,67.555,271.224,67.555z"/>
</g>
<circle fill="none" stroke="#B9A2F1" stroke-width="2.031" stroke-miterlimit="10" cx="138.045" cy="92.129" r="6.057"/>
<circle fill="#FFFFFF" cx="403.396" cy="47.996" r="6.057"/>
<circle fill="#FFFFFF" cx="31.687" cy="105.374" r="5.061"/>
<circle fill="#FFFFFF" cx="425.925" cy="145.579" r="2.316"/>
</svg>
