<?xml version="1.0" encoding="utf-8"?>
<!-- Generator: Adobe Illustrator 15.0.0, SVG Export Plug-In . SVG Version: 6.00 Build 0)  -->
<!DOCTYPE svg PUBLIC "-//W3C//DTD SVG 1.1//EN" "http://www.w3.org/Graphics/SVG/1.1/DTD/svg11.dtd">
<svg version="1.1" id="Capa_1" xmlns="http://www.w3.org/2000/svg" xmlns:xlink="http://www.w3.org/1999/xlink" x="0px" y="0px"
	 width="442px" height="310px" viewBox="0 0 442 310" enable-background="new 0 0 442 310" xml:space="preserve">
<g>
	<path fill="#EBEBEB" d="M78.143,295.91c0,0-55.576-59.29,13.558-91.859c69.132-32.568,66.358-9.002,67.705-71.786
		C160.75,69.482,270.195-21.222,326.814,29.151c68.408,60.862-72.014,99.149-31.35,164.1
		c32.908,52.563,11.438,102.659,11.438,102.659H78.143z"/>
	<path fill="#FAFAFA" d="M74.734,251.184c0.18,0,0.323,1.441,0.323,3.221c0,1.781-0.146,3.223-0.323,3.223
		c-0.179,0-0.322-1.441-0.322-3.223C74.41,252.626,74.555,251.184,74.734,251.184"/>
	<path fill="#FAFAFA" d="M115.207,251.184c0.179,0,0.321,1.441,0.321,3.221c0,1.781-0.145,3.223-0.321,3.223
		c-0.18,0-0.323-1.441-0.323-3.223C114.883,252.626,115.028,251.184,115.207,251.184"/>
	<path fill="#FAFAFA" d="M114.086,251.043c0.179,0,0.323,1.441,0.323,3.223c0,1.779-0.146,3.221-0.323,3.221
		s-0.323-1.438-0.323-3.221C113.763,252.484,113.908,251.043,114.086,251.043"/>
	<path fill="#E0E0E0" d="M113.666,257.729c0.179,0,0.321,5.375,0.321,12.004c0,6.631-0.145,12.006-0.321,12.006
		c-0.18,0-0.324-5.374-0.324-12.006C113.341,263.104,113.487,257.729,113.666,257.729"/>
	<path fill="#E0E0E0" d="M109.489,258.053c0.181,0,0.324,5.235,0.324,11.692c0,6.46-0.146,11.694-0.324,11.694
		c-0.178,0-0.321-5.234-0.321-11.694C109.166,263.288,109.31,258.053,109.489,258.053"/>
	<path fill="#EBEBEB" d="M361.77,205.893c4.857-2.506,10.578-2.834,15.977-1.939c2.896,0.479,5.916,1.347,7.889,3.521
		c1.973,2.178,2.346,6.008,0.08,7.879c-1.346,1.111-3.227,1.279-4.973,1.263c-4.225-0.05-8.908-0.794-12.283,1.747
		c-1.924,1.449-3.205,3.857-5.506,4.57c-2.252,0.697-4.791-0.631-5.986-2.662c-1.193-2.031-1.232-4.57-0.676-6.86
		C356.289,213.41,356.875,208.42,361.77,205.893"/>
	<path fill="#EBEBEB" d="M350.639,184.404c2.971,4.244,8.744,2.839,11.422,0.25c2.678-2.592,3.811-6.346,4.838-9.926
		c2.354-8.179,4.729-16.758,2.979-25.086c-0.521-2.49-1.453-4.975-3.203-6.819c-1.75-1.849-4.441-2.948-6.9-2.297
		c-2.91,0.768-4.721,3.62-6.027,6.333c-3.848,7.972-5.879,16.813-5.908,25.665C347.818,176.657,348.305,180.993,350.639,184.404"/>
	<path fill="#EBEBEB" d="M342.479,190.493c3.229-3.827,3.838-9.412,2.404-14.208c-1.438-4.796-4.678-8.876-8.414-12.205
		c-4.385-3.906-9.535-6.945-15.07-8.895c-2.18-0.766-4.479-1.369-6.777-1.149c-2.299,0.22-4.613,1.396-5.688,3.44
		c-1.586,3.023-0.064,6.692,1.578,9.687c2.896,5.272,6.209,10.317,9.896,15.071c2.97,3.824,6.364,7.599,10.89,9.326
		c4.521,1.729,9.217,1.522,11.613-1.61"/>
	<path fill="#E0E0E0" d="M350.438,248.412c0.057,0.004,0.146-0.686,0.27-1.928c0.137-1.403,0.309-3.166,0.514-5.262
		c0.244-2.216,0.568-4.852,1.182-7.72c0.613-2.86,1.574-5.964,2.809-9.108c1.273-3.127,2.832-5.97,4.648-8.242
		c1.809-2.283,3.908-3.937,5.883-4.889c1.969-0.975,3.73-1.367,4.951-1.543c1.23-0.128,1.92-0.224,1.92-0.277
		c0-0.055-0.688-0.064-1.951-0.03c-1.252,0.085-3.094,0.401-5.164,1.345c-2.082,0.922-4.311,2.602-6.205,4.932
		c-1.908,2.32-3.521,5.227-4.822,8.406c-1.252,3.203-2.197,6.336-2.783,9.26c-0.584,2.92-0.852,5.586-1.025,7.816
		c-0.166,2.233-0.23,4.043-0.262,5.295C350.369,247.717,350.383,248.408,350.438,248.412"/>
	<path fill="#E0E0E0" d="M350.799,244.363c0.027-0.002,0.045-0.312,0.053-0.896c-0.002-0.674-0.004-1.521-0.008-2.56
		c-0.006-2.221-0.004-5.436,0.115-9.399c0.193-7.937,0.879-16.477,2.195-28.517c1.25-11.321,2.93-24.497,4.697-33.063
		c0.381-1.947,0.766-3.701,1.123-5.234c0.342-1.539,0.637-2.866,0.918-3.939c0.244-1.009,0.441-1.834,0.6-2.486
		c0.129-0.569,0.184-0.875,0.154-0.881c-0.023-0.008-0.131,0.278-0.309,0.838c-0.195,0.645-0.443,1.453-0.744,2.451
		c-0.328,1.063-0.666,2.383-1.053,3.914c-0.402,1.527-0.822,3.277-1.238,5.225c-1.752,7.762-3.605,18.609-4.939,30.678
		c-1.318,12.064-1.918,23.052-1.969,31.008c-0.047,3.977,0.037,7.196,0.141,9.419c0.063,1.038,0.113,1.886,0.154,2.558
		C350.736,244.059,350.771,244.365,350.799,244.363"/>
	<path fill="#E0E0E0" d="M350.852,223.176c0.059-0.002,0.047-0.951-0.02-2.672c-0.098-1.719-0.334-4.201-0.816-7.242
		c-0.514-3.031-1.229-6.635-2.354-10.549c-0.488-1.789-1.637-6.074-4.41-12.482c-3.66-8.68-8.631-15.774-12.955-20.172
		c-1.018-1.166-2.146-2.008-3.049-2.834c-0.469-0.396-0.882-0.787-1.305-1.103c-0.422-0.289-0.814-0.562-1.18-0.813
		c-1.426-0.974-2.223-1.484-2.252-1.438c-0.127,0.174,3.189,2.124,7.375,6.578c4.17,4.444,9.004,11.493,12.633,20.102
		c2.023,4.666,3.438,8.832,4.438,12.366c1.154,3.876,1.926,7.441,2.506,10.445c0.553,3.011,0.871,5.467,1.063,7.169
		C350.684,222.232,350.797,223.178,350.852,223.176"/>
	<polygon fill="#EBEBEB" points="328.955,257.333 331.076,286.42 368.443,286.42 370.568,257.333 	"/>
	<rect x="325.346" y="245.868" fill="#EBEBEB" width="49.682" height="11.466"/>
	<polygon fill="#E0E0E0" points="325.346,285.307 325.346,288.484 327.68,288.484 374.205,288.484 374.205,285.307 	"/>
	<polygon fill="#E0E0E0" points="329.967,293.727 327.68,288.134 372.426,288.134 369.756,293.727 	"/>
	<path fill="#F5F5F5" d="M369.873,266.84c0.01,0.008-0.053,0.098-0.172,0.268c-0.15,0.195-0.334,0.439-0.563,0.74
		c-0.531,0.68-1.258,1.611-2.178,2.785l-0.094,0.123l-0.098-0.129c-1.369-1.895-3.193-4.42-5.348-7.396h0.311
		c-1.594,2.254-3.361,4.763-5.268,7.455l-0.166,0.233l-0.184-0.22c-1.943-2.313-4.057-4.824-6.244-7.43l0.357-0.006
		c-0.105,0.135-0.225,0.283-0.344,0.432c-1.936,2.429-3.811,4.775-5.584,7l-0.186,0.232l-0.172-0.244
		c-1.896-2.68-3.668-5.188-5.27-7.451l0.309,0.015c-2.6,2.959-4.799,5.467-6.488,7.394l-0.115,0.133l-0.086-0.146
		c-0.855-1.438-1.539-2.584-2.031-3.416c-0.215-0.369-0.385-0.669-0.521-0.908c-0.115-0.205-0.171-0.315-0.16-0.322
		c0.01-0.006,0.084,0.092,0.217,0.287c0.152,0.229,0.342,0.52,0.578,0.875c0.518,0.814,1.232,1.938,2.133,3.351l-0.205-0.017
		c1.664-1.947,3.83-4.487,6.385-7.48l0.16-0.188l0.146,0.203c1.613,2.254,3.398,4.75,5.313,7.42l-0.355-0.011
		c1.768-2.227,3.639-4.577,5.568-7.011c0.117-0.146,0.236-0.295,0.346-0.434l0.178-0.223l0.182,0.219
		c2.188,2.611,4.289,5.127,6.229,7.443l-0.35,0.016c1.923-2.682,3.711-5.178,5.316-7.418l0.156-0.219l0.152,0.219
		c2.104,3.008,3.895,5.563,5.232,7.477l-0.189-0.006c0.953-1.145,1.712-2.055,2.268-2.715c0.244-0.284,0.441-0.516,0.604-0.701
		C369.789,266.909,369.865,266.831,369.873,266.84"/>
	<path fill="#F5F5F5" d="M371.088,257.139c0,0.131-9.363,0.233-20.91,0.233c-11.551,0-20.912-0.104-20.912-0.233
		c0-0.127,9.361-0.23,20.912-0.23C361.725,256.907,371.088,257.012,371.088,257.139"/>
	<path fill="#E0E0E0" d="M363.93,14.051c0.029,0.024-0.332,0.554-0.955,1.386c-0.621,0.831-1.504,1.962-2.51,3.185
		c-1.01,1.223-1.949,2.305-2.646,3.075c-0.693,0.77-1.146,1.228-1.178,1.202c-0.029-0.027,0.367-0.533,1.023-1.336
		c0.717-0.87,1.6-1.94,2.574-3.125c0.977-1.187,1.855-2.257,2.572-3.128C363.477,14.512,363.896,14.026,363.93,14.051"/>
	<path fill="#FFFFFF" d="M357.334,83.02c1.998,3.176,4.355,6.125,7.016,8.773"/>
	<path fill="#FFFFFF" d="M310.258,91.555c2.336-2.883,4.672-5.766,7.01-8.649"/>
	<path fill="#E0E0E0" d="M317.268,82.907c0.063,0.051-1.457,2.028-3.391,4.417c-1.938,2.388-3.559,4.283-3.619,4.232
		c-0.063-0.051,1.457-2.029,3.393-4.417C315.584,84.751,317.205,82.856,317.268,82.907"/>
	<path fill="#E0E0E0" d="M310.266,14.051c0.063-0.05,1.586,1.771,3.402,4.066c1.814,2.297,3.234,4.199,3.174,4.249
		c-0.063,0.05-1.586-1.771-3.402-4.068C311.623,16.002,310.203,14.1,310.266,14.051"/>
	<g opacity="0.24">
		<g>
			<g>
				<g>
					<defs>
						<rect id="SVGID_1_" x="227.475" y="229.844" width="22.361" height="57.859"/>
					</defs>
					<clipPath id="SVGID_2_">
						<use xlink:href="#SVGID_1_"  overflow="visible"/>
					</clipPath>
					<path clip-path="url(#SVGID_2_)" d="M230.867,229.844c-1.205,1.844-1.721,4.313-0.561,6.186
						c1.162,1.873,2.73,3.572,3.236,5.718c0.789,3.368-1.238,6.661-2.75,9.771c-2.705,5.567-3.938,11.916-3.023,18.037
						s4.055,11.967,8.951,15.746c2.166,1.676,4.98,2.971,7.592,2.151c2.457-0.771,4.047-3.267,4.537-5.794
						c0.486-2.529,0.084-5.135-0.235-7.691c-1.491-11.859-1.187-23.947,0.899-35.719c0.351-1.969,0.682-4.215-0.563-5.777
						c-0.797-0.996-2.066-1.465-3.279-1.869C240.92,229.02,235.789,230.777,230.867,229.844"/>
				</g>
			</g>
		</g>
	</g>
	<g>
		<rect x="131.568" y="60.992" fill="#F5F5F5" width="25.483" height="28.951"/>
		<path fill="#E0E0E0" d="M157.051,89.943c-0.003-0.003-0.007-0.053-0.01-0.146c-0.004-0.11-0.008-0.244-0.014-0.412
			c-0.006-0.382-0.014-0.91-0.022-1.583c-0.011-1.4-0.028-3.407-0.051-5.941c-0.023-5.096-0.059-12.308-0.099-20.869l0.193,0.174
			c-7.594,0.006-16.285,0.013-25.48,0.021c-0.051,0.041,0.406-0.366,0.215-0.19v0.008v0.015v0.033v0.063v0.125v0.251v0.5v0.999
			c0,0.665-0.001,1.324-0.001,1.981c0,1.315-0.003,2.617-0.003,3.901c-0.003,2.573-0.006,5.08-0.007,7.513
			c-0.011,4.863-0.02,9.419-0.026,13.556l-0.18-0.163c7.646,0.036,13.989,0.065,18.45,0.085c2.213,0.018,3.957,0.032,5.177,0.041
			c0.582,0.008,1.038,0.015,1.373,0.02C156.88,89.931,157.051,89.943,157.051,89.943c0.007,0.006-0.146,0.012-0.444,0.018
			c-0.326,0.005-0.771,0.011-1.339,0.018c-1.21,0.01-2.938,0.024-5.137,0.043c-4.489,0.019-10.871,0.049-18.563,0.083l-0.181,0.001
			v-0.163c-0.008-4.137-0.018-8.693-0.026-13.556c-0.004-2.433-0.006-4.939-0.008-7.513c-0.001-1.285-0.001-2.586-0.002-3.901
			c0-0.657-0.001-1.316-0.001-1.981v-0.999v-0.5v-0.251v-0.125v-0.063v-0.033v-0.015v-0.008c-0.189,0.173,0.262-0.244,0.22-0.201
			c9.195,0.008,17.889,0.015,25.48,0.02h0.194v0.176c-0.04,8.608-0.074,15.859-0.1,20.983c-0.021,2.517-0.039,4.51-0.051,5.9
			c-0.01,0.66-0.018,1.175-0.022,1.548c-0.006,0.16-0.009,0.288-0.012,0.394C157.06,89.904,157.055,89.947,157.051,89.943"/>
		<rect x="160.172" y="60.992" fill="#F5F5F5" width="21.21" height="17.449"/>
		<path fill="#E0E0E0" d="M181.382,78.441c-0.007-0.007-0.014-0.121-0.021-0.338c-0.005-0.241-0.012-0.554-0.021-0.946
			c-0.011-0.853-0.027-2.05-0.047-3.558c-0.023-3.069-0.059-7.403-0.097-12.607l0.186,0.167c-6.126,0.008-13.41,0.018-21.209,0.028
			c-0.05,0.042,0.408-0.368,0.215-0.192v0.004v0.011v0.018v0.038v0.075v0.148v0.297v0.591c0,0.396-0.001,0.789-0.001,1.179
			c0,0.782-0.001,1.557-0.001,2.323c-0.002,1.534-0.003,3.037-0.005,4.502c-0.007,2.926-0.014,5.7-0.021,8.261l-0.188-0.172
			c6.291,0.036,11.562,0.065,15.301,0.087c1.84,0.019,3.3,0.034,4.34,0.045c0.481,0.008,0.865,0.015,1.158,0.021
			C181.235,78.428,181.375,78.434,181.382,78.441c0.007,0.006-0.119,0.013-0.37,0.019c-0.284,0.006-0.655,0.012-1.121,0.021
			c-1.029,0.011-2.477,0.026-4.298,0.046c-3.769,0.021-9.081,0.051-15.422,0.085l-0.189,0.001l-0.001-0.172
			c-0.005-2.561-0.012-5.334-0.019-8.261c-0.001-1.465-0.004-2.968-0.005-4.502c0-0.766-0.001-1.541-0.002-2.323
			c0-0.39,0-0.784,0-1.179v-0.591v-0.297V61.14v-0.075v-0.038v-0.018v-0.01v-0.004c-0.192,0.173,0.262-0.24,0.218-0.199
			c7.799,0.012,15.083,0.021,21.209,0.03h0.186l-0.002,0.165c-0.038,5.247-0.068,9.618-0.094,12.713
			c-0.021,1.493-0.037,2.675-0.048,3.52c-0.009,0.378-0.016,0.681-0.021,0.915C181.397,78.345,181.388,78.447,181.382,78.441"/>
		<rect x="160.172" y="81.176" fill="#F5F5F5" width="21.21" height="8.768"/>
		<path fill="#E0E0E0" d="M181.382,89.943c-0.011-0.011-0.022-0.229-0.033-0.636c-0.009-0.441-0.021-1.025-0.039-1.761
			c-0.021-1.547-0.049-3.712-0.084-6.371l0.156,0.142c-5.532,0.014-12.995,0.032-21.21,0.053c-0.193,0.176,0.262-0.237,0.216-0.195
			v0.003v0.005v0.009v0.018v0.037v0.071v0.146v0.287v0.574c-0.001,0.382-0.001,0.76-0.001,1.138
			c-0.001,0.754-0.002,1.498-0.003,2.232c-0.002,1.467-0.005,2.889-0.009,4.248l-0.204-0.186c6.118,0.036,11.382,0.067,15.168,0.089
			c1.854,0.022,3.345,0.038,4.421,0.052c0.489,0.008,0.884,0.016,1.193,0.022C181.227,89.928,181.375,89.935,181.382,89.943
			c0.008,0.008-0.121,0.015-0.38,0.023c-0.299,0.006-0.682,0.013-1.151,0.023c-1.063,0.013-2.539,0.03-4.374,0.051
			c-3.818,0.021-9.132,0.053-15.306,0.089h-0.205v-0.186c-0.002-1.359-0.005-2.781-0.008-4.248c0-0.734-0.001-1.478-0.002-2.232
			c0-0.378-0.001-0.756-0.001-1.138v-0.574v-0.287v-0.145v-0.071v-0.037v-0.018v-0.009v-0.005v-0.003
			c-0.047,0.043,0.407-0.369,0.217-0.194c8.215,0.02,15.678,0.039,21.21,0.053l0.159,0.001l-0.002,0.141
			c-0.035,2.694-0.064,4.89-0.085,6.458c-0.019,0.72-0.028,1.295-0.039,1.729C181.404,89.753,181.394,89.953,181.382,89.943"/>
		<path fill="#FFFFFF" d="M156.42,61.043c-7.888,9.836-16.964,19.064-24.854,28.9"/>
		<path fill="#E0E0E0" d="M131.568,89.943c-0.012-0.008,0.063-0.119,0.209-0.323c0.182-0.239,0.399-0.53,0.665-0.881
			c0.582-0.763,1.455-1.848,2.554-3.176c2.188-2.659,5.32-6.257,8.832-10.191c3.51-3.936,6.679-7.502,8.928-10.116
			c1.092-1.271,1.99-2.32,2.658-3.098c0.292-0.333,0.53-0.611,0.729-0.837c0.171-0.189,0.27-0.286,0.278-0.277
			c0.013,0.006-0.061,0.118-0.208,0.322c-0.18,0.239-0.399,0.53-0.665,0.881c-0.583,0.763-1.454,1.848-2.551,3.176
			c-2.189,2.659-5.323,6.257-8.835,10.193c-3.51,3.934-6.678,7.501-8.927,10.114c-1.092,1.271-1.988,2.319-2.657,3.098
			c-0.292,0.336-0.533,0.611-0.731,0.838C131.676,89.855,131.581,89.951,131.568,89.943"/>
		<line fill="none" x1="131.568" y1="60.992" x2="157.051" y2="89.943"/>
		<path fill="#E0E0E0" d="M157.051,89.943c-0.093,0.066-5.874-6.36-12.91-14.354c-7.038-7.996-12.667-14.53-12.573-14.598
			c0.096-0.067,5.874,6.358,12.911,14.356C151.516,83.34,157.145,89.875,157.051,89.943"/>
		<path fill="#E0E0E0" d="M192.104,52.319c0,1.988-1.784,3.599-3.984,3.599c-2.202,0-3.986-1.611-3.986-3.599
			c0-1.987,1.784-3.599,3.986-3.599C190.32,48.72,192.104,50.331,192.104,52.319"/>
		<path fill="#FAFAFA" d="M138.508,51.781c-12.594,17.882-11.771,42.672,1.991,59.84c9.172,11.444,22.933,19.113,33.856,29.226
			c10.925,10.111,19.225,25.016,13.458,38.146c-5.87,13.368-23.063,18.806-35.938,27.272c-14.024,9.223-23.874,23.469-26.895,38.895
			c-3.018,15.424,0.831,31.854,10.51,44.854h133.74c0,0,23.492-40.416-6.713-71.218c-30.207-30.799-46.428-31.305-45.309-51.502
			c1.117-20.197,16.781-26.762,25.729-34.336c8.949-7.573,52.58-25.245,26.852-81.178L138.508,51.781L138.508,51.781z"/>
		<path fill="#ADB1B2" d="M138.508,51.782c0,0,0.776-0.011,2.303-0.017c1.531-0.003,3.803-0.01,6.779-0.016
			c5.97-0.007,14.767-0.02,26.099-0.035c22.688-0.015,55.516-0.035,96.104-0.063h0.098l0.035,0.08
			c1.828,4.189,3.676,8.502,4.984,13.073c1.346,4.55,2.449,9.292,2.842,14.206c0.408,4.903,0.23,9.966-0.852,14.995
			c-1.113,5.015-3.105,9.982-6.045,14.576c-1.461,2.304-3.18,4.488-5.037,6.599c-1.879,2.097-3.959,4.067-6.158,5.949
			c-2.207,1.881-4.559,3.65-6.994,5.344c-2.438,1.699-4.975,3.306-7.455,5.002c-1.24,0.846-2.377,1.794-3.561,2.746
			c-1.188,0.931-2.414,1.832-3.65,2.723c-2.471,1.783-4.971,3.567-7.322,5.521c-4.758,3.842-8.775,8.639-10.984,14.221
			c-1.07,2.787-1.842,5.707-2.092,8.693c-0.066,0.745-0.178,1.491-0.209,2.241c-0.016,0.749-0.063,1.502-0.021,2.255
			c0.01,1.504,0.195,3.008,0.502,4.489c0.627,2.967,2.008,5.808,4.016,8.271c1.975,2.483,4.412,4.675,6.938,6.777
			c5.076,4.188,10.463,8.19,15.619,12.51c5.186,4.297,10.223,8.827,15.068,13.597c2.404,2.391,4.854,4.795,6.955,7.463
			c2.174,2.621,4,5.479,5.605,8.438c3.164,5.947,5.117,12.474,5.76,19.146c0.688,6.675,0.162,13.473-1.305,20.125
			c-0.723,3.332-1.688,6.629-2.865,9.873c-1.186,3.246-2.55,6.444-4.248,9.535l-0.057,0.101h-0.125h-3.443
			c-45.652-0.003-89.704-0.007-130.296-0.009h-0.104l-0.058-0.078c-6.371-8.637-10.155-18.557-11.198-28.496
			c-1.109-9.941,0.586-19.914,4.626-28.766c3.988-8.882,10.188-16.673,17.679-22.793c3.734-3.086,7.898-5.609,12.069-7.947
			c4.177-2.34,8.387-4.506,12.369-6.871c3.963-2.373,7.783-4.9,10.886-7.994c3.112-3.064,5.49-6.669,6.736-10.54
			c1.25-3.876,1.263-7.94,0.528-11.767c-0.74-3.84-2.236-7.474-4.133-10.814c-1.898-3.351-4.204-6.426-6.73-9.23
			c-2.521-2.816-5.323-5.315-8.146-7.673c-5.662-4.704-11.455-8.819-16.67-13.047c-2.613-2.11-5.088-4.239-7.366-6.428
			c-2.261-2.2-4.326-4.456-6.104-6.793c-3.582-4.663-6.038-9.575-7.651-14.317c-1.617-4.748-2.42-9.337-2.604-13.56
			c-0.11-1.054-0.066-2.088-0.064-3.097c0.016-1.01-0.02-1.997,0.099-2.955c0.08-0.958,0.159-1.893,0.237-2.802
			c0.121-0.906,0.285-1.782,0.421-2.637c1.18-6.839,3.466-11.835,5.246-15.034c0.428-0.813,0.804-1.527,1.209-2.106
			c0.383-0.586,0.702-1.081,0.961-1.478C138.243,52.176,138.508,51.782,138.508,51.782c-0.055,0.088-0.272,0.435-0.758,1.209
			c-0.253,0.398-0.566,0.892-0.941,1.48c-0.396,0.576-0.77,1.292-1.188,2.106c-1.762,3.204-4.021,8.199-5.178,15.026
			c-0.132,0.854-0.295,1.728-0.413,2.631c-0.072,0.909-0.15,1.841-0.229,2.798c-0.113,0.953-0.077,1.939-0.089,2.947
			c0,1.006-0.041,2.037,0.071,3.089c0.191,4.211,1.005,8.787,2.625,13.516c1.616,4.725,4.073,9.616,7.647,14.255
			c1.772,2.326,3.836,4.572,6.095,6.763c2.275,2.181,4.748,4.303,7.359,6.407c5.213,4.214,11.012,8.323,16.69,13.031
			c2.826,2.361,5.646,4.864,8.182,7.692c2.541,2.814,4.859,5.902,6.771,9.271c1.909,3.36,3.423,7.017,4.174,10.888
			c0.74,3.859,0.733,7.969-0.527,11.892c-1.256,3.919-3.662,7.565-6.8,10.661c-3.127,3.123-6.967,5.668-10.94,8.048
			c-3.992,2.378-8.204,4.544-12.371,6.883c-4.164,2.336-8.303,4.851-12.016,7.92c-7.447,6.095-13.611,13.849-17.574,22.685
			c-4.015,8.807-5.695,18.719-4.588,28.605c1.042,9.889,4.808,19.751,11.145,28.333l-0.16-0.077
			c40.593-0.002,84.644-0.006,130.296-0.009h3.443l-0.182,0.101c1.678-3.055,3.045-6.252,4.221-9.479
			c1.178-3.23,2.133-6.518,2.855-9.829c1.461-6.627,1.982-13.388,1.297-20.021c-0.635-6.631-2.576-13.111-5.717-19.021
			c-1.596-2.938-3.406-5.78-5.566-8.383c-2.088-2.647-4.52-5.043-6.926-7.436c-4.842-4.758-9.865-9.287-15.041-13.576
			c-5.15-4.313-10.527-8.31-15.619-12.514c-2.529-2.115-4.984-4.314-6.986-6.834c-2.029-2.496-3.438-5.396-4.074-8.406
			c-0.311-1.508-0.496-3.031-0.508-4.553c-0.041-0.761,0.01-1.518,0.023-2.273c0.033-0.758,0.145-1.51,0.211-2.26
			c0.254-3.015,1.031-5.961,2.115-8.774c2.234-5.643,6.305-10.492,11.092-14.354c2.369-1.96,4.875-3.75,7.344-5.531
			c1.236-0.89,2.457-1.788,3.643-2.713c1.162-0.935,2.33-1.907,3.578-2.757c2.492-1.702,5.027-3.304,7.459-4.996
			c2.434-1.688,4.771-3.452,6.969-5.32c2.191-1.873,4.264-3.832,6.135-5.917c1.846-2.096,3.557-4.269,5.01-6.556
			c2.926-4.563,4.902-9.497,6.02-14.479c1.078-4.997,1.26-10.034,0.854-14.916c-0.385-4.892-1.48-9.617-2.818-14.155
			c-1.303-4.559-3.143-8.863-4.959-13.044l0.135,0.081c-40.564-0.027-73.375-0.049-96.046-0.063
			c-11.342-0.015-20.146-0.026-26.118-0.034c-2.986-0.007-5.263-0.013-6.798-0.017C139.299,51.793,138.508,51.782,138.508,51.782"/>
		<path fill="#0099CC" d="M264.455,84.576c19.697,2.923-11.359,34.416-28.939,46.841c-10.18,7.195-21.111,14.998-25.945,25.821
			c-5.483,12.279-1.42,26.084-4.076,38.438c-0.441,2.051-3.802,1.729-3.769-0.361c0.132-8.107-0.105-16.213-1.597-24.195
			c-2.11-11.317-6.935-22.521-15.726-30.82c-7.177-6.772-16.586-11.273-24.239-17.605c-11.176-9.244-22.654-21.167-23.773-34.813
			c0,0,21.457-15.601,33.366-13.632c13.919,2.302,27.623,21.688,49.19,19.469C234.006,92.165,241.607,81.186,264.455,84.576"/>
		<path fill="#0099CC" d="M266.203,253.133c-0.496-4.443-1.813-9.479-6.184-11.576c-2.646-1.271-5.873-1.129-8.771-0.44
			c-2.9,0.69-5.627,1.881-8.502,2.649c-5.658,1.517-11.854,1.34-17.396-0.496c-5.342-1.771-9.932-4.978-14.895-7.494
			c-4.962-2.52-10.771-4.396-16.295-3.152c-9.527,2.138-14.484,12.492-23.904,14.991c-4.188,1.11-8.683,0.489-12.938-0.384
			c-4.256-0.871-8.525-1.985-12.888-1.842c-3.417,0.117-6.973,1.185-9.367,3.297l0.025-0.028c-0.025,0.021-0.046,0.044-0.069,0.065
			c-0.395,0.354-0.756,0.733-1.08,1.145c-2.921,3.517-3.389,8.242-2.487,12.535c1.005,4.807,3.491,9.25,6.161,13.508
			c3.146,5.015,6.719,10.006,11.915,13.349c6.413,4.125,14.479,1.277,22.329,1.841c18.312,1.303,38.012,2.19,56.323,0.91
			c9.672-0.678,18.74,0.27,26.416-5.088c5.402-3.77,8.912-9.449,10.607-15.419C266.898,265.531,266.891,259.264,266.203,253.133"/>
		<path fill="#455A64" d="M125.676,295.496c0,0-0.367-5.541,7.638-8.625h140.67c0,0,7.338,3.354,8.238,8.509L125.676,295.496z"/>
		<path fill="#455A64" d="M271.004,52.457c-0.074,0.031-0.148,0.063-0.225,0.092L138.508,51.78c0,0-0.469-0.271-1.173-0.768
			c-3.771-2.661-1.653-8.125,3.131-8.091l128.381,0.936C274.145,43.897,275.795,50.412,271.004,52.457"/>
		<g opacity="0.24">
			<g>
				<g>
					<g>
						<defs>
							<rect id="SVGID_3_" x="162.194" y="96.507" width="87.683" height="24.938"/>
						</defs>
						<clipPath id="SVGID_4_">
							<use xlink:href="#SVGID_3_"  overflow="visible"/>
						</clipPath>
						<path clip-path="url(#SVGID_4_)" d="M249.832,98.003c0.268,0.459-0.727,1.456-2.621,2.976
							c-1.904,1.52-4.682,3.605-8.211,6.175c-3.549,2.549-7.852,5.619-13.324,8.484c-2.744,1.433-5.799,2.731-9.139,3.787
							c-1.682,0.509-3.42,0.981-5.252,1.311c-1.818,0.353-3.721,0.586-5.674,0.667c-3.896,0.202-7.856-0.313-11.402-1.406
							c-3.526-1.104-6.533-2.661-9.163-4.223c-2.636-1.578-4.909-3.136-7.051-4.628c-2.136-1.494-4.079-2.935-5.817-4.289
							c-6.947-5.435-10.601-9.432-9.897-10.202c0.729-0.802,5.646,1.74,13.313,5.992c1.915,1.062,4.01,2.223,6.26,3.47
							c2.247,1.236,4.664,2.599,7.127,3.859c2.475,1.262,5.054,2.408,7.729,3.151c2.654,0.718,5.491,1.057,8.506,0.905
							c6.022-0.277,11.872-2.192,16.936-4.399c5.094-2.249,9.646-4.794,13.615-6.801c3.967-2.029,7.359-3.53,9.83-4.326
							C248.066,97.704,249.578,97.56,249.832,98.003"/>
					</g>
				</g>
			</g>
		</g>
		<path fill="#25CCF7" d="M201.825,210.477c1.45-0.461,3.188,0.855,2.931,2.229c-0.256,1.368-2.374,2.103-3.577,1.235
			c-1.204-0.866-0.888-2.895,0.534-3.428"/>
		<g opacity="0.24">
			<g>
				<g>
					<g>
						<defs>
							<rect id="SVGID_5_" x="174.203" y="256.157" width="47.182" height="6.021"/>
						</defs>
						<clipPath id="SVGID_6_">
							<use xlink:href="#SVGID_5_"  overflow="visible"/>
						</clipPath>
						<path clip-path="url(#SVGID_6_)" d="M174.203,258.492c3.719-2.592,8.941-1.961,13.541-1.092
							c4.597,0.873,9.229,2.293,13.88,1.705c3.508-0.442,6.724-2.002,10.185-2.679c3.461-0.676,7.658-0.177,9.576,2.513
							C206.162,263.407,189.319,263.248,174.203,258.492"/>
					</g>
				</g>
			</g>
		</g>
	</g>
	<path fill="#2CDDD4" d="M315.117,222.943l-19.688-22.039l-0.199,26.791l5.928,17.186l-58.889,10.215l-2.498-46.463l-4.236-35.683
		c-0.521-4.374,1.975-8.548,6.07-10.16l16.205-6.382l22.822,4.188l9.184,3.49c3.854,1.465,7.289,3.854,10.004,6.961l27.643,31.605"
		/>
	<path fill="#499E9C" d="M295.773,226.555c0.139-0.002,0.172-9.281,0.08-20.729c-0.096-11.449-0.283-20.729-0.42-20.729
		c-0.139,0.002-0.174,9.283-0.078,20.731C295.447,217.275,295.635,226.555,295.773,226.555"/>
	<path fill="#2CDDD4" d="M293.615,233.366l-35.58-14.324c-2.869-1.155-4.836-3.839-5.07-6.923l-2.604-34.113
		c0,0,0.309-14.51-8.754-15.216l-5.158,2.03c-6.66,3.539-8.313,13.24-7.404,20.729c1.291,10.645,1.826,25.705,3.27,34.941
		c1.182,7.557,5.506,14.201,12.902,16.148l43.824,9.484L293.615,233.366z"/>
	<path fill="#499E9C" d="M250.871,183.209c0.016-0.002,0.055,0.268,0.109,0.781c0.059,0.557,0.133,1.305,0.229,2.248
		c0.18,1.998,0.438,4.813,0.752,8.272c0.301,3.507,0.66,7.662,1.055,12.272c0.1,1.154,0.195,2.34,0.299,3.549
		c0.105,1.208,0.182,2.447,0.453,3.648c0.262,1.205,0.842,2.338,1.771,3.197c0.922,0.861,2.078,1.496,3.281,2.041
		c9.813,4.246,18.854,7.752,25.42,10.209c3.258,1.201,5.906,2.18,7.789,2.871c0.893,0.328,1.598,0.59,2.121,0.782
		c0.482,0.183,0.732,0.286,0.729,0.304c-0.004,0.014-0.268-0.061-0.76-0.213c-0.529-0.173-1.248-0.404-2.148-0.697
		c-1.861-0.615-4.547-1.543-7.848-2.729c-6.604-2.38-15.658-5.833-25.498-10.094c-1.225-0.557-2.426-1.207-3.41-2.131
		c-0.996-0.92-1.635-2.176-1.898-3.436c-0.284-1.264-0.352-2.511-0.453-3.716c-0.098-1.21-0.188-2.396-0.279-3.552
		c-0.359-4.614-0.684-8.771-0.953-12.283c-0.252-3.465-0.457-6.284-0.604-8.287c-0.061-0.945-0.104-1.695-0.141-2.254
		C250.859,183.482,250.854,183.21,250.871,183.209"/>
	<path fill="#499E9C" d="M245.699,225.626c-0.051-0.015,0.104-0.774,0.646-1.896c0.539-1.121,1.535-2.567,2.986-3.813
		c1.457-1.237,3.043-1.995,4.229-2.353c1.193-0.364,1.969-0.396,1.979-0.344c0.014,0.077-0.732,0.228-1.863,0.659
		c-1.133,0.429-2.629,1.204-4.035,2.397c-1.396,1.199-2.396,2.558-2.998,3.607C246.039,224.938,245.777,225.652,245.699,225.626"/>
	<path fill="#455A64" d="M345.217,279.438c0,0,29.771,8.242,30.967,8.662c1.793,0.631,1.492,7.2-1.299,7.099
		c-1.32-0.048-22.869,0.803-25.592,0.635c-2.725-0.172-10.938-3.409-10.938-3.409L345.217,279.438z"/>
	<path fill="#455A64" d="M315.426,271.219c0,0-23.307,18.266-24.141,19.021c-1.258,1.135,0.184,6.537,2.357,5.603
		c1.027-0.44,20.584-6.954,22.688-7.934s7.766-6.502,7.766-6.502L315.426,271.219z"/>
	<path fill="#263238" d="M307.781,283.523c0.117-0.047-0.43-1.461-1.719-2.771c-1.283-1.317-2.686-1.896-2.732-1.774
		c-0.07,0.129,1.161,0.869,2.377,2.125C306.934,282.344,307.648,283.592,307.781,283.523"/>
	<path fill="#263238" d="M310.316,281.896c0.129,0.004-0.012-1.61-1.23-3.101c-1.201-1.5-2.754-1.972-2.777-1.846
		c-0.063,0.134,1.285,0.771,2.392,2.159C309.828,280.482,310.172,281.934,310.316,281.896"/>
	<path fill="#263238" d="M308.646,278.393c0.074-0.035-0.313-0.797-0.639-2.107c-0.16-0.653-0.295-1.446-0.332-2.333
		c-0.02-0.443-0.008-0.908,0.031-1.39c0.016-0.23,0.059-0.461,0.152-0.594c0.092-0.129,0.213-0.158,0.387-0.09
		c0.32,0.129,0.486,0.676,0.641,1.105c0.143,0.451,0.234,0.904,0.275,1.341c0.088,0.875,0.021,1.679-0.07,2.345
		c-0.199,1.34-0.463,2.15-0.383,2.176c0.051,0.021,0.436-0.754,0.729-2.113c0.145-0.68,0.248-1.516,0.184-2.445
		c-0.033-0.467-0.117-0.955-0.27-1.444c-0.072-0.248-0.162-0.483-0.273-0.737c-0.115-0.244-0.303-0.537-0.635-0.683
		c-0.305-0.164-0.801-0.058-0.988,0.265c-0.191,0.293-0.211,0.586-0.232,0.84c-0.035,0.502-0.035,0.988-0.004,1.451
		c0.066,0.924,0.242,1.739,0.451,2.402C308.096,277.711,308.6,278.424,308.646,278.393"/>
	<path fill="#263238" d="M308.59,278.094c0.035,0.072,0.695-0.263,1.83-0.539c0.564-0.133,1.252-0.25,2.018-0.273
		c0.383-0.006,0.793-0.02,1.156,0.07c0.371,0.088,0.654,0.315,0.674,0.658c0.025,0.354-0.172,0.695-0.475,0.896
		c-0.307,0.207-0.686,0.308-1.049,0.351c-0.734,0.086-1.422-0.052-1.979-0.196c-1.121-0.324-1.807-0.619-1.838-0.543
		c-0.021,0.051,0.596,0.455,1.734,0.877c0.566,0.199,1.297,0.39,2.131,0.319c0.41-0.036,0.859-0.134,1.271-0.403
		c0.412-0.258,0.746-0.771,0.701-1.336c-0.025-0.609-0.604-1.021-1.055-1.095c-0.473-0.104-0.896-0.073-1.295-0.058
		c-0.805,0.05-1.52,0.21-2.094,0.396C309.168,277.594,308.561,278.047,308.59,278.094"/>
	<path fill="#263238" d="M372.162,226.232c0,0,8.449,3.02,8.482,12.494c0.068,18.151-36.676,38.159-36.676,38.159l-48.898-32.396
		l-3.064-1.241C292.006,243.249,358.016,218.453,372.162,226.232"/>
	<path fill="#455A64" d="M319.842,260.854c0.021,0.027,0.475-0.28,1.273-0.862c0.803-0.581,1.943-1.441,3.346-2.525
		c2.799-2.164,6.605-5.231,10.707-8.745c4.098-3.521,7.705-6.824,10.268-9.266c1.279-1.221,2.309-2.221,3-2.923
		c0.699-0.704,1.072-1.104,1.049-1.13c-0.023-0.024-0.441,0.33-1.18,0.988c-0.799,0.721-1.848,1.666-3.109,2.807
		c-2.619,2.371-6.26,5.627-10.354,9.144c-4.092,3.513-7.859,6.615-10.602,8.851c-1.316,1.074-2.408,1.968-3.242,2.647
		C320.234,260.465,319.82,260.826,319.842,260.854"/>
	<path fill="#455A64" d="M358.357,233.018c0.021-0.121-2.164-0.334-4.711,0.43c-2.557,0.742-4.271,2.105-4.189,2.197
		c0.082,0.131,1.863-1.006,4.332-1.721C356.244,233.186,358.359,233.172,358.357,233.018"/>
	<path fill="#455A64" d="M354.146,230.157c-0.045-0.119-1.611,0.569-2.898,2.181c-1.305,1.6-1.646,3.275-1.521,3.293
		c0.145,0.049,0.676-1.475,1.908-2.979C352.846,231.129,354.223,230.286,354.146,230.157"/>
	<polygon fill="#455A64" points="360.914,196.578 343.498,240.727 268.508,241.948 267.121,237.891 293.402,236.936 
		306.033,197.773 	"/>
	<path fill="#EBEBEB" d="M325.895,215.689c0.963-0.652,2.74-0.392,3.605,0.386c0.863,0.776,1.146,2.118,0.707,3.194
		c-0.441,1.076-1.553,1.83-2.709,1.893c-1.234,0.066-2.521-0.706-2.865-1.893C324.289,218.085,324.672,216.316,325.895,215.689"/>
	<path fill="#263238" d="M348.602,279.094c0,0-69.088-45.316-71.918-46.259c-2.828-0.944-9.664-5.424-16.5-3.536
		c-6.838,1.885-12.967,8.016-16.033,16.975c-1.75,5.115-2.574,13.85-2.965,20.396c-0.465,7.831,1.961,15.639,7.08,21.578
		c2.332,2.703,5.207,5.054,8.615,6.113c0.719,0.226,1.467,0.42,2.232,0.586c13.063,2.831,26.486-3.032,33.824-14.202l1.613-2.455
		c0,0,45.193,16.604,45.902,16.369L348.602,279.094z"/>
	<path fill="#455A64" d="M263.129,266.62c0,0,0.125,0.063,0.379,0.169c0.271,0.107,0.646,0.256,1.129,0.445
		c1.021,0.395,2.492,0.963,4.381,1.688c3.844,1.446,9.387,3.535,16.279,6.132c6.912,2.579,15.195,5.646,24.488,9.026
		c9.293,3.378,19.592,7.087,30.59,10.812l0.199,0.066l0.098-0.188c1.729-3.299,3.551-6.776,5.396-10.31
		c0.943-1.801,1.881-3.587,2.752-5.257l0.105-0.201l-0.193-0.123c-20.742-13.168-39.305-24.951-52.697-33.453
		c-6.688-4.22-12.084-7.623-15.828-9.983c-1.855-1.158-3.301-2.06-4.301-2.685c-0.479-0.293-0.854-0.521-1.121-0.688
		c-0.254-0.152-0.395-0.219-0.395-0.219s0.119,0.094,0.365,0.261c0.264,0.174,0.627,0.416,1.098,0.728
		c0.99,0.643,2.416,1.567,4.25,2.758c3.729,2.396,9.096,5.844,15.748,10.117c13.371,8.535,31.9,20.361,52.611,33.582l-0.084-0.322
		c-0.873,1.67-1.813,3.455-2.752,5.256c-1.85,3.531-3.668,7.012-5.396,10.31l0.299-0.118c-10.992-3.715-21.297-7.404-30.6-10.756
		c-9.285-3.381-17.582-6.398-24.522-8.925c-6.913-2.537-12.476-4.576-16.327-5.99c-1.904-0.692-3.387-1.231-4.412-1.604
		c-0.49-0.172-0.869-0.307-1.146-0.404C263.264,266.654,263.129,266.62,263.129,266.62"/>
	<path fill="#25CCF7" d="M270.299,105.693c1.176-3.185,3.781-4.568,7.082-5.367c3.299-0.799,6.971,0.147,9.475,2.441
		c1.674,1.534,2.9,3.653,4.973,4.591c3.402,1.546,7.77-0.711,10.996,1.175c1.91,1.118,2.85,3.66,2.119,5.75
		c-0.727,2.091-3.039,3.501-5.229,3.19c2.219,1.05,2.635,4.389,1.104,6.311c-1.525,1.919-4.354,2.439-6.715,1.771
		c-2.359-0.667-4.32-2.316-5.989-4.115c-1.669-1.801-3.13-3.797-4.937-5.459s-4.061-3-6.512-3.09
		c-3.32-0.125-6.386,2.106-8.127,4.936c-1.742,2.828-2.395,6.183-2.877,9.468c-0.486,3.285-0.854,6.64-2.121,9.711
		c-0.148,0.36-0.361,0.76-0.742,0.84c-0.553,0.115-0.955-0.495-1.178-1.014c-2.496-5.852-3.83-12.198-3.898-18.561
		c-0.039-3.695,0.375-7.153,2.67-10.05C262.689,105.323,267.98,103.519,270.299,105.693"/>
	
		<linearGradient id="SVGID_7_" gradientUnits="userSpaceOnUse" x1="99.1838" y1="421.4268" x2="136.7449" y2="421.4268" gradientTransform="matrix(1 0 0 1 158.1396 -284.2588)">
		<stop  offset="0" style="stop-color:#FD9F9F"/>
		<stop  offset="0.0051" style="stop-color:#FD9F9F"/>
		<stop  offset="1" style="stop-color:#FDD7D7"/>
	</linearGradient>
	<path fill="url(#SVGID_7_)" d="M262.508,120.439l-5.08,36.907c-0.861,6.276,3.701,11.997,10.012,12.551
		c5.895,0.518,11.15-3.688,11.949-9.545c0.381-2.778,0.701-5.097,0.76-5.379c0,0,9.52,0.41,11.479-8.797
		c0.943-4.449,2.146-13.771,3.137-22.216c1.064-9.07-5.027-17.436-13.981-19.225l-0.892-0.178
		C270.176,103.2,263.596,110.691,262.508,120.439"/>
	<path fill="#C97D7D" d="M280.189,154.844c0,0-5.926-0.69-11.348-5.824c0,0,1.518,7.212,10.893,8.221L280.189,154.844z"/>
	<path fill="#C97D7D" d="M280.928,137.118c0.01-0.081,0.922-0.058,2.385,0.046c0.371,0.034,0.729,0.03,0.838-0.204
		c0.141-0.244,0.064-0.665-0.023-1.121c-0.168-0.945-0.338-1.936-0.521-2.972c-0.703-4.224-1.133-7.669-0.963-7.694
		c0.17-0.027,0.877,3.375,1.58,7.598c0.164,1.039,0.324,2.03,0.473,2.979c0.057,0.439,0.197,0.954-0.096,1.461
		c-0.152,0.25-0.457,0.394-0.703,0.408c-0.246,0.025-0.449-0.011-0.631-0.037C281.811,137.371,280.916,137.2,280.928,137.118"/>
	<path fill="#C97D7D" d="M276.559,137.264c0.232,0.033-0.072,1.574,1.027,2.929c1.096,1.357,2.771,1.514,2.742,1.732
		c0,0.101-0.43,0.227-1.123,0.106c-0.688-0.112-1.637-0.53-2.307-1.359c-0.67-0.831-0.838-1.793-0.764-2.437
		C276.205,137.582,276.455,137.237,276.559,137.264"/>
	<path fill="#FD9F9F" d="M261.896,127.424c-0.145-0.099-5.967-3.143-7.025,3.207c-1.061,6.349,5.533,6.104,5.574,5.923
		C260.486,136.373,261.896,127.424,261.896,127.424"/>
	<path fill="#C97D7D" d="M258.908,133.825c-0.025-0.024-0.125,0.059-0.326,0.113c-0.195,0.053-0.521,0.058-0.828-0.121
		c-0.631-0.358-1.02-1.518-0.857-2.667c0.08-0.58,0.291-1.11,0.574-1.532c0.271-0.432,0.625-0.707,0.973-0.71
		c0.352-0.021,0.557,0.22,0.604,0.412c0.057,0.191-0.006,0.312,0.025,0.329c0.016,0.018,0.154-0.084,0.146-0.355
		c-0.006-0.131-0.055-0.292-0.184-0.438c-0.135-0.151-0.348-0.251-0.586-0.265c-0.494-0.047-1.012,0.329-1.318,0.792
		c-0.338,0.461-0.59,1.053-0.68,1.705c-0.174,1.286,0.279,2.594,1.154,3.013c0.43,0.191,0.822,0.118,1.041,0
		C258.871,133.975,258.926,133.841,258.908,133.825"/>
	<path fill="#25CCF7" d="M297.1,122.433c-4.281,0.271-8.643-1.672-11.307-5.033c-1.865-2.352-3.051-5.434-5.691-6.862
		c-1.775-0.961-3.963-0.971-5.889-0.359c-1.928,0.611-3.623,1.794-5.146,3.125c0.85,5.046-1.396,10.041-3.584,14.668
		c-0.24,0.511-0.518,1.059-1.023,1.308c-0.861,0.426-1.891-0.245-2.404-1.058c-0.822-1.297-0.92-2.918-0.889-4.455
		c0.066-3.502,0.684-7.022,2.104-10.222c1.422-3.201,3.684-6.072,6.641-7.948c3.691-2.347,8.35-3.016,12.627-2.092
		c4.277,0.924,8.164,3.375,11.07,6.646c1.35,1.519,2.521,3.259,2.98,5.237"/>
	<g>
		<path fill="#FAFAFA" d="M113.833,251.043c0.179,0,0.324,1.441,0.324,3.223c0,1.779-0.146,3.221-0.324,3.221
			c-0.18,0-0.323-1.438-0.323-3.221C113.509,252.484,113.654,251.043,113.833,251.043"/>
		<path fill="#455A64" d="M81.502,271.335c-0.008-0.004,0.046-0.134,0.16-0.386c0.128-0.271,0.299-0.639,0.518-1.104
			c0.439-0.977,1.012-2.453,1.522-4.421c1.007-3.932,1.355-9.938-0.132-17.071c-0.689-3.571-1.807-7.403-3.166-11.468
			c-1.342-4.067-2.896-8.386-4.169-13.055c-1.257-4.654-2.249-9.711-2.059-15.011c0.194-5.309,1.766-10.606,3.494-15.885
			c1.725-5.283,3.509-10.444,4.044-15.644c0.604-5.187-0.506-10.274-2.868-14.446c-2.288-4.215-5.167-7.819-7.321-11.556
			c-2.188-3.721-3.557-7.549-4.398-11.108c-1.634-7.176-1.063-13.224-0.278-17.209c0.85-4.006,1.796-6.079,1.796-6.079
			c0.008,0.004-0.025,0.141-0.105,0.403c-0.092,0.29-0.209,0.676-0.363,1.167c-0.316,1.022-0.726,2.553-1.115,4.549
			c-0.716,3.977-1.222,9.982,0.446,17.08c0.859,3.521,2.234,7.297,4.414,10.967c2.148,3.69,5.042,7.281,7.374,11.547
			c2.413,4.217,3.572,9.473,2.958,14.742c-0.538,5.278-2.336,10.479-4.058,15.756c-1.729,5.271-3.28,10.516-3.479,15.733
			c-0.196,5.22,0.771,10.226,2.008,14.856c1.252,4.646,2.789,8.966,4.112,13.046c1.345,4.075,2.442,7.938,3.115,11.534
			c1.447,7.188,1.034,13.254-0.043,17.197c-0.548,1.976-1.155,3.449-1.632,4.414c-0.237,0.457-0.427,0.814-0.566,1.084
			C81.581,271.219,81.51,271.34,81.502,271.335"/>
		<path fill="#2CDDD4" d="M74.454,154.977c0,0-4.374-13.987,3.473-22.179c0.276-0.287,0.761-0.151,0.832,0.24
			C79.177,135.348,79.701,142.387,74.454,154.977"/>
		<path fill="#455A64" d="M77.075,137.46c0.072,0.015-0.053,1-0.297,2.58c-0.285,1.779-0.624,3.865-0.996,6.171
			c-0.366,2.307-0.696,4.393-0.979,6.168c-0.24,1.582-0.383,2.562-0.464,2.555c-0.07-0.006-0.063-1,0.079-2.601
			c0.144-1.599,0.427-3.798,0.823-6.21c0.394-2.415,0.813-4.589,1.155-6.154C76.739,138.404,77,137.444,77.075,137.46"/>
		<path fill="#2CDDD4" d="M79.592,187.971c0,0,2.677-14.412,13.442-17.98c0.378-0.124,0.741,0.224,0.62,0.603
			C92.948,172.83,90.12,179.295,79.592,187.971"/>
		<path fill="#455A64" d="M90.102,173.711c0.061,0.049-0.513,0.859-1.467,2.146c-1.086,1.435-2.36,3.123-3.769,4.985
			c-1.401,1.866-2.672,3.556-3.753,4.994c-0.949,1.284-1.533,2.084-1.604,2.04c-0.06-0.038,0.412-0.913,1.285-2.262
			c0.876-1.344,2.152-3.157,3.632-5.104c1.479-1.946,2.866-3.674,3.902-4.896C89.366,174.389,90.043,173.664,90.102,173.711"/>
		<path fill="#2CDDD4" d="M76.683,224.122c0,0-1.625-14.565,7.64-21.108c0.325-0.229,0.776-0.004,0.771,0.396
			C85.065,205.756,84.237,212.762,76.683,224.122"/>
		<path fill="#455A64" d="M82.598,207.426c0.07,0.029-0.24,0.973-0.78,2.479c-0.623,1.689-1.353,3.675-2.155,5.865
			c-0.803,2.193-1.523,4.181-2.142,5.871c-0.536,1.504-0.862,2.438-0.939,2.418c-0.068-0.021,0.129-0.994,0.571-2.539
			c0.447-1.539,1.145-3.645,1.992-5.938c0.85-2.293,1.676-4.347,2.313-5.815C82.089,208.289,82.529,207.398,82.598,207.426"/>
		<path fill="#2CDDD4" d="M84.793,260.484c0,0-1.104-14.613,8.392-20.819c0.333-0.22,0.775,0.022,0.756,0.423
			C93.828,242.43,92.749,249.402,84.793,260.484"/>
		<path fill="#455A64" d="M91.303,244.012c0.068,0.031-0.275,0.963-0.87,2.449c-0.682,1.666-1.48,3.623-2.366,5.784
			c-0.877,2.164-1.671,4.122-2.347,5.789c-0.591,1.483-0.951,2.407-1.028,2.383c-0.065-0.021,0.165-0.989,0.664-2.517
			c0.501-1.523,1.273-3.604,2.205-5.864c0.931-2.261,1.83-4.282,2.519-5.731C90.765,244.857,91.234,243.98,91.303,244.012"/>
		<path fill="#2CDDD4" d="M68.167,142.688c0,0-12.992-6.785-13.247-18.125c-0.009-0.398,0.431-0.646,0.758-0.42
			C57.61,125.479,62.959,130.078,68.167,142.688"/>
		<path fill="#455A64" d="M57.619,128.457c0.063-0.042,0.671,0.743,1.616,2.032c1.058,1.459,2.294,3.172,3.662,5.065
			c1.374,1.888,2.617,3.596,3.679,5.05c0.946,1.287,1.54,2.08,1.479,2.132c-0.053,0.047-0.752-0.661-1.784-1.892
			c-1.027-1.231-2.387-2.984-3.813-4.971c-1.432-1.984-2.67-3.816-3.537-5.165C58.052,129.359,57.555,128.5,57.619,128.457"/>
		<path fill="#2CDDD4" d="M82.119,172.729c0,0-13.383-5.981-14.323-17.286c-0.034-0.396,0.39-0.671,0.729-0.466
			C70.534,156.193,76.155,160.46,82.119,172.729"/>
		<path fill="#455A64" d="M70.724,159.167c0.063-0.047,0.715,0.7,1.739,1.931c1.143,1.394,2.48,3.025,3.963,4.832
			c1.486,1.803,2.83,3.432,3.975,4.817c1.026,1.228,1.665,1.981,1.607,2.039c-0.05,0.049-0.791-0.614-1.896-1.78
			c-1.103-1.166-2.563-2.834-4.108-4.729c-1.548-1.896-2.898-3.647-3.847-4.942C71.21,160.042,70.664,159.215,70.724,159.167"/>
		<path fill="#2CDDD4" d="M74.419,206.24c0,0-9.188-11.422-4.878-21.914c0.149-0.368,0.65-0.419,0.859-0.079
			C71.638,186.243,74.699,192.602,74.419,206.24"/>
		<path fill="#455A64" d="M70.453,188.977c0.073-0.014,0.316,0.947,0.67,2.51c0.383,1.761,0.831,3.826,1.327,6.109
			c0.502,2.277,0.954,4.342,1.345,6.1c0.354,1.56,0.579,2.521,0.502,2.548c-0.067,0.021-0.425-0.909-0.877-2.451
			c-0.451-1.54-0.992-3.688-1.506-6.081c-0.517-2.391-0.917-4.566-1.172-6.148C70.488,189.977,70.377,188.991,70.453,188.977"/>
		<path fill="#2CDDD4" d="M83.519,245.676c0,0-13.275-6.207-14.03-17.525c-0.024-0.396,0.4-0.661,0.738-0.451
			C72.215,228.945,77.762,233.307,83.519,245.676"/>
		<path fill="#455A64" d="M72.355,231.924c0.063-0.045,0.703,0.711,1.706,1.959c1.118,1.41,2.434,3.066,3.882,4.896
			c1.455,1.824,2.772,3.479,3.896,4.886c1.005,1.242,1.631,2.009,1.572,2.063c-0.054,0.049-0.782-0.629-1.866-1.813
			c-1.083-1.185-2.518-2.875-4.03-4.797c-1.516-1.919-2.836-3.697-3.761-5.007C72.827,232.807,72.294,231.969,72.355,231.924"/>
		<path fill="#455A64" d="M109.965,188.049c0.014,0.002,0.019,0.11,0.018,0.324c-0.007,0.256-0.014,0.563-0.021,0.936
			c-0.039,0.885-0.092,2.07-0.157,3.557c-0.172,3.124-0.409,7.479-0.695,12.689v0.014l-0.004,0.021
			c-0.947,5.302-3.647,11.181-7.274,16.888c-2.662,4.207-5.452,8.026-7.858,11.582c-2.421,3.545-4.466,6.83-5.891,9.737
			c-1.437,2.904-2.271,5.401-2.755,7.146c-0.234,0.877-0.409,1.56-0.513,2.026c-0.107,0.464-0.175,0.707-0.192,0.703
			c-0.021-0.003,0.012-0.25,0.086-0.726c0.064-0.477,0.209-1.17,0.411-2.061c0.428-1.771,1.212-4.31,2.613-7.261
			c1.394-2.956,3.416-6.282,5.82-9.853c2.39-3.58,5.164-7.408,7.812-11.59c3.609-5.683,6.298-11.472,7.28-16.688l-0.004,0.028
			c0.365-5.205,0.672-9.558,0.89-12.681c0.121-1.479,0.219-2.666,0.287-3.545c0.038-0.371,0.069-0.678,0.097-0.933
			C109.934,188.156,109.954,188.049,109.965,188.049"/>
		<path fill="#2AB5A8" d="M102.06,221.383c0,0,5.622-13.535-1.45-22.4c-0.248-0.313-0.741-0.223-0.85,0.162
			C99.133,201.407,97.975,208.368,102.06,221.383"/>
		<path fill="#455A64" d="M101.036,203.699c0.074-0.008,0.248,0.971,0.444,2.563c0.199,1.59,0.422,3.791,0.598,6.23
			c0.177,2.439,0.258,4.654,0.257,6.262c-0.003,1.604-0.085,2.598-0.156,2.596c-0.08,0-0.136-0.988-0.229-2.584
			c-0.121-1.795-0.265-3.902-0.418-6.232c-0.162-2.33-0.312-4.438-0.438-6.233C100.997,204.7,100.96,203.708,101.036,203.699"/>
		<path fill="#2AB5A8" d="M84.643,254.001c0,0,4.508-13.948-3.262-22.213c-0.272-0.289-0.759-0.157-0.834,0.233
			C80.107,234.328,79.516,241.357,84.643,254.001"/>
		<path fill="#455A64" d="M82.188,236.458c0.075-0.015,0.326,0.946,0.652,2.517c0.327,1.57,0.729,3.746,1.1,6.162
			c0.374,2.418,0.637,4.621,0.766,6.223c0.128,1.601,0.125,2.596,0.055,2.601c-0.081,0.004-0.215-0.978-0.438-2.558
			c-0.266-1.781-0.575-3.871-0.922-6.182c-0.352-2.309-0.668-4.397-0.938-6.18C82.23,237.458,82.114,236.473,82.188,236.458"/>
		<path fill="#2AB5A8" d="M109.221,204.842c0,0,12.008-8.404,10.796-19.683c-0.042-0.397-0.511-0.586-0.806-0.319
			C117.469,186.415,112.757,191.665,109.221,204.842"/>
		<path fill="#455A64" d="M117.844,189.368c0.068,0.034-0.312,0.952-0.997,2.399c-0.686,1.448-1.679,3.428-2.841,5.58
			c-1.159,2.152-2.279,4.066-3.144,5.422c-0.862,1.354-1.466,2.146-1.523,2.104c-0.066-0.043,0.417-0.905,1.19-2.305
			c0.862-1.579,1.874-3.434,2.992-5.481c1.113-2.055,2.12-3.912,2.979-5.494C117.275,190.191,117.777,189.336,117.844,189.368"/>
		<path fill="#2AB5A8" d="M89.485,240.174c0,0,14.482-2.258,18.361-12.918c0.136-0.373-0.2-0.748-0.583-0.639
			C105.005,227.262,98.462,229.902,89.485,240.174"/>
		<path fill="#455A64" d="M104.042,230.081c0.046,0.06-0.699,0.716-1.953,1.716c-1.253,1-3.019,2.338-5.008,3.758
			c-1.99,1.422-3.837,2.647-5.208,3.482s-2.263,1.281-2.297,1.219c-0.042-0.066,0.771-0.63,2.086-1.543
			c1.469-1.037,3.192-2.258,5.102-3.604c1.902-1.354,3.626-2.577,5.093-3.623C103.167,230.566,103.996,230.021,104.042,230.081"/>
		<polygon fill="#455A64" points="75.669,266.825 71.445,295.257 97.772,295.257 94.358,266.825 		"/>
	</g>
	<circle fill="#EBEBEB" cx="109.166" cy="124.057" r="5.434"/>
	<circle fill="#EBEBEB" cx="59.81" cy="67.909" r="7.871"/>
	<path fill="#DBDBDB" d="M402.485,301.479H39.517c-1.455,0-2.631-1.239-2.631-2.766s1.177-2.764,2.631-2.764h362.968
		c1.451,0,2.632,1.237,2.632,2.764C405.115,300.239,403.936,301.479,402.485,301.479"/>
</g>
<circle fill="#EBEBEB" cx="92.709" cy="-44.477" r="3.378"/>
</svg>
