<?xml version="1.0" encoding="utf-8"?>
<!-- Generator: Adobe Illustrator 15.0.0, SVG Export Plug-In . SVG Version: 6.00 Build 0)  -->
<!DOCTYPE svg PUBLIC "-//W3C//DTD SVG 1.1//EN" "http://www.w3.org/Graphics/SVG/1.1/DTD/svg11.dtd">
<svg version="1.1" id="Capa_1" xmlns="http://www.w3.org/2000/svg" xmlns:xlink="http://www.w3.org/1999/xlink" x="0px" y="0px"
	 width="442px" height="310px" viewBox="0 0 442 310" enable-background="new 0 0 442 310" xml:space="preserve">
<symbol  id="Nuevo_símbolo_1" viewBox="-99.538 -151.528 199.076 303.057">
	<g id="diverlingua_1_">
		<path fill="#FFFFFF" d="M22.576,32.744c0-9.704-6.661-17.83-15.664-20.087c-2.902,0.446-5.891,0.662-8.917,0.662
			c-1.057,0-2.095-0.018-3.133-0.071c-0.018,0-0.036,0-0.036,0c-23.774-1.199-43.97-15.88-53.099-36.558
			c-1.217-2.738-2.238-5.585-3.062-8.539c0.018-0.018,0-0.018-0.018-0.036c-3.652-5.781-10.116-9.631-17.492-9.631
			c-11.438,0-20.694,9.255-20.694,20.696c0,0.411,0.018,0.822,0.035,1.234c1.075,3.705,2.347,7.305,3.813,10.813
			c15.326,36.574,51.418,62.157,93.686,62.157c0.716,0,1.434,0,2.148-0.018c0,0,0,0,0.018,0c1.844-0.036,3.671-0.125,5.479-0.269
			C15.271,51.327,22.576,42.895,22.576,32.744z"/>
		<path fill="none" stroke="#1A161A" stroke-width="0.4652" stroke-miterlimit="10" d="M59.488-4.854"/>
		<path fill="#FFFFFF" d="M99.538,131.71V33.244c-2.112-9.022-10.131-15.735-19.745-15.735c-11.208,0-20.304,9.166-20.304,20.464
			v93.737c0,10.921,8.899,19.818,19.819,19.818C90.641,151.528,99.538,142.631,99.538,131.71z"/>
		<path fill="#FFFFFF" d="M79.793,4.799c-11.208,0-20.304-9.167-20.304-20.464v-34.301c0-33.998-27.515-61.514-61.494-61.514
			c-25.027,0-46.528,15.145-56.161,36.503v0.018c-1.556,3.492-2.81,7.144-3.704,10.94c0,0.017,0,0.017,0,0.017
			c-3.742,5.354-9.955,8.845-16.974,8.845c-11.438,0-20.694-9.274-20.694-20.714c0-1.127,0.089-2.22,0.25-3.295
			c0.018-0.017,0.018-0.035,0.018-0.035c0.645-2.148,1.343-4.261,2.132-6.355c0-0.018,0.017-0.035,0.017-0.054
			c14.431-38.401,51.488-65.918,95.117-65.918c55.819,0,101.543,45.724,101.543,101.563v39.027
			C97.426-1.916,89.407,4.799,79.793,4.799z"/>
	</g>
</symbol>
<path opacity="0.24" fill="#2CDDD4" enable-background="new    " d="M271.683,298.614c0,0-1.484-220.415-101.537-259.397
	C70.094,0.234-16.293,90.04,101.649,135.172c117.94,45.137-40.866,163.442-40.866,163.442H271.683z"/>
<path fill="#D7F9FF" d="M107.105,297.104c0,0-51.148-55.365,12.477-85.778c63.626-30.413,61.075-8.407,62.313-67.033
	c1.24-58.629,101.968-143.33,154.077-96.291c62.959,56.834-66.276,92.589-28.851,153.243c30.284,49.081,10.525,95.859,10.525,95.859
	H107.105z"/>
<g>
	<g>
		<path id="SVGID_1_" fill="#25CCF7" d="M287.836,117.275c-12.633,57.119,1.46,39.683,11.628,55.553
			c13.081,20.42-3.886,26.002,11.953,40.167c18.951,16.942,25.378,35.495,4.383,58.787c-17.196,19.073-44.01,21.318-81.032,25.716
			c-45.796-0.086-68.265-9.463-84.63-29.253c-19.986-24.167-12.771-42.428,6.886-58.547c16.43-13.476-0.285-19.776,13.657-39.62
			c10.836-15.421,24.171,2.6,13.984-55.006c-2.696-49.673,36.49-56.33,52.77-55.982C254.887,59.462,292.116,68.252,287.836,117.275"
			/>
	</g>
	<g>
		<defs>
			<path id="SVGID_2_" d="M287.836,117.275c-12.633,57.119,1.46,39.683,11.628,55.553c13.081,20.42-3.886,26.002,11.953,40.167
				c18.951,16.942,25.378,35.495,4.383,58.787c-17.196,19.073-44.01,21.318-81.032,25.716c-45.796-0.086-68.265-9.463-84.63-29.253
				c-19.986-24.167-12.771-42.428,6.886-58.547c16.43-13.476-0.285-19.776,13.657-39.62c10.836-15.421,24.171,2.6,13.984-55.006
				c-2.696-49.673,36.49-56.33,52.77-55.982C254.887,59.462,292.116,68.252,287.836,117.275"/>
		</defs>
		<clipPath id="SVGID_3_">
			<use xlink:href="#SVGID_2_"  overflow="visible"/>
		</clipPath>
		
			<rect x="131.57" y="59.063" transform="matrix(0.9998 0.0213 -0.0213 0.9998 3.8685 -4.9739)" clip-path="url(#SVGID_3_)" fill="#25CCF7" width="206.69" height="239.303"/>
	</g>
</g>
<g>
	<g>
		<defs>
			<path id="SVGID_4_" d="M262.611,217.711c26.288,17.941,53.295,52.788,53.295,52.788s-52.649,18.832-56.359,22.535
				c-3.716,3.702,46.647,5.412,73.313,2.848c26.663-2.563,19.364-16.235,19.364-16.235c-43.78-83.737-97.921-99.445-97.921-99.445
				S236.316,199.764,262.611,217.711"/>
		</defs>
		<clipPath id="SVGID_5_">
			<use xlink:href="#SVGID_4_"  overflow="visible"/>
		</clipPath>
		
			<linearGradient id="SVGID_6_" gradientUnits="userSpaceOnUse" x1="-260.4246" y1="158.5752" x2="-259.413" y2="158.5752" gradientTransform="matrix(39.4432 -18.5615 18.5615 39.4432 7603.3838 -10838.3838)">
			<stop  offset="0" style="stop-color:#FFA1A1"/>
			<stop  offset="0.0051" style="stop-color:#FFA1A1"/>
			<stop  offset="1" style="stop-color:#FFD9D9"/>
		</linearGradient>
		<polygon clip-path="url(#SVGID_5_)" fill="url(#SVGID_6_)" points="191.428,201.639 337.182,132.023 404.408,277.006 
			258.654,346.619 		"/>
	</g>
</g>
<g>
	<g>
		<defs>
			<path id="SVGID_7_" d="M116.318,279.646c0,0-7.296,13.672,19.364,16.234c26.662,2.564,77.027,0.854,73.313-2.848
				c-3.711-3.703-56.358-22.535-56.358-22.535s27.003-34.846,53.296-52.788c26.292-17.946,8.305-37.511,8.305-37.511
				S160.101,195.908,116.318,279.646"/>
		</defs>
		<clipPath id="SVGID_8_">
			<use xlink:href="#SVGID_7_"  overflow="visible"/>
		</clipPath>
		
			<linearGradient id="SVGID_9_" gradientUnits="userSpaceOnUse" x1="-267.9875" y1="150.0078" x2="-266.9789" y2="150.0078" gradientTransform="matrix(-34.4076 -10.63 10.63 -34.4076 -10632.1025 2555.9373)">
			<stop  offset="0" style="stop-color:#FFA1A1"/>
			<stop  offset="0.0051" style="stop-color:#FFA1A1"/>
			<stop  offset="1" style="stop-color:#FFD9D9"/>
		</linearGradient>
		<polygon clip-path="url(#SVGID_8_)" fill="url(#SVGID_9_)" points="221.492,333.711 76.163,288.145 119.756,144.935 
			265.085,190.501 		"/>
	</g>
</g>
<g>
	<g>
		<defs>
			<path id="SVGID_10_" d="M222.36,157.624c0.189,7.921-2.655,15.896-8.051,21.658c3.408-0.015,6.818,5.884,10.227,11.782
				c3.417,5.914,6.834,11.826,10.252,11.781c6.823-0.084,13.651-23.937,20.479-24.057c-5.103-5.723-7.783-13.469-7.602-21.166
				c0.047-1.999,0.537-3.859,0.162-5.412c-3.694,2.322-7.96,3.688-12.293,3.688c-4.982,0-9.477-1.557-13.174-4.189
				C221.709,153.353,222.309,155.406,222.36,157.624"/>
		</defs>
		<clipPath id="SVGID_11_">
			<use xlink:href="#SVGID_10_"  overflow="visible"/>
		</clipPath>
		
			<linearGradient id="SVGID_12_" gradientUnits="userSpaceOnUse" x1="-252.1194" y1="143.6392" x2="-251.1009" y2="143.6392" gradientTransform="matrix(0 17.1412 -17.1412 0 2696.9409 4477.189)">
			<stop  offset="0" style="stop-color:#FFA1A1"/>
			<stop  offset="0.0051" style="stop-color:#FFA1A1"/>
			<stop  offset="1" style="stop-color:#FFD9D9"/>
		</linearGradient>
		<rect x="214.31" y="151.709" clip-path="url(#SVGID_11_)" fill="url(#SVGID_12_)" width="40.957" height="51.184"/>
	</g>
</g>
<g>
	<g>
		<defs>
			<path id="SVGID_13_" d="M204.266,104.848v24.993c0,17.209,13.744,31.158,30.699,31.158c16.959,0,30.703-13.949,30.703-31.158
				v-24.993c0-17.209-13.744-31.159-30.703-31.159C218.01,73.689,204.266,87.638,204.266,104.848"/>
		</defs>
		<clipPath id="SVGID_14_">
			<use xlink:href="#SVGID_13_"  overflow="visible"/>
		</clipPath>
		
			<linearGradient id="SVGID_16_" gradientUnits="userSpaceOnUse" x1="-258.8059" y1="150.0518" x2="-257.7876" y2="150.0518" gradientTransform="matrix(0 50.8427 -50.8427 0 7864.0088 13238.6104)">
			<stop  offset="0" style="stop-color:#FFA1A1"/>
			<stop  offset="0.0051" style="stop-color:#FFA1A1"/>
			<stop  offset="1" style="stop-color:#FFD9D9"/>
		</linearGradient>
		<rect x="204.265" y="73.689" clip-path="url(#SVGID_14_)" fill="url(#SVGID_16_)" width="61.402" height="87.31"/>
	</g>
</g>
<g>
	<g>
		<path id="SVGID_15_" fill="#25CCF7" d="M201.044,104.188v6.238c7.979,1.215,23.665,2.214,42.358-3.83l3.155-13.659
			c0,0,0.729,11.406,0.591,13.518c0,0,9.236,0.355,21.63-4.987C267.41,83.726,252.803,69.76,234.97,69.76
			C216.233,69.759,201.044,85.172,201.044,104.188"/>
	</g>
	<g>
		<defs>
			<path id="SVGID_17_" d="M201.044,104.188v6.238c7.979,1.215,23.665,2.214,42.358-3.83l3.155-13.659
				c0,0,0.729,11.406,0.591,13.518c0,0,9.236,0.355,21.63-4.987C267.41,83.726,252.803,69.76,234.97,69.76
				C216.233,69.759,201.044,85.172,201.044,104.188"/>
		</defs>
		<clipPath id="SVGID_18_">
			<use xlink:href="#SVGID_17_"  overflow="visible"/>
		</clipPath>
		<rect x="201.044" y="69.759" clip-path="url(#SVGID_18_)" fill="#25CCF7" width="67.735" height="42.88"/>
	</g>
</g>
<g>
	<g>
		<defs>
			<path id="SVGID_19_" d="M235.014,174.34c-8.294-0.148-12.925-2.73-17.447-5.521c0,0-4.963,10.923-14.524,14.82
				c-9.562,3.903-26.73,16.387-31.343,20.549c0,0,28.531,44.342,30.625,92.906h65.379c2.094-48.564,30.625-92.906,30.625-92.906
				c-4.615-4.162-21.781-16.646-31.342-20.549c-9.563-3.897-14.528-14.82-14.528-14.82
				C245.688,172.217,243.3,174.492,235.014,174.34"/>
		</defs>
		<clipPath id="SVGID_20_">
			<use xlink:href="#SVGID_19_"  overflow="visible"/>
		</clipPath>
		
			<linearGradient id="SVGID_21_" gradientUnits="userSpaceOnUse" x1="-259.9167" y1="151.1548" x2="-258.8986" y2="151.1548" gradientTransform="matrix(0 76.8579 -76.8579 0 11852.4668 20170.0176)">
			<stop  offset="0" style="stop-color:#FFFEF8"/>
			<stop  offset="1" style="stop-color:#EAE8E1"/>
		</linearGradient>
		<rect x="171.699" y="168.816" clip-path="url(#SVGID_20_)" fill="url(#SVGID_21_)" width="126.629" height="128.276"/>
	</g>
</g>
<path fill="#DBDBDB" d="M411.361,301.183H40.911c-1.485,0-2.687-1.223-2.687-2.728s1.201-2.727,2.687-2.727h370.449
	c1.481,0,2.686,1.222,2.686,2.727S412.843,301.183,411.361,301.183"/>
<path fill="#0099CC" d="M291.684,295.667H126.031v-10.896h154.922C286.88,284.771,291.684,289.648,291.684,295.667"/>
<path fill="#0099CC" d="M249.69,295.667H126.031v-90.751c0-2.846,2.272-5.152,5.078-5.152h113.504c2.805,0,5.078,2.309,5.078,5.152
	L249.69,295.667L249.69,295.667z"/>
<path fill="#83E8F2" d="M416.44,106.091c0,21.804-17.418,39.479-38.901,39.479c-21.482,0-38.901-17.675-38.901-39.479
	c0-21.805,17.419-39.482,38.901-39.482C399.022,66.609,416.44,84.286,416.44,106.091"/>
<path fill="#2CDDD4" d="M390.935,176.195c-11.769-1.42-21.766,7.871-21.766,19.535c0,9.377,9.536,21.865,16.378,32.244
	c1.465,2.224,4.678,2.225,6.167,0.019c9.679-14.329,17.187-23.706,16.135-34.244C406.941,184.686,399.849,177.27,390.935,176.195
	 M388.559,207.818c-6.087,0-11.021-5.006-11.021-11.183c0-6.175,4.934-11.183,11.021-11.183c6.083,0,11.021,5.008,11.021,11.183
	C399.578,202.813,394.642,207.818,388.559,207.818"/>
<polygon opacity="0.24" fill="#2CDDD4" enable-background="new    " points="364.677,55.361 355.462,46.009 364.677,36.655 
	373.892,46.009 "/>
<polygon opacity="0.24" fill="#2CDDD4" enable-background="new    " points="362.905,169.348 357.834,164.061 363.046,158.916 
	368.116,164.201 "/>
<path fill="#25CCF7" d="M158.867,106.091c0,2.415-1.93,4.375-4.312,4.375c-2.383,0-4.313-1.96-4.313-4.375
	c0-2.417,1.931-4.378,4.313-4.378S158.867,103.674,158.867,106.091"/>
<path fill="#2CDDD4" d="M371.36,236.787c0,4.699-3.756,8.511-8.384,8.511c-4.632,0-8.387-3.812-8.387-8.511
	c0-4.7,3.755-8.51,8.387-8.51C367.604,228.277,371.36,232.087,371.36,236.787"/>
<ellipse opacity="0.24" fill="#2CDDD4" enable-background="new    " cx="227.729" cy="29.649" rx="8.386" ry="8.511"/>
<path fill="#83E8F2" d="M169.06,113.654c0,1.854-1.482,3.359-3.31,3.359c-1.829,0-3.313-1.505-3.313-3.359
	c0-1.856,1.482-3.36,3.313-3.36C167.577,110.294,169.06,111.798,169.06,113.654"/>
<g>
	<g>
		<path fill="#FFFFFF" d="M406.506,114.293c0-0.878-0.512-1.61-1.233-1.973V98.714c0.163-0.064,0.267-0.218,0.265-0.393
			c0-0.179-0.113-0.334-0.275-0.388L377.6,88.027c-0.35-0.126-0.739-0.126-1.095,0l-27.656,9.907
			c-0.164,0.055-0.271,0.21-0.276,0.388c0,0.175,0.104,0.333,0.266,0.393l27.62,10.91c0.384,0.151,0.81,0.151,1.193,0l25.71-10.161
			v12.854c-0.722,0.36-1.229,1.102-1.229,1.972c0,0.914,0.547,1.701,1.329,2.039c-0.782,1.569-1.329,4.783-1.329,5.7
			c0,1.225,0.979,2.215,2.184,2.215c1.204,0,2.187-0.99,2.187-2.215c0-0.917-0.553-4.131-1.33-5.7
			C405.954,115.995,406.506,115.205,406.506,114.293z"/>
		<path fill="#FFFFFF" d="M357.487,104.211c0.002,3.14,0.005,6.832,0.005,7.42c0,5.843,8.663,10.598,19.562,10.897
			c10.898-0.3,19.565-5.05,19.565-10.897c0-0.586,0-4.28,0.005-7.42l-18.977,7.495c-0.387,0.15-0.813,0.15-1.195,0L357.487,104.211z
			"/>
	</g>
</g>
<g>
	<path fill="#999999" d="M248.49,153.444c11.688,0,21.163-9.615,21.163-21.476h4.209c0,14.219-11.361,25.745-25.371,25.745
		L248.49,153.444L248.49,153.444z"/>
	<path fill="#5F6568" d="M237.359,151.725h7.928c2.174,0,3.941,1.789,3.941,3.998v0.611c0,2.211-1.768,4.002-3.941,4.002h-7.928
		c-2.176,0-3.941-1.791-3.941-4.002v-0.611C233.417,153.514,235.183,151.725,237.359,151.725z"/>
	<g>
		<path fill="#999999" d="M269.395,116.193V98.532c0-19.091-15.248-34.565-34.058-34.565c-18.809,0-34.058,15.475-34.058,34.565
			v17.662h-7.481V98.398c0-23.282,18.598-42.157,41.539-42.157c22.94,0,41.541,18.875,41.541,42.157v17.795H269.395z"/>
	</g>
	<g>
		<path fill="#999999" d="M183.86,113.075c-1.287,1.968-1.287,3.306-1.287,4.969v3.229v3.228c0,1.666,0,3.008,1.287,4.972
			l2.099,2.497v-10.696v-10.693L183.86,113.075z"/>
		<path fill="#5F6568" d="M197.263,137.13h-4.016c-4.025,0-7.29-3.31-7.29-7.398v-16.919c0-4.086,3.264-7.4,7.291-7.4h4.015
			c4.025,0,7.289,3.314,7.289,7.4v16.919C204.552,133.82,201.288,137.13,197.263,137.13z"/>
	</g>
	<g>
		<path fill="#999999" d="M287.413,113.075c1.287,1.968,1.287,3.306,1.287,4.969v3.229v3.228c0,1.666,0,3.008-1.287,4.972
			l-2.099,2.497v-10.696v-10.693L287.413,113.075z"/>
		<path fill="#5F6568" d="M274.015,137.13h4.016c4.025,0,7.288-3.31,7.288-7.398v-16.919c0-4.086-3.263-7.4-7.288-7.4h-4.016
			c-4.023,0-7.292,3.314-7.292,7.4v16.919C266.723,133.82,269.99,137.13,274.015,137.13z"/>
	</g>
</g>
<g>
	<g>
		<path fill="#25CCF7" d="M335.761,39.284c-3.659,0-5.7,3.688-4.866,6.427l-8.956,9.114c-0.762-0.232-1.866-0.232-2.622,0
			l-6.434-6.528c0.856-2.739-1.188-6.452-4.87-6.452c-3.655,0-5.725,3.688-4.865,6.452l-11.503,11.647
			c-2.701-0.846-6.329,1.228-6.329,4.941c0,2.816,2.267,5.12,5.043,5.12c3.655,0,5.7-3.687,4.868-6.425l11.479-11.675
			c0.753,0.233,1.863,0.233,2.621,0l6.435,6.53c-0.859,2.738,1.183,6.451,4.866,6.451c3.658,0,5.726-3.687,4.866-6.451l8.98-9.088
			c2.697,0.844,6.331-1.228,6.331-4.942C340.805,41.588,338.535,39.284,335.761,39.284z"/>
		<polygon fill="#25CCF7" points="320.626,41.845 322.996,36.545 328.194,34.165 322.996,31.785 320.626,26.486 318.305,31.785 
			313.06,34.165 318.305,36.545 		"/>
		<polygon fill="#25CCF7" points="291.617,46.965 292.88,41.845 297.923,40.565 292.88,39.284 291.617,34.165 290.358,39.284 
			285.315,40.565 290.358,41.845 		"/>
	</g>
</g>
<g>
	<g>
		<g>
			<defs>
				<path id="SVGID_22_" d="M75.397,78.35c0,21.979,17.554,39.792,39.208,39.792c21.652,0,39.204-17.813,39.204-39.792
					c0-21.973-17.552-39.786-39.204-39.786C92.951,38.564,75.397,56.377,75.397,78.35"/>
			</defs>
			<clipPath id="SVGID_23_">
				<use xlink:href="#SVGID_22_"  overflow="visible"/>
			</clipPath>
			<path clip-path="url(#SVGID_23_)" fill="#25CCF7" d="M165.132,82.254c0,27.48-21.95,49.76-49.026,49.76
				c-27.078,0-49.025-22.279-49.025-49.76c0-27.479,21.948-49.755,49.025-49.755S165.132,54.774,165.132,82.254"/>
		</g>
		<g>
			<defs>
				<path id="SVGID_24_" d="M75.397,78.35c0,21.979,17.554,39.792,39.208,39.792c21.652,0,39.204-17.813,39.204-39.792
					c0-21.973-17.552-39.786-39.204-39.786C92.951,38.564,75.397,56.377,75.397,78.35"/>
			</defs>
			<clipPath id="SVGID_25_">
				<use xlink:href="#SVGID_24_"  overflow="visible"/>
			</clipPath>
			<path clip-path="url(#SVGID_25_)" fill="#1E2D77" d="M107.235,90.856L107.235,90.856L107.235,90.856z"/>
		</g>
		<g>
			<defs>
				<path id="SVGID_26_" d="M75.397,78.35c0,21.979,17.554,39.792,39.208,39.792c21.652,0,39.204-17.813,39.204-39.792
					c0-21.973-17.552-39.786-39.204-39.786C92.951,38.564,75.397,56.377,75.397,78.35"/>
			</defs>
			<clipPath id="SVGID_27_">
				<use xlink:href="#SVGID_26_"  overflow="visible"/>
			</clipPath>
			<path clip-path="url(#SVGID_27_)" fill="#00637A" d="M114.758,96.229c5.654,0,9.626-4.566,9.629-4.569
				c-0.547-0.17-1.089-0.341-1.614-0.51l0,0c-2.837,2.402-5.489,3.186-7.774,3.163l-0.396,0.76l-0.39-0.802
				c-4.207-0.391-6.976-3.412-6.978-3.414c-0.594,0.187-1.219,0.38-1.856,0.581C106.649,92.825,110.226,96.229,114.758,96.229"/>
		</g>
		<g>
			<defs>
				<path id="SVGID_28_" d="M75.397,78.35c0,21.979,17.554,39.792,39.208,39.792c21.652,0,39.204-17.813,39.204-39.792
					c0-21.973-17.552-39.786-39.204-39.786C92.951,38.564,75.397,56.377,75.397,78.35"/>
			</defs>
			<clipPath id="SVGID_29_">
				<use xlink:href="#SVGID_28_"  overflow="visible"/>
			</clipPath>
			<path clip-path="url(#SVGID_29_)" fill="#0099CC" d="M90.805,113.438c0-8.69-0.818-16.048,7.038-19.492
				c1.63-0.718,4.707-1.621,7.535-2.509c1.271,1.388,4.848,4.792,9.38,4.792c5.654,0,9.626-4.566,9.629-4.569
				c2.25,0.709,4.596,1.258,6.049,1.761c10.177,3.526,8.63,11.987,8.63,20.017l-24.165,14.713L90.805,113.438z"/>
		</g>
		<g>
			<defs>
				<path id="SVGID_30_" d="M75.397,78.35c0,21.979,17.554,39.792,39.208,39.792c21.652,0,39.204-17.813,39.204-39.792
					c0-21.973-17.552-39.786-39.204-39.786C92.951,38.564,75.397,56.377,75.397,78.35"/>
			</defs>
			<clipPath id="SVGID_31_">
				<use xlink:href="#SVGID_30_"  overflow="visible"/>
			</clipPath>
			<path clip-path="url(#SVGID_31_)" fill="#FFFFFF" d="M114.998,94.312c2.285,0.023,4.938-0.761,7.774-3.163l0,0
				c-2.835-0.909-5.218-1.711-5.218-1.711L114.998,94.312z"/>
		</g>
		<g>
			<defs>
				<path id="SVGID_32_" d="M75.397,78.35c0,21.979,17.554,39.792,39.208,39.792c21.652,0,39.204-17.813,39.204-39.792
					c0-21.973-17.552-39.786-39.204-39.786C92.951,38.564,75.397,56.377,75.397,78.35"/>
			</defs>
			<clipPath id="SVGID_33_">
				<use xlink:href="#SVGID_32_"  overflow="visible"/>
			</clipPath>
			<path clip-path="url(#SVGID_33_)" fill="#FFFFFF" d="M114.212,94.27l-2.345-4.832c0,0-2.04,0.615-4.633,1.418l0,0
				C107.235,90.856,110.005,93.879,114.212,94.27"/>
		</g>
		<g>
			<defs>
				<path id="SVGID_34_" d="M75.397,78.35c0,21.979,17.554,39.792,39.208,39.792c21.652,0,39.204-17.813,39.204-39.792
					c0-21.973-17.552-39.786-39.204-39.786C92.951,38.564,75.397,56.377,75.397,78.35"/>
			</defs>
			<clipPath id="SVGID_35_">
				<use xlink:href="#SVGID_34_"  overflow="visible"/>
			</clipPath>
			<path clip-path="url(#SVGID_35_)" fill="#734D25" d="M105.904,82.667c0,0-11.128-6.167-9.129-21.05
				c0.518-3.839,2.56-7.654,4.749-9.922c3.708-3.834,13.233-8.07,19.739-1.136c0,0,2.567-1.503,5.468,0.688
				c6.899,5.215,8.697,22.265-2.756,30.904"/>
		</g>
		<g>
			<defs>
				<path id="SVGID_36_" d="M75.397,78.35c0,21.979,17.554,39.792,39.208,39.792c21.652,0,39.204-17.813,39.204-39.792
					c0-21.973-17.552-39.786-39.204-39.786C92.951,38.564,75.397,56.377,75.397,78.35"/>
			</defs>
			<clipPath id="SVGID_37_">
				<use xlink:href="#SVGID_36_"  overflow="visible"/>
			</clipPath>
			
				<linearGradient id="SVGID_38_" gradientUnits="userSpaceOnUse" x1="32.3347" y1="273.5479" x2="38.8093" y2="273.5479" gradientTransform="matrix(1 0 0 -1 79.0698 363.3711)">
				<stop  offset="0" style="stop-color:#FFA1A1"/>
				<stop  offset="0.0051" style="stop-color:#FFA1A1"/>
				<stop  offset="1" style="stop-color:#FFD9D9"/>
			</linearGradient>
			<polygon clip-path="url(#SVGID_37_)" fill="url(#SVGID_38_)" points="117.879,92.369 114.699,95.373 111.405,92.369 
				111.405,84.274 117.879,84.274 			"/>
		</g>
		<g>
			<defs>
				<path id="SVGID_39_" d="M75.397,78.35c0,21.979,17.554,39.792,39.208,39.792c21.652,0,39.204-17.813,39.204-39.792
					c0-21.973-17.552-39.786-39.204-39.786C92.951,38.564,75.397,56.377,75.397,78.35"/>
			</defs>
			<clipPath id="SVGID_40_">
				<use xlink:href="#SVGID_39_"  overflow="visible"/>
			</clipPath>
			
				<linearGradient id="SVGID_41_" gradientUnits="userSpaceOnUse" x1="20.908" y1="293.7363" x2="50.2371" y2="293.7363" gradientTransform="matrix(1 0 0 -1 79.0698 363.3711)">
				<stop  offset="0" style="stop-color:#FFA1A1"/>
				<stop  offset="0.0051" style="stop-color:#FFA1A1"/>
				<stop  offset="1" style="stop-color:#FFD9D9"/>
			</linearGradient>
			<path clip-path="url(#SVGID_40_)" fill="url(#SVGID_41_)" d="M129.307,69.635c0,8.961-6.563,16.224-14.665,16.224
				c-8.099,0-14.664-7.262-14.664-16.224c0-8.96,6.565-16.224,14.664-16.224C122.743,53.411,129.307,60.675,129.307,69.635"/>
		</g>
		<g>
			<defs>
				<path id="SVGID_42_" d="M75.397,78.35c0,21.979,17.554,39.792,39.208,39.792c21.652,0,39.204-17.813,39.204-39.792
					c0-21.973-17.552-39.786-39.204-39.786C92.951,38.564,75.397,56.377,75.397,78.35"/>
			</defs>
			<clipPath id="SVGID_43_">
				<use xlink:href="#SVGID_42_"  overflow="visible"/>
			</clipPath>
			
				<linearGradient id="SVGID_44_" gradientUnits="userSpaceOnUse" x1="24.5369" y1="292.1719" x2="50.2371" y2="292.1719" gradientTransform="matrix(1 0 0 -1 79.0698 363.3711)">
				<stop  offset="0" style="stop-color:#FFA1A1"/>
				<stop  offset="0.0051" style="stop-color:#FFA1A1"/>
				<stop  offset="1" style="stop-color:#FFD9D9"/>
			</linearGradient>
			<path clip-path="url(#SVGID_43_)" fill="url(#SVGID_44_)" d="M123.297,56.54c2.259,2.852,3.629,6.588,3.629,10.679
				c0,8.96-6.565,16.222-14.663,16.222c-3.24,0-6.229-1.162-8.656-3.128c2.688,3.399,6.635,5.546,11.035,5.546
				c8.102,0,14.665-7.262,14.665-16.224C129.307,64.258,126.94,59.491,123.297,56.54"/>
		</g>
		<g>
			<defs>
				<path id="SVGID_45_" d="M75.397,78.35c0,21.979,17.554,39.792,39.208,39.792c21.652,0,39.204-17.813,39.204-39.792
					c0-21.973-17.552-39.786-39.204-39.786C92.951,38.564,75.397,56.377,75.397,78.35"/>
			</defs>
			<clipPath id="SVGID_46_">
				<use xlink:href="#SVGID_45_"  overflow="visible"/>
			</clipPath>
			<path clip-path="url(#SVGID_46_)" fill="#734D25" d="M125.314,57.403c-3.921-4.354-9.322-4.64-13.188-3.993
				c-3.962,0.665-14.476,6.289-11.831,19.599c0,0,4.279-2.1,5.163-8.09c0.423-2.868,4.902,0.742,9.205,0.885
				c4.026,0.133,8.329-4.013,9.535-0.885c0.863,2.25-0.26,6.032,5.108,8.144C129.307,73.063,131.351,64.108,125.314,57.403"/>
		</g>
		<g>
			<defs>
				<path id="SVGID_47_" d="M75.397,78.35c0,21.979,17.554,39.792,39.208,39.792c21.652,0,39.204-17.813,39.204-39.792
					c0-21.973-17.552-39.786-39.204-39.786C92.951,38.564,75.397,56.377,75.397,78.35"/>
			</defs>
			<clipPath id="SVGID_48_">
				<use xlink:href="#SVGID_47_"  overflow="visible"/>
			</clipPath>
			<polygon clip-path="url(#SVGID_48_)" fill="#F2F2F2" points="111.405,88.311 107.235,90.856 113.45,96.229 114.699,95.373 			"/>
		</g>
		<g>
			<defs>
				<path id="SVGID_49_" d="M75.397,78.35c0,21.979,17.554,39.792,39.208,39.792c21.652,0,39.204-17.813,39.204-39.792
					c0-21.973-17.552-39.786-39.204-39.786C92.951,38.564,75.397,56.377,75.397,78.35"/>
			</defs>
			<clipPath id="SVGID_50_">
				<use xlink:href="#SVGID_49_"  overflow="visible"/>
			</clipPath>
			<polygon clip-path="url(#SVGID_50_)" fill="#F2F2F2" points="118.05,88.311 122.773,91.149 116.028,96.229 114.758,95.373 			"/>
		</g>
	</g>
	<g>
		<path fill="#999999" d="M119.684,83.371c4.522,0,8.188-3.477,8.188-7.761h1.629c0,5.138-4.396,9.304-9.817,9.304V83.371z"/>
		<path fill="#5F6568" d="M115.377,82.746h3.066c0.842,0,1.523,0.649,1.523,1.447v0.221c0,0.8-0.683,1.444-1.523,1.444h-3.066
			c-0.844,0-1.526-0.645-1.526-1.444v-0.221C113.852,83.395,114.533,82.746,115.377,82.746z"/>
		<g>
			<path fill="#999999" d="M127.771,69.907v-6.381c0-6.898-5.899-12.49-13.177-12.49c-7.275,0-13.176,5.592-13.176,12.49v6.381
				h-2.896v-6.428c0-8.412,7.195-15.231,16.071-15.231c8.877,0,16.072,6.82,16.072,15.231v6.428H127.771z"/>
		</g>
		<g>
			<path fill="#999999" d="M94.678,68.783c-0.499,0.71-0.499,1.195-0.499,1.794v1.167v1.165c0,0.603,0,1.085,0.499,1.798
				l0.811,0.902v-3.865v-3.863L94.678,68.783z"/>
			<path fill="#5F6568" d="M99.863,77.474H98.31c-1.559,0-2.821-1.196-2.821-2.671v-6.115c0-1.476,1.264-2.675,2.821-2.675h1.553
				c1.558,0,2.82,1.199,2.82,2.675v6.115C102.683,76.277,101.419,77.474,99.863,77.474z"/>
		</g>
		<g>
			<path fill="#999999" d="M134.744,68.783c0.497,0.71,0.497,1.195,0.497,1.794v1.167v1.165c0,0.603,0,1.085-0.497,1.798
				l-0.813,0.902v-3.865v-3.863L134.744,68.783z"/>
			<path fill="#5F6568" d="M129.56,77.474h1.553c1.559,0,2.82-1.196,2.82-2.671v-6.115c0-1.476-1.263-2.675-2.82-2.675h-1.553
				c-1.557,0-2.823,1.199-2.823,2.675v6.115C126.737,76.277,128.002,77.474,129.56,77.474z"/>
		</g>
	</g>
</g>
<ellipse opacity="0.24" fill="#2CDDD4" enable-background="new    " cx="119.684" cy="168.817" rx="6.431" ry="6.525"/>
<path fill="#C97D7D" d="M227.799,145.901c0.354-0.268,2.009,2.241,5.293,2.585c3.285,0.356,5.735-1.711,5.988-1.375
	c0.139,0.136-0.267,0.889-1.355,1.67c-1.069,0.778-2.896,1.502-4.905,1.29c-2.008-0.22-3.52-1.3-4.282-2.271
	C227.752,146.814,227.622,146.01,227.799,145.901"/>
<path fill="#C97D7D" d="M111.44,80.676c0.161-0.108,0.815,1.017,2.229,1.248c1.41,0.235,2.519-0.597,2.621-0.445
	c0.055,0.064-0.139,0.377-0.629,0.689c-0.48,0.309-1.287,0.577-2.15,0.434c-0.864-0.144-1.49-0.649-1.796-1.088
	C111.396,81.067,111.361,80.715,111.44,80.676"/>
<use xlink:href="#Nuevo_símbolo_1"  width="199.076" height="303.057" x="-99.538" y="-151.528" transform="matrix(0.1118 0 0 -0.1118 187.8606 247.7158)" overflow="visible"/>
</svg>
