<?xml version="1.0" encoding="utf-8"?>
<!-- Generator: Adobe Illustrator 15.0.0, SVG Export Plug-In . SVG Version: 6.00 Build 0)  -->
<!DOCTYPE svg PUBLIC "-//W3C//DTD SVG 1.1//EN" "http://www.w3.org/Graphics/SVG/1.1/DTD/svg11.dtd">
<svg version="1.1" id="Capa_1" xmlns="http://www.w3.org/2000/svg" xmlns:xlink="http://www.w3.org/1999/xlink" x="0px" y="0px"
	 width="527.381px" height="344.047px" viewBox="0 0 527.381 344.047" enable-background="new 0 0 527.381 344.047"
	 xml:space="preserve">
<symbol  id="diverlingua_completo" viewBox="-224.894 -143.119 449.789 286.238">
	<g id="diverlingua_1_2_">
		<g id="Nuevo_símbolo_2_">
			<g id="diverlingua_2_">
				<path fill="#0099CC" d="M-184.592-72.715v24.9c0,2.7,2.2,4.9,4.9,4.9c2.8,0,5-2.2,5-4.9v-44.801v-0.1
					c0-13.804-11.301-25.102-25.102-25.102c-13.901,0-25.102,11.298-25.102,25.102c0,13.899,11.201,25.1,25.102,25.1
					C-194.092-67.615-188.792-69.515-184.592-72.715z M-184.592-92.715v0.1c0,8.3-6.8,15.1-15.201,15.1s-15.201-6.8-15.201-15.199
					c0-8.301,6.801-15.201,15.201-15.201S-184.592-101.118-184.592-92.715z"/>
				<path fill="#0099CC" d="M-166.994-56.515c-0.9,0.9-1.5,2.201-1.5,3.5c0,1.301,0.6,2.601,1.5,3.501c0.9,0.899,2.2,1.5,3.5,1.5
					c1.3,0,2.6-0.601,3.5-1.5c0.9-0.9,1.4-2.2,1.4-3.501c0-1.299-0.5-2.6-1.4-3.5c-0.9-0.9-2.2-1.4-3.5-1.4
					C-164.794-57.915-166.094-57.415-166.994-56.515z M-168.494-113.118v40.303c0,2.7,2.2,4.9,5,4.9c2.7,0,4.9-2.2,4.9-4.9v-40.303
					c0-2.801-2.2-5-4.9-5C-166.294-118.118-168.494-115.919-168.494-113.118z"/>
				<path fill="#0099CC" d="M-112.593-74.715l-15.001-40.003c-0.8-2-2.7-3.301-4.7-3.301c-0.1,0-0.1,0-0.1,0c-2.1,0-4,1.4-4.7,3.301
					l-15.001,40.003c-1,2.6,0.3,5.5,2.9,6.399c2.6,1,5.4-0.3,6.4-2.9l10.5-27.899l10.4,27.899c1,2.601,3.8,3.9,6.4,2.9
					C-112.893-69.215-111.593-72.115-112.593-74.715z"/>
				<path fill="#0099CC" d="M-59.394-92.916c0-2.699-2.2-4.9-5-4.9h-34.502c2.1-6,7.7-10.302,14.401-10.302
					c2.3,0,6.4,0.202,11.201,3.302c2.3,1.5,5.4,0.099,6.6-2.302c1.2-2.5-0.1-5.1-2.4-6.6c-6.601-4.4-11.701-4.301-15.401-4.301
					c-13.901,0-25.102,11.301-25.102,25.103c0,13.9,11.201,25.101,25.102,25.101C-72.395-67.815-59.394-76.615-59.394-92.916z
					 M-98.896-87.916h28.902c-2.1,7-8.5,10.201-14.501,10.201C-91.196-77.715-96.796-82.016-98.896-87.916z"/>
				<path fill="#0099CC" d="M-23.297-72.815c0-2.7-2.2-5-5-5c-8.4,0-15.201-6.8-15.201-15.2v-20.103c0-2.698-2.2-5-4.9-5
					c-2.8,0-5,2.302-5,5v20.103c0,13.9,11.301,25.101,25.102,25.101C-25.498-67.915-23.297-70.115-23.297-72.815z"/>
				<path fill="#0099CC" d="M-17.302-113.118v65.104c0,2.7,2.2,4.9,5,4.9c2.7,0,4.9-2.2,4.9-4.9v-65.104c0-2.801-2.2-5-4.9-5
					C-15.102-118.118-17.302-115.919-17.302-113.118z"/>
				<path fill="#0099CC" d="M0.297-56.515c-0.899,0.9-1.5,2.201-1.5,3.5c0,1.301,0.601,2.601,1.5,3.501
					c0.9,0.899,2.201,1.5,3.501,1.5s2.601-0.601,3.5-1.5c0.9-0.9,1.4-2.2,1.4-3.501c0-1.299-0.5-2.6-1.4-3.5
					c-0.899-0.9-2.2-1.4-3.5-1.4S1.197-57.415,0.297-56.515z M-1.203-113.118v40.303c0,2.7,2.201,4.9,5.001,4.9
					c2.7,0,4.9-2.2,4.9-4.9v-40.303c0-2.801-2.2-5-4.9-5C0.998-118.118-1.203-115.919-1.203-113.118z"/>
				<path fill="#0099CC" d="M65.6-92.916v-20.103c0-2.798-2.199-5-5-5c-2.699,0-4.9,2.202-4.9,5v20.103
					c0,8.4-6.801,15.201-15.201,15.201s-15.2-6.801-15.2-15.201v-20.103c0-2.798-2.2-5-5.001-5c-2.699,0-4.9,2.202-4.9,5v20.103
					c0,13.9,11.301,25.101,25.102,25.101S65.6-79.016,65.6-92.916z"/>
				<path fill="#0099CC" d="M121.697-118.019c0-13.801-11.301-25.101-25.102-25.101c-9.701,0-18.301,5.399-22.602,14.101
					c-1.199,2.5-0.199,5.4,2.301,6.6c2.4,1.201,5.4,0.201,6.6-2.199c2.6-5.301,7.801-8.602,13.701-8.602
					c8.301,0,15,6.701,15.201,14.903c0,0.099,0,0.198,0,5.5c-4.301-3.202-9.5-5.202-15.201-5.202
					c-13.9,0-25.102,11.301-25.102,25.103c0,13.9,11.201,25.101,25.102,25.101c13.801,0,25.102-11.2,25.102-25.101
					C121.697-92.916,121.697-92.916,121.697-118.019z M111.797-92.916c0,8.4-6.9,15.201-15.201,15.201
					c-8.4,0-15.201-6.801-15.201-15.201c0-8.302,6.801-15.202,15.201-15.202C104.896-108.118,111.797-101.218,111.797-92.916z"/>
				<path fill="#0099CC" d="M168.895-72.815v-25.101v-0.1c-0.1-11.103-9.1-20.103-20.301-20.103c-11.1,0-20.102,9-20.201,20.103v0.1
					v25.101c0,2.7,2.201,4.9,4.9,4.9c2.801,0,5-2.2,5-4.9v-25.001c0-5.699,4.6-10.401,10.301-10.401c5.801,0,10.4,4.702,10.4,10.401
					v25.001c0,2.7,2.201,4.9,5,4.9C166.695-67.915,168.895-70.115,168.895-72.815z"/>
				<path fill="#0099CC" d="M224.895-93.316v-19.603c0-2.897-2.1-5-5-5c-2,0-4.801,2.103-4.801,5c-4.299-3.6-9.1-5-14.801-5
					c-14.1,0-25.301,10.503-25.301,24.603c0,14.102,11.201,25.302,25.301,25.302C214.395-68.015,224.895-79.215,224.895-93.316z
					 M215.094-93.316c0,8.4-6.4,15.501-14.801,15.501s-15.5-7.101-15.5-15.501c0-8.401,7.1-14.802,15.5-14.802
					S215.094-101.718,215.094-93.316z"/>
				<path fill="#0099CC" d="M11.108,76.769c0-5.42-3.721-9.959-8.75-11.22c-1.62,0.25-3.29,0.37-4.98,0.37
					c-0.59,0-1.17-0.01-1.75-0.04c-0.01,0-0.02,0-0.02,0c-13.28-0.67-24.561-8.87-29.66-20.42c-0.68-1.53-1.25-3.12-1.71-4.77
					c0.01-0.011,0-0.011-0.01-0.021c-2.04-3.229-5.65-5.38-9.771-5.38c-6.39,0-11.56,5.17-11.56,11.56c0,0.23,0.01,0.461,0.02,0.69
					c0.601,2.07,1.311,4.08,2.13,6.04c8.561,20.43,28.721,34.72,52.33,34.72c0.4,0,0.801,0,1.2-0.01c0,0,0,0,0.01,0
					c1.03-0.02,2.051-0.07,3.061-0.15C7.028,87.149,11.108,82.439,11.108,76.769z"/>
				<path fill="none" stroke="#19161A" stroke-miterlimit="10" d="M31.727,55.768"/>
				<path fill="#993399" d="M54.098,132.049v-55c-1.18-5.04-5.659-8.79-11.029-8.79c-6.261,0-11.341,5.12-11.341,11.43v52.36
					c0,6.1,4.971,11.07,11.07,11.07C49.128,143.119,54.098,138.149,54.098,132.049z"/>
				<path fill="#0099CC" d="M43.068,61.159c-6.261,0-11.341-5.12-11.341-11.43V30.568c0-18.989-15.369-34.359-34.35-34.359
					c-13.979,0-25.989,8.46-31.37,20.39v0.011c-0.869,1.95-1.569,3.989-2.069,6.109c0,0.01,0,0.01,0,0.01
					c-2.09,2.99-5.561,4.94-9.48,4.94c-6.39,0-11.56-5.18-11.56-11.57c0-0.63,0.05-1.239,0.14-1.84c0.01-0.01,0.01-0.02,0.01-0.02
					c0.36-1.2,0.75-2.38,1.19-3.55c0-0.011,0.01-0.021,0.01-0.03c8.061-21.45,28.76-36.82,53.13-36.82
					c31.18,0,56.72,25.54,56.72,56.729v21.801C52.918,57.409,48.438,61.159,43.068,61.159z"/>
			</g>
		</g>
	</g>
</symbol>
<use xlink:href="#diverlingua_completo"  width="449.789" height="286.238" x="-224.894" y="-143.119" transform="matrix(1 0 0 -1 262.2383 175.9521)" overflow="visible"/>
</svg>
